<?xml version="1.0" encoding="UTF-8" standalone="no"?>
<!DOCTYPE svg PUBLIC "-//W3C//DTD SVG 1.1//EN"
 "http://www.w3.org/Graphics/SVG/1.1/DTD/svg11.dtd">
<!-- Generated by graphviz version 7.1.0 (20230121.1956)
 -->
<!-- Title: Procedure Graph Pages: 1 -->
<svg width="3617pt" height="404pt"
 viewBox="0.00 0.00 3616.99 404.00" xmlns="http://www.w3.org/2000/svg" xmlns:xlink="http://www.w3.org/1999/xlink">
<g id="graph0" class="graph" transform="scale(1 1) rotate(0) translate(4 400)">
<title>Procedure Graph</title>
<polygon fill="white" stroke="none" points="-4,4 -4,-400 3612.99,-400 3612.99,4 -4,4"/>
<!-- _init -->
<g id="node1" class="node">
<title>_init</title>
<ellipse fill="none" stroke="black" cx="476.9" cy="-378" rx="27" ry="18"/>
<text text-anchor="middle" x="476.9" y="-374.3" font-family="Times New Roman,serif" font-size="14.00">_init</text>
</g>
<!-- call_weak_fn -->
<g id="node44" class="node">
<title>call_weak_fn</title>
<ellipse fill="none" stroke="black" cx="476.9" cy="-306" rx="58.49" ry="18"/>
<text text-anchor="middle" x="476.9" y="-302.3" font-family="Times New Roman,serif" font-size="14.00">call_weak_fn</text>
</g>
<!-- _init&#45;&gt;call_weak_fn -->
<g id="edge1" class="edge">
<title>_init&#45;&gt;call_weak_fn</title>
<path fill="none" stroke="black" d="M476.9,-359.7C476.9,-352.41 476.9,-343.73 476.9,-335.54"/>
<polygon fill="black" stroke="black" points="480.4,-335.62 476.9,-325.62 473.4,-335.62 480.4,-335.62"/>
</g>
<!-- .plt -->
<g id="node2" class="node">
<title>.plt</title>
<ellipse fill="none" stroke="black" cx="664.9" cy="-378" rx="27" ry="18"/>
<text text-anchor="middle" x="664.9" y="-374.3" font-family="Times New Roman,serif" font-size="14.00">.plt</text>
</g>
<!-- strlen@plt -->
<g id="node3" class="node">
<title>strlen@plt</title>
<ellipse fill="none" stroke="black" cx="597.9" cy="-18" rx="48.19" ry="18"/>
<text text-anchor="middle" x="597.9" y="-14.3" font-family="Times New Roman,serif" font-size="14.00">strlen@plt</text>
</g>
<!-- exit@plt -->
<g id="node4" class="node">
<title>exit@plt</title>
<ellipse fill="none" stroke="black" cx="2780.9" cy="-90" rx="40.89" ry="18"/>
<text text-anchor="middle" x="2780.9" y="-86.3" font-family="Times New Roman,serif" font-size="14.00">exit@plt</text>
</g>
<!-- __libc_start_main@plt -->
<g id="node5" class="node">
<title>__libc_start_main@plt</title>
<ellipse fill="none" stroke="black" cx="1025.9" cy="-306" rx="93.68" ry="18"/>
<text text-anchor="middle" x="1025.9" y="-302.3" font-family="Times New Roman,serif" font-size="14.00">__libc_start_main@plt</text>
</g>
<!-- execl@plt -->
<g id="node6" class="node">
<title>execl@plt</title>
<ellipse fill="none" stroke="black" cx="1613.9" cy="-90" rx="46.59" ry="18"/>
<text text-anchor="middle" x="1613.9" y="-86.3" font-family="Times New Roman,serif" font-size="14.00">execl@plt</text>
</g>
<!-- perror@plt -->
<g id="node7" class="node">
<title>perror@plt</title>
<ellipse fill="none" stroke="black" cx="2890.9" cy="-90" rx="50.89" ry="18"/>
<text text-anchor="middle" x="2890.9" y="-86.3" font-family="Times New Roman,serif" font-size="14.00">perror@plt</text>
</g>
<!-- listen@plt -->
<g id="node8" class="node">
<title>listen@plt</title>
<ellipse fill="none" stroke="black" cx="3231.9" cy="-162" rx="46.59" ry="18"/>
<text text-anchor="middle" x="3231.9" y="-158.3" font-family="Times New Roman,serif" font-size="14.00">listen@plt</text>
</g>
<!-- htonl@plt -->
<g id="node9" class="node">
<title>htonl@plt</title>
<ellipse fill="none" stroke="black" cx="3342.9" cy="-162" rx="46.29" ry="18"/>
<text text-anchor="middle" x="3342.9" y="-158.3" font-family="Times New Roman,serif" font-size="14.00">htonl@plt</text>
</g>
<!-- bind@plt -->
<g id="node10" class="node">
<title>bind@plt</title>
<ellipse fill="none" stroke="black" cx="3450.9" cy="-162" rx="44.39" ry="18"/>
<text text-anchor="middle" x="3450.9" y="-158.3" font-family="Times New Roman,serif" font-size="14.00">bind@plt</text>
</g>
<!-- sprintf@plt -->
<g id="node11" class="node">
<title>sprintf@plt</title>
<ellipse fill="none" stroke="black" cx="909.9" cy="-18" rx="51.99" ry="18"/>
<text text-anchor="middle" x="909.9" y="-14.3" font-family="Times New Roman,serif" font-size="14.00">sprintf@plt</text>
</g>
<!-- pipe@plt -->
<g id="node12" class="node">
<title>pipe@plt</title>
<ellipse fill="none" stroke="black" cx="1760.9" cy="-90" rx="44.39" ry="18"/>
<text text-anchor="middle" x="1760.9" y="-86.3" font-family="Times New Roman,serif" font-size="14.00">pipe@plt</text>
</g>
<!-- fork@plt -->
<g id="node13" class="node">
<title>fork@plt</title>
<ellipse fill="none" stroke="black" cx="1866.9" cy="-90" rx="43.59" ry="18"/>
<text text-anchor="middle" x="1866.9" y="-86.3" font-family="Times New Roman,serif" font-size="14.00">fork@plt</text>
</g>
<!-- fclose@plt -->
<g id="node14" class="node">
<title>fclose@plt</title>
<ellipse fill="none" stroke="black" cx="378.9" cy="-90" rx="50.09" ry="18"/>
<text text-anchor="middle" x="378.9" y="-86.3" font-family="Times New Roman,serif" font-size="14.00">fclose@plt</text>
</g>
<!-- atoi@plt -->
<g id="node15" class="node">
<title>atoi@plt</title>
<ellipse fill="none" stroke="black" cx="1969.9" cy="-90" rx="41.69" ry="18"/>
<text text-anchor="middle" x="1969.9" y="-86.3" font-family="Times New Roman,serif" font-size="14.00">atoi@plt</text>
</g>
<!-- fopen@plt -->
<g id="node16" class="node">
<title>fopen@plt</title>
<ellipse fill="none" stroke="black" cx="495.9" cy="-90" rx="49.29" ry="18"/>
<text text-anchor="middle" x="495.9" y="-86.3" font-family="Times New Roman,serif" font-size="14.00">fopen@plt</text>
</g>
<!-- ntohs@plt -->
<g id="node17" class="node">
<title>ntohs@plt</title>
<ellipse fill="none" stroke="black" cx="3560.9" cy="-162" rx="48.19" ry="18"/>
<text text-anchor="middle" x="3560.9" y="-158.3" font-family="Times New Roman,serif" font-size="14.00">ntohs@plt</text>
</g>
<!-- setsockopt@plt -->
<g id="node18" class="node">
<title>setsockopt@plt</title>
<ellipse fill="none" stroke="black" cx="2564.9" cy="-162" rx="68.49" ry="18"/>
<text text-anchor="middle" x="2564.9" y="-158.3" font-family="Times New Roman,serif" font-size="14.00">setsockopt@plt</text>
</g>
<!-- memset@plt -->
<g id="node19" class="node">
<title>memset@plt</title>
<ellipse fill="none" stroke="black" cx="2706.9" cy="-162" rx="55.79" ry="18"/>
<text text-anchor="middle" x="2706.9" y="-158.3" font-family="Times New Roman,serif" font-size="14.00">memset@plt</text>
</g>
<!-- accept@plt -->
<g id="node20" class="node">
<title>accept@plt</title>
<ellipse fill="none" stroke="black" cx="635.9" cy="-234" rx="51.99" ry="18"/>
<text text-anchor="middle" x="635.9" y="-230.3" font-family="Times New Roman,serif" font-size="14.00">accept@plt</text>
</g>
<!-- strcasecmp@plt -->
<g id="node21" class="node">
<title>strcasecmp@plt</title>
<ellipse fill="none" stroke="black" cx="1007.9" cy="-90" rx="69.59" ry="18"/>
<text text-anchor="middle" x="1007.9" y="-86.3" font-family="Times New Roman,serif" font-size="14.00">strcasecmp@plt</text>
</g>
<!-- htons@plt -->
<g id="node22" class="node">
<title>htons@plt</title>
<ellipse fill="none" stroke="black" cx="2828.9" cy="-162" rx="48.19" ry="18"/>
<text text-anchor="middle" x="2828.9" y="-158.3" font-family="Times New Roman,serif" font-size="14.00">htons@plt</text>
</g>
<!-- putenv@plt -->
<g id="node23" class="node">
<title>putenv@plt</title>
<ellipse fill="none" stroke="black" cx="2081.9" cy="-90" rx="52.79" ry="18"/>
<text text-anchor="middle" x="2081.9" y="-86.3" font-family="Times New Roman,serif" font-size="14.00">putenv@plt</text>
</g>
<!-- close@plt -->
<g id="node24" class="node">
<title>close@plt</title>
<ellipse fill="none" stroke="black" cx="1142.9" cy="-90" rx="47.39" ry="18"/>
<text text-anchor="middle" x="1142.9" y="-86.3" font-family="Times New Roman,serif" font-size="14.00">close@plt</text>
</g>
<!-- recv@plt -->
<g id="node25" class="node">
<title>recv@plt</title>
<ellipse fill="none" stroke="black" cx="2223.9" cy="-18" rx="44.39" ry="18"/>
<text text-anchor="middle" x="2223.9" y="-14.3" font-family="Times New Roman,serif" font-size="14.00">recv@plt</text>
</g>
<!-- __gmon_start__@plt -->
<g id="node26" class="node">
<title>__gmon_start__@plt</title>
<ellipse fill="none" stroke="black" cx="476.9" cy="-234" rx="89.08" ry="18"/>
<text text-anchor="middle" x="476.9" y="-230.3" font-family="Times New Roman,serif" font-size="14.00">__gmon_start__@plt</text>
</g>
<!-- stat@plt -->
<g id="node27" class="node">
<title>stat@plt</title>
<ellipse fill="none" stroke="black" cx="851.9" cy="-162" rx="40.89" ry="18"/>
<text text-anchor="middle" x="851.9" y="-158.3" font-family="Times New Roman,serif" font-size="14.00">stat@plt</text>
</g>
<!-- write@plt -->
<g id="node28" class="node">
<title>write@plt</title>
<ellipse fill="none" stroke="black" cx="2330.9" cy="-90" rx="46.29" ry="18"/>
<text text-anchor="middle" x="2330.9" y="-86.3" font-family="Times New Roman,serif" font-size="14.00">write@plt</text>
</g>
<!-- abort@plt -->
<g id="node29" class="node">
<title>abort@plt</title>
<ellipse fill="none" stroke="black" cx="1184.9" cy="-306" rx="47.39" ry="18"/>
<text text-anchor="middle" x="1184.9" y="-302.3" font-family="Times New Roman,serif" font-size="14.00">abort@plt</text>
</g>
<!-- feof@plt -->
<g id="node30" class="node">
<title>feof@plt</title>
<ellipse fill="none" stroke="black" cx="42.9" cy="-18" rx="42.79" ry="18"/>
<text text-anchor="middle" x="42.9" y="-14.3" font-family="Times New Roman,serif" font-size="14.00">feof@plt</text>
</g>
<!-- strcmp@plt -->
<g id="node31" class="node">
<title>strcmp@plt</title>
<ellipse fill="none" stroke="black" cx="827.9" cy="-90" rx="53.89" ry="18"/>
<text text-anchor="middle" x="827.9" y="-86.3" font-family="Times New Roman,serif" font-size="14.00">strcmp@plt</text>
</g>
<!-- __ctype_b_loc@plt -->
<g id="node32" class="node">
<title>__ctype_b_loc@plt</title>
<ellipse fill="none" stroke="black" cx="1032.9" cy="-162" rx="83.69" ry="18"/>
<text text-anchor="middle" x="1032.9" y="-158.3" font-family="Times New Roman,serif" font-size="14.00">__ctype_b_loc@plt</text>
</g>
<!-- send@plt -->
<g id="node33" class="node">
<title>send@plt</title>
<ellipse fill="none" stroke="black" cx="709.9" cy="-18" rx="45.49" ry="18"/>
<text text-anchor="middle" x="709.9" y="-14.3" font-family="Times New Roman,serif" font-size="14.00">send@plt</text>
</g>
<!-- socket@plt -->
<g id="node34" class="node">
<title>socket@plt</title>
<ellipse fill="none" stroke="black" cx="2946.9" cy="-162" rx="51.99" ry="18"/>
<text text-anchor="middle" x="2946.9" y="-158.3" font-family="Times New Roman,serif" font-size="14.00">socket@plt</text>
</g>
<!-- read@plt -->
<g id="node35" class="node">
<title>read@plt</title>
<ellipse fill="none" stroke="black" cx="2438.9" cy="-90" rx="44.39" ry="18"/>
<text text-anchor="middle" x="2438.9" y="-86.3" font-family="Times New Roman,serif" font-size="14.00">read@plt</text>
</g>
<!-- dup2@plt -->
<g id="node36" class="node">
<title>dup2@plt</title>
<ellipse fill="none" stroke="black" cx="2547.9" cy="-90" rx="46.59" ry="18"/>
<text text-anchor="middle" x="2547.9" y="-86.3" font-family="Times New Roman,serif" font-size="14.00">dup2@plt</text>
</g>
<!-- printf@plt -->
<g id="node37" class="node">
<title>printf@plt</title>
<ellipse fill="none" stroke="black" cx="753.9" cy="-234" rx="48.19" ry="18"/>
<text text-anchor="middle" x="753.9" y="-230.3" font-family="Times New Roman,serif" font-size="14.00">printf@plt</text>
</g>
<!-- getsockname@plt -->
<g id="node38" class="node">
<title>getsockname@plt</title>
<ellipse fill="none" stroke="black" cx="3091.9" cy="-162" rx="75.29" ry="18"/>
<text text-anchor="middle" x="3091.9" y="-158.3" font-family="Times New Roman,serif" font-size="14.00">getsockname@plt</text>
</g>
<!-- waitpid@plt -->
<g id="node39" class="node">
<title>waitpid@plt</title>
<ellipse fill="none" stroke="black" cx="2666.9" cy="-90" rx="54.69" ry="18"/>
<text text-anchor="middle" x="2666.9" y="-86.3" font-family="Times New Roman,serif" font-size="14.00">waitpid@plt</text>
</g>
<!-- fgets@plt -->
<g id="node40" class="node">
<title>fgets@plt</title>
<ellipse fill="none" stroke="black" cx="149.9" cy="-18" rx="46.29" ry="18"/>
<text text-anchor="middle" x="149.9" y="-14.3" font-family="Times New Roman,serif" font-size="14.00">fgets@plt</text>
</g>
<!-- _start -->
<g id="node41" class="node">
<title>_start</title>
<ellipse fill="none" stroke="black" cx="1104.9" cy="-378" rx="31.4" ry="18"/>
<text text-anchor="middle" x="1104.9" y="-374.3" font-family="Times New Roman,serif" font-size="14.00">_start</text>
</g>
<!-- _start&#45;&gt;__libc_start_main@plt -->
<g id="edge3" class="edge">
<title>_start&#45;&gt;__libc_start_main@plt</title>
<path fill="none" stroke="black" d="M1088.53,-362.5C1078.44,-353.56 1065.25,-341.87 1053.58,-331.53"/>
<polygon fill="black" stroke="black" points="1055.96,-328.97 1046.16,-324.95 1051.32,-334.21 1055.96,-328.97"/>
</g>
<!-- _start&#45;&gt;abort@plt -->
<g id="edge2" class="edge">
<title>_start&#45;&gt;abort@plt</title>
<path fill="none" stroke="black" d="M1121.47,-362.5C1132.08,-353.22 1146.08,-340.97 1158.22,-330.34"/>
<polygon fill="black" stroke="black" points="1160.31,-333.17 1165.53,-323.95 1155.7,-327.9 1160.31,-333.17"/>
</g>
<!-- __wrap_main -->
<g id="node42" class="node">
<title>__wrap_main</title>
<ellipse fill="none" stroke="black" cx="885.9" cy="-378" rx="60.39" ry="18"/>
<text text-anchor="middle" x="885.9" y="-374.3" font-family="Times New Roman,serif" font-size="14.00">__wrap_main</text>
</g>
<!-- main -->
<g id="node61" class="node">
<title>main</title>
<ellipse fill="none" stroke="black" cx="885.9" cy="-306" rx="27.9" ry="18"/>
<text text-anchor="middle" x="885.9" y="-302.3" font-family="Times New Roman,serif" font-size="14.00">main</text>
</g>
<!-- __wrap_main&#45;&gt;main -->
<g id="edge4" class="edge">
<title>__wrap_main&#45;&gt;main</title>
<path fill="none" stroke="black" d="M885.9,-359.7C885.9,-352.41 885.9,-343.73 885.9,-335.54"/>
<polygon fill="black" stroke="black" points="889.4,-335.62 885.9,-325.62 882.4,-335.62 889.4,-335.62"/>
</g>
<!-- _dl_relocate_static_pie -->
<g id="node43" class="node">
<title>_dl_relocate_static_pie</title>
<ellipse fill="none" stroke="black" cx="1248.9" cy="-378" rx="94.78" ry="18"/>
<text text-anchor="middle" x="1248.9" y="-374.3" font-family="Times New Roman,serif" font-size="14.00">_dl_relocate_static_pie</text>
</g>
<!-- call_weak_fn&#45;&gt;__gmon_start__@plt -->
<g id="edge5" class="edge">
<title>call_weak_fn&#45;&gt;__gmon_start__@plt</title>
<path fill="none" stroke="black" d="M476.9,-287.7C476.9,-280.41 476.9,-271.73 476.9,-263.54"/>
<polygon fill="black" stroke="black" points="480.4,-263.62 476.9,-253.62 473.4,-263.62 480.4,-263.62"/>
</g>
<!-- deregister_tm_clones -->
<g id="node45" class="node">
<title>deregister_tm_clones</title>
<ellipse fill="none" stroke="black" cx="1460.9" cy="-306" rx="88.28" ry="18"/>
<text text-anchor="middle" x="1460.9" y="-302.3" font-family="Times New Roman,serif" font-size="14.00">deregister_tm_clones</text>
</g>
<!-- register_tm_clones -->
<g id="node46" class="node">
<title>register_tm_clones</title>
<ellipse fill="none" stroke="black" cx="1646.9" cy="-306" rx="79.09" ry="18"/>
<text text-anchor="middle" x="1646.9" y="-302.3" font-family="Times New Roman,serif" font-size="14.00">register_tm_clones</text>
</g>
<!-- __do_global_dtors_aux -->
<g id="node47" class="node">
<title>__do_global_dtors_aux</title>
<ellipse fill="none" stroke="black" cx="1460.9" cy="-378" rx="98.58" ry="18"/>
<text text-anchor="middle" x="1460.9" y="-374.3" font-family="Times New Roman,serif" font-size="14.00">__do_global_dtors_aux</text>
</g>
<!-- __do_global_dtors_aux&#45;&gt;deregister_tm_clones -->
<g id="edge6" class="edge">
<title>__do_global_dtors_aux&#45;&gt;deregister_tm_clones</title>
<path fill="none" stroke="black" d="M1460.9,-359.7C1460.9,-352.41 1460.9,-343.73 1460.9,-335.54"/>
<polygon fill="black" stroke="black" points="1464.4,-335.62 1460.9,-325.62 1457.4,-335.62 1464.4,-335.62"/>
</g>
<!-- frame_dummy -->
<g id="node48" class="node">
<title>frame_dummy</title>
<ellipse fill="none" stroke="black" cx="1646.9" cy="-378" rx="63.89" ry="18"/>
<text text-anchor="middle" x="1646.9" y="-374.3" font-family="Times New Roman,serif" font-size="14.00">frame_dummy</text>
</g>
<!-- frame_dummy&#45;&gt;register_tm_clones -->
<g id="edge7" class="edge">
<title>frame_dummy&#45;&gt;register_tm_clones</title>
<path fill="none" stroke="black" d="M1646.9,-359.7C1646.9,-352.41 1646.9,-343.73 1646.9,-335.54"/>
<polygon fill="black" stroke="black" points="1650.4,-335.62 1646.9,-325.62 1643.4,-335.62 1650.4,-335.62"/>
</g>
<!-- accept_request -->
<g id="node49" class="node">
<title>accept_request</title>
<ellipse fill="none" stroke="black" cx="885.9" cy="-234" rx="65.79" ry="18"/>
<text text-anchor="middle" x="885.9" y="-230.3" font-family="Times New Roman,serif" font-size="14.00">accept_request</text>
</g>
<!-- accept_request&#45;&gt;strlen@plt -->
<g id="edge18" class="edge">
<title>accept_request&#45;&gt;strlen@plt</title>
<path fill="none" stroke="black" d="M838.47,-221.26C829.36,-219.29 819.86,-217.42 810.9,-216 668.23,-193.38 256.7,-223.46 169.9,-108 160.28,-95.21 159.3,-83.99 169.9,-72 193.93,-44.81 427.07,-28.4 538.78,-22.04"/>
<polygon fill="black" stroke="black" points="538.87,-25.54 548.66,-21.49 538.48,-18.55 538.87,-25.54"/>
</g>
<!-- accept_request&#45;&gt;sprintf@plt -->
<g id="edge11" class="edge">
<title>accept_request&#45;&gt;sprintf@plt</title>
<path fill="none" stroke="black" d="M948.41,-227.92C1011.93,-221.32 1104.02,-207.24 1125.9,-180 1135.92,-167.53 1136.14,-156.29 1125.9,-144 1068.9,-75.64 992.76,-170 928.9,-108 913.03,-92.6 908.83,-67.44 908.29,-47.79"/>
<polygon fill="black" stroke="black" points="911.79,-47.94 908.34,-37.92 904.79,-47.9 911.79,-47.94"/>
</g>
<!-- accept_request&#45;&gt;strcasecmp@plt -->
<g id="edge17" class="edge">
<title>accept_request&#45;&gt;strcasecmp@plt</title>
<path fill="none" stroke="black" d="M847.55,-218.93C830.34,-210.47 811.72,-197.82 801.9,-180 794.17,-165.99 792.09,-156.64 801.9,-144 818.31,-122.83 882.3,-108.63 934.66,-100.3"/>
<polygon fill="black" stroke="black" points="935.12,-103.77 944.48,-98.79 934.06,-96.85 935.12,-103.77"/>
</g>
<!-- accept_request&#45;&gt;close@plt -->
<g id="edge15" class="edge">
<title>accept_request&#45;&gt;close@plt</title>
<path fill="none" stroke="black" d="M891.7,-215.77C899.44,-195.46 915.12,-162.17 939.9,-144 994.14,-104.22 1022.02,-125.78 1086.9,-108 1089.97,-107.16 1093.14,-106.26 1096.32,-105.35"/>
<polygon fill="black" stroke="black" points="1097.07,-108.78 1105.68,-102.6 1095.1,-102.06 1097.07,-108.78"/>
</g>
<!-- accept_request&#45;&gt;stat@plt -->
<g id="edge16" class="edge">
<title>accept_request&#45;&gt;stat@plt</title>
<path fill="none" stroke="black" d="M877.49,-215.7C873.79,-208.07 869.34,-198.92 865.2,-190.4"/>
<polygon fill="black" stroke="black" points="868.38,-188.93 860.87,-181.47 862.09,-191.99 868.38,-188.93"/>
</g>
<!-- accept_request&#45;&gt;strcmp@plt -->
<g id="edge9" class="edge">
<title>accept_request&#45;&gt;strcmp@plt</title>
<path fill="none" stroke="black" d="M833.29,-222.78C809.35,-215.21 783.22,-202.21 768.9,-180 760.23,-166.55 762.38,-158.61 768.9,-144 774.22,-132.06 783.71,-121.69 793.54,-113.36"/>
<polygon fill="black" stroke="black" points="795.65,-116.16 801.37,-107.24 791.34,-110.64 795.65,-116.16"/>
</g>
<!-- accept_request&#45;&gt;__ctype_b_loc@plt -->
<g id="edge13" class="edge">
<title>accept_request&#45;&gt;__ctype_b_loc@plt</title>
<path fill="none" stroke="black" d="M917.79,-217.81C938.74,-207.84 966.4,-194.67 989.36,-183.73"/>
<polygon fill="black" stroke="black" points="990.64,-187 998.16,-179.54 987.63,-180.68 990.64,-187"/>
</g>
<!-- execute_cgi -->
<g id="node54" class="node">
<title>execute_cgi</title>
<ellipse fill="none" stroke="black" cx="1760.9" cy="-162" rx="53.89" ry="18"/>
<text text-anchor="middle" x="1760.9" y="-158.3" font-family="Times New Roman,serif" font-size="14.00">execute_cgi</text>
</g>
<!-- accept_request&#45;&gt;execute_cgi -->
<g id="edge14" class="edge">
<title>accept_request&#45;&gt;execute_cgi</title>
<path fill="none" stroke="black" d="M948.47,-227.99C1109.38,-215.12 1536.19,-180.98 1697.74,-168.05"/>
<polygon fill="black" stroke="black" points="1697.71,-171.57 1707.39,-167.28 1697.15,-164.59 1697.71,-171.57"/>
</g>
<!-- get_line -->
<g id="node55" class="node">
<title>get_line</title>
<ellipse fill="none" stroke="black" cx="2190.9" cy="-90" rx="38.19" ry="18"/>
<text text-anchor="middle" x="2190.9" y="-86.3" font-family="Times New Roman,serif" font-size="14.00">get_line</text>
</g>
<!-- accept_request&#45;&gt;get_line -->
<g id="edge10" class="edge">
<title>accept_request&#45;&gt;get_line</title>
<path fill="none" stroke="black" d="M951.93,-233C1105.64,-232.18 1499.01,-225.41 1823.9,-180 1968.27,-159.82 2003.97,-148.87 2143.9,-108 2146.3,-107.3 2148.76,-106.54 2151.23,-105.74"/>
<polygon fill="black" stroke="black" points="2152.22,-109.1 2160.57,-102.58 2149.97,-102.47 2152.22,-109.1"/>
</g>
<!-- not_found -->
<g id="node57" class="node">
<title>not_found</title>
<ellipse fill="none" stroke="black" cx="706.9" cy="-90" rx="48.99" ry="18"/>
<text text-anchor="middle" x="706.9" y="-86.3" font-family="Times New Roman,serif" font-size="14.00">not_found</text>
</g>
<!-- accept_request&#45;&gt;not_found -->
<g id="edge19" class="edge">
<title>accept_request&#45;&gt;not_found</title>
<path fill="none" stroke="black" d="M838.87,-221.06C813.33,-212.77 782.46,-199.62 759.9,-180 740.75,-163.35 726.61,-138.02 717.77,-118.63"/>
<polygon fill="black" stroke="black" points="721.08,-117.47 713.9,-109.68 714.66,-120.25 721.08,-117.47"/>
</g>
<!-- serve_file -->
<g id="node58" class="node">
<title>serve_file</title>
<ellipse fill="none" stroke="black" cx="617.9" cy="-162" rx="45.49" ry="18"/>
<text text-anchor="middle" x="617.9" y="-158.3" font-family="Times New Roman,serif" font-size="14.00">serve_file</text>
</g>
<!-- accept_request&#45;&gt;serve_file -->
<g id="edge12" class="edge">
<title>accept_request&#45;&gt;serve_file</title>
<path fill="none" stroke="black" d="M839.52,-220.89C791.01,-208.22 715.23,-188.42 666.06,-175.58"/>
<polygon fill="black" stroke="black" points="667.11,-172.24 656.55,-173.1 665.34,-179.01 667.11,-172.24"/>
</g>
<!-- unimplemented -->
<g id="node60" class="node">
<title>unimplemented</title>
<ellipse fill="none" stroke="black" cx="244.9" cy="-90" rx="65.79" ry="18"/>
<text text-anchor="middle" x="244.9" y="-86.3" font-family="Times New Roman,serif" font-size="14.00">unimplemented</text>
</g>
<!-- accept_request&#45;&gt;unimplemented -->
<g id="edge8" class="edge">
<title>accept_request&#45;&gt;unimplemented</title>
<path fill="none" stroke="black" d="M837.6,-221.47C828.74,-219.52 819.56,-217.61 810.9,-216 701.83,-195.72 672.43,-202.95 563.9,-180 468.64,-159.86 359.83,-127.42 297.07,-107.77"/>
<polygon fill="black" stroke="black" points="298.31,-104.49 287.72,-104.83 296.21,-111.17 298.31,-104.49"/>
</g>
<!-- bad_request -->
<g id="node50" class="node">
<title>bad_request</title>
<ellipse fill="none" stroke="black" cx="1492.9" cy="-90" rx="55.79" ry="18"/>
<text text-anchor="middle" x="1492.9" y="-86.3" font-family="Times New Roman,serif" font-size="14.00">bad_request</text>
</g>
<!-- bad_request&#45;&gt;sprintf@plt -->
<g id="edge21" class="edge">
<title>bad_request&#45;&gt;sprintf@plt</title>
<path fill="none" stroke="black" d="M1452.49,-77.23C1444.71,-75.26 1436.59,-73.4 1428.9,-72 1265.79,-42.2 1070.57,-27.92 972.57,-22.2"/>
<polygon fill="black" stroke="black" points="972.8,-18.71 962.61,-21.63 972.4,-25.7 972.8,-18.71"/>
</g>
<!-- bad_request&#45;&gt;send@plt -->
<g id="edge20" class="edge">
<title>bad_request&#45;&gt;send@plt</title>
<path fill="none" stroke="black" d="M1452.87,-77.07C1444.99,-75.09 1436.73,-73.27 1428.9,-72 1173.95,-30.65 1106.08,-59.69 848.9,-36 820.76,-33.41 789.53,-29.67 763.81,-26.35"/>
<polygon fill="black" stroke="black" points="764.28,-22.89 753.91,-25.06 763.37,-29.83 764.28,-22.89"/>
</g>
<!-- cat -->
<g id="node51" class="node">
<title>cat</title>
<ellipse fill="none" stroke="black" cx="95.9" cy="-90" rx="27" ry="18"/>
<text text-anchor="middle" x="95.9" y="-86.3" font-family="Times New Roman,serif" font-size="14.00">cat</text>
</g>
<!-- cat&#45;&gt;strlen@plt -->
<g id="edge23" class="edge">
<title>cat&#45;&gt;strlen@plt</title>
<path fill="none" stroke="black" d="M117.21,-78.84C123.44,-76.24 130.33,-73.7 136.9,-72 277.76,-35.47 449.37,-24.1 538.19,-20.58"/>
<polygon fill="black" stroke="black" points="538.27,-24.08 548.13,-20.2 538.01,-17.08 538.27,-24.08"/>
</g>
<!-- cat&#45;&gt;feof@plt -->
<g id="edge24" class="edge">
<title>cat&#45;&gt;feof@plt</title>
<path fill="none" stroke="black" d="M84.13,-73.46C77.66,-64.92 69.47,-54.1 62.1,-44.36"/>
<polygon fill="black" stroke="black" points="65.1,-42.53 56.28,-36.67 59.52,-46.76 65.1,-42.53"/>
</g>
<!-- cat&#45;&gt;send@plt -->
<g id="edge22" class="edge">
<title>cat&#45;&gt;send@plt</title>
<path fill="none" stroke="black" d="M120.72,-82.31C135,-78.7 153.34,-74.5 169.9,-72 383.62,-39.71 442.51,-76.17 654.9,-36 658.43,-35.33 662.06,-34.51 665.69,-33.6"/>
<polygon fill="black" stroke="black" points="666.28,-37.07 675,-31.05 664.43,-30.32 666.28,-37.07"/>
</g>
<!-- cat&#45;&gt;fgets@plt -->
<g id="edge25" class="edge">
<title>cat&#45;&gt;fgets@plt</title>
<path fill="none" stroke="black" d="M107.88,-73.46C114.47,-64.92 122.82,-54.1 130.33,-44.36"/>
<polygon fill="black" stroke="black" points="132.93,-46.72 136.27,-36.67 127.39,-42.45 132.93,-46.72"/>
</g>
<!-- cannot_execute -->
<g id="node52" class="node">
<title>cannot_execute</title>
<ellipse fill="none" stroke="black" cx="1351.9" cy="-90" rx="67.69" ry="18"/>
<text text-anchor="middle" x="1351.9" y="-86.3" font-family="Times New Roman,serif" font-size="14.00">cannot_execute</text>
</g>
<!-- cannot_execute&#45;&gt;strlen@plt -->
<g id="edge27" class="edge">
<title>cannot_execute&#45;&gt;strlen@plt</title>
<path fill="none" stroke="black" d="M1294.93,-80C1275.03,-77.1 1252.52,-74.1 1231.9,-72 976.72,-45.99 908.53,-80.35 655.9,-36 652.06,-35.33 648.12,-34.49 644.18,-33.55"/>
<polygon fill="black" stroke="black" points="645.2,-30.21 634.65,-31.08 643.44,-36.98 645.2,-30.21"/>
</g>
<!-- cannot_execute&#45;&gt;sprintf@plt -->
<g id="edge28" class="edge">
<title>cannot_execute&#45;&gt;sprintf@plt</title>
<path fill="none" stroke="black" d="M1300.81,-77.93C1290.59,-75.85 1279.92,-73.77 1269.9,-72 1164.35,-53.31 1040.57,-36.11 969.09,-26.64"/>
<polygon fill="black" stroke="black" points="969.95,-23.22 959.58,-25.38 969.04,-30.16 969.95,-23.22"/>
</g>
<!-- cannot_execute&#45;&gt;send@plt -->
<g id="edge26" class="edge">
<title>cannot_execute&#45;&gt;send@plt</title>
<path fill="none" stroke="black" d="M1301.76,-77.62C1291.27,-75.52 1280.25,-73.51 1269.9,-72 1084.07,-44.89 1035.69,-55.4 848.9,-36 820.9,-33.09 789.8,-29.34 764.13,-26.1"/>
<polygon fill="black" stroke="black" points="764.61,-22.63 754.25,-24.84 763.72,-29.57 764.61,-22.63"/>
</g>
<!-- error_die -->
<g id="node53" class="node">
<title>error_die</title>
<ellipse fill="none" stroke="black" cx="2434.9" cy="-162" rx="44.39" ry="18"/>
<text text-anchor="middle" x="2434.9" y="-158.3" font-family="Times New Roman,serif" font-size="14.00">error_die</text>
</g>
<!-- error_die&#45;&gt;exit@plt -->
<g id="edge30" class="edge">
<title>error_die&#45;&gt;exit@plt</title>
<path fill="none" stroke="black" d="M2467.74,-149.55C2474.36,-147.5 2481.31,-145.53 2487.9,-144 2594.23,-119.24 2624.78,-133.68 2730.9,-108 2733.66,-107.33 2736.5,-106.57 2739.34,-105.76"/>
<polygon fill="black" stroke="black" points="2740.24,-109.14 2748.77,-102.85 2738.18,-102.45 2740.24,-109.14"/>
</g>
<!-- error_die&#45;&gt;perror@plt -->
<g id="edge29" class="edge">
<title>error_die&#45;&gt;perror@plt</title>
<path fill="none" stroke="black" d="M2467.41,-149.41C2474.12,-147.35 2481.18,-145.41 2487.9,-144 2637.89,-112.42 2680.38,-137 2830.9,-108 2834.73,-107.26 2838.68,-106.39 2842.63,-105.44"/>
<polygon fill="black" stroke="black" points="2843.4,-108.86 2852.22,-102.99 2841.66,-102.08 2843.4,-108.86"/>
</g>
<!-- execute_cgi&#45;&gt;strlen@plt -->
<g id="edge34" class="edge">
<title>execute_cgi&#45;&gt;strlen@plt</title>
<path fill="none" stroke="black" d="M1707,-160.42C1589.5,-158.39 1314.22,-149.23 1231.9,-108 1212.49,-98.28 1218.46,-81.39 1198.9,-72 1089.87,-19.67 774.97,-57.13 655.9,-36 652.06,-35.32 648.12,-34.48 644.18,-33.54"/>
<polygon fill="black" stroke="black" points="645.21,-30.19 634.65,-31.06 643.45,-36.96 645.21,-30.19"/>
</g>
<!-- execute_cgi&#45;&gt;exit@plt -->
<g id="edge41" class="edge">
<title>execute_cgi&#45;&gt;exit@plt</title>
<path fill="none" stroke="black" d="M1814.79,-159.99C1991.67,-156.37 2553.21,-142.39 2730.9,-108 2733.87,-107.42 2736.92,-106.71 2739.96,-105.91"/>
<polygon fill="black" stroke="black" points="2740.8,-109.31 2749.4,-103.12 2738.81,-102.6 2740.8,-109.31"/>
</g>
<!-- execute_cgi&#45;&gt;execl@plt -->
<g id="edge44" class="edge">
<title>execute_cgi&#45;&gt;execl@plt</title>
<path fill="none" stroke="black" d="M1730.79,-146.67C1708.26,-135.93 1677.24,-121.16 1652.82,-109.53"/>
<polygon fill="black" stroke="black" points="1654.36,-106.39 1643.83,-105.25 1651.35,-112.71 1654.36,-106.39"/>
</g>
<!-- execute_cgi&#45;&gt;sprintf@plt -->
<g id="edge31" class="edge">
<title>execute_cgi&#45;&gt;sprintf@plt</title>
<path fill="none" stroke="black" d="M1744.32,-144.5C1718.71,-119.06 1672.23,-73.05 1669.9,-72 1607.12,-43.82 1144.23,-26.43 973.18,-20.91"/>
<polygon fill="black" stroke="black" points="973.48,-17.42 963.38,-20.6 973.26,-24.42 973.48,-17.42"/>
</g>
<!-- execute_cgi&#45;&gt;pipe@plt -->
<g id="edge32" class="edge">
<title>execute_cgi&#45;&gt;pipe@plt</title>
<path fill="none" stroke="black" d="M1760.9,-143.7C1760.9,-136.41 1760.9,-127.73 1760.9,-119.54"/>
<polygon fill="black" stroke="black" points="1764.4,-119.62 1760.9,-109.62 1757.4,-119.62 1764.4,-119.62"/>
</g>
<!-- execute_cgi&#45;&gt;fork@plt -->
<g id="edge33" class="edge">
<title>execute_cgi&#45;&gt;fork@plt</title>
<path fill="none" stroke="black" d="M1784.42,-145.46C1799.41,-135.57 1819.01,-122.62 1835.35,-111.83"/>
<polygon fill="black" stroke="black" points="1836.85,-115.04 1843.26,-106.61 1832.99,-109.2 1836.85,-115.04"/>
</g>
<!-- execute_cgi&#45;&gt;atoi@plt -->
<g id="edge37" class="edge">
<title>execute_cgi&#45;&gt;atoi@plt</title>
<path fill="none" stroke="black" d="M1798.18,-148.64C1830.42,-137.94 1878.26,-122.02 1919.9,-108 1922.26,-107.2 1924.69,-106.38 1927.14,-105.56"/>
<polygon fill="black" stroke="black" points="1928.12,-108.92 1936.46,-102.4 1925.87,-102.29 1928.12,-108.92"/>
</g>
<!-- execute_cgi&#45;&gt;strcasecmp@plt -->
<g id="edge42" class="edge">
<title>execute_cgi&#45;&gt;strcasecmp@plt</title>
<path fill="none" stroke="black" d="M1707.33,-159.22C1592.88,-154.88 1316.27,-141.55 1086.9,-108 1081,-107.14 1074.88,-106.09 1068.78,-104.95"/>
<polygon fill="black" stroke="black" points="1069.84,-101.59 1059.35,-103.1 1068.49,-108.46 1069.84,-101.59"/>
</g>
<!-- execute_cgi&#45;&gt;putenv@plt -->
<g id="edge46" class="edge">
<title>execute_cgi&#45;&gt;putenv@plt</title>
<path fill="none" stroke="black" d="M1807.14,-152.6C1859.3,-142.88 1946.55,-125.91 2020.9,-108 2024.42,-107.15 2028.05,-106.24 2031.7,-105.29"/>
<polygon fill="black" stroke="black" points="2032.4,-108.73 2041.16,-102.77 2030.6,-101.96 2032.4,-108.73"/>
</g>
<!-- execute_cgi&#45;&gt;close@plt -->
<g id="edge47" class="edge">
<title>execute_cgi&#45;&gt;close@plt</title>
<path fill="none" stroke="black" d="M1707.47,-159.06C1607.74,-154.75 1386.8,-141.91 1203.9,-108 1199.28,-107.14 1194.5,-106.1 1189.74,-104.95"/>
<polygon fill="black" stroke="black" points="1190.8,-101.61 1180.24,-102.51 1189.06,-108.39 1190.8,-101.61"/>
</g>
<!-- execute_cgi&#45;&gt;recv@plt -->
<g id="edge49" class="edge">
<title>execute_cgi&#45;&gt;recv@plt</title>
<path fill="none" stroke="black" d="M1814.51,-159C1933.22,-154 2210.04,-139.12 2237.9,-108 2252.7,-91.46 2246.79,-65.9 2238.58,-46.41"/>
<polygon fill="black" stroke="black" points="2241.78,-45 2234.39,-37.4 2235.43,-47.94 2241.78,-45"/>
</g>
<!-- execute_cgi&#45;&gt;write@plt -->
<g id="edge35" class="edge">
<title>execute_cgi&#45;&gt;write@plt</title>
<path fill="none" stroke="black" d="M1814.2,-158.49C1907.49,-153.43 2106.11,-139.66 2270.9,-108 2275.44,-107.13 2280.14,-106.07 2284.82,-104.92"/>
<polygon fill="black" stroke="black" points="2285.35,-108.4 2294.14,-102.48 2283.58,-101.62 2285.35,-108.4"/>
</g>
<!-- execute_cgi&#45;&gt;strcmp@plt -->
<g id="edge39" class="edge">
<title>execute_cgi&#45;&gt;strcmp@plt</title>
<path fill="none" stroke="black" d="M1707.19,-159.5C1574.64,-155.38 1221.48,-141.85 928.9,-108 914.68,-106.36 899.42,-104.06 885.18,-101.7"/>
<polygon fill="black" stroke="black" points="885.95,-98.28 875.5,-100.05 884.77,-105.18 885.95,-98.28"/>
</g>
<!-- execute_cgi&#45;&gt;send@plt -->
<g id="edge43" class="edge">
<title>execute_cgi&#45;&gt;send@plt</title>
<path fill="none" stroke="black" d="M1707.61,-159.07C1598.15,-154.49 1351.81,-140.77 1274.9,-108 1251.97,-98.23 1254.9,-81.6 1231.9,-72 1153,-39.07 933.89,-45.19 848.9,-36 820.91,-32.97 789.81,-29.21 764.14,-25.99"/>
<polygon fill="black" stroke="black" points="764.61,-22.52 754.26,-24.75 763.74,-29.47 764.61,-22.52"/>
</g>
<!-- execute_cgi&#45;&gt;read@plt -->
<g id="edge48" class="edge">
<title>execute_cgi&#45;&gt;read@plt</title>
<path fill="none" stroke="black" d="M1814.98,-160.5C1924.03,-158.61 2177.68,-149.67 2385.9,-108 2389.05,-107.37 2392.28,-106.61 2395.51,-105.78"/>
<polygon fill="black" stroke="black" points="2396.28,-109.2 2404.95,-103.11 2394.37,-102.46 2396.28,-109.2"/>
</g>
<!-- execute_cgi&#45;&gt;dup2@plt -->
<g id="edge50" class="edge">
<title>execute_cgi&#45;&gt;dup2@plt</title>
<path fill="none" stroke="black" d="M1815.07,-161.17C1937.03,-160.65 2242,-154.39 2491.9,-108 2495.49,-107.33 2499.18,-106.52 2502.87,-105.61"/>
<polygon fill="black" stroke="black" points="2503.63,-109.03 2512.38,-103.05 2501.81,-102.27 2503.63,-109.03"/>
</g>
<!-- execute_cgi&#45;&gt;waitpid@plt -->
<g id="edge36" class="edge">
<title>execute_cgi&#45;&gt;waitpid@plt</title>
<path fill="none" stroke="black" d="M1815.07,-161.34C1949.55,-161.39 2309.08,-156.54 2603.9,-108 2607.99,-107.33 2612.21,-106.5 2616.43,-105.57"/>
<polygon fill="black" stroke="black" points="2617.12,-109 2626.03,-103.28 2615.49,-102.19 2617.12,-109"/>
</g>
<!-- execute_cgi&#45;&gt;bad_request -->
<g id="edge38" class="edge">
<title>execute_cgi&#45;&gt;bad_request</title>
<path fill="none" stroke="black" d="M1719.29,-150.14C1678.26,-139.43 1613.75,-122.6 1557.9,-108 1554.11,-107.01 1550.21,-105.99 1546.28,-104.96"/>
<polygon fill="black" stroke="black" points="1547.23,-101.59 1536.67,-102.45 1545.46,-108.37 1547.23,-101.59"/>
</g>
<!-- execute_cgi&#45;&gt;cannot_execute -->
<g id="edge40" class="edge">
<title>execute_cgi&#45;&gt;cannot_execute</title>
<path fill="none" stroke="black" d="M1711.92,-154.18C1646.84,-144.89 1528.37,-127.21 1427.9,-108 1422.98,-107.06 1417.9,-106.04 1412.8,-104.97"/>
<polygon fill="black" stroke="black" points="1413.67,-101.58 1403.16,-102.92 1412.21,-108.43 1413.67,-101.58"/>
</g>
<!-- execute_cgi&#45;&gt;get_line -->
<g id="edge45" class="edge">
<title>execute_cgi&#45;&gt;get_line</title>
<path fill="none" stroke="black" d="M1813.28,-157.25C1887.65,-151.13 2027.74,-136.71 2143.9,-108 2146.45,-107.37 2149.07,-106.65 2151.69,-105.87"/>
<polygon fill="black" stroke="black" points="2152.49,-109.28 2160.92,-102.87 2150.33,-102.63 2152.49,-109.28"/>
</g>
<!-- get_line&#45;&gt;recv@plt -->
<g id="edge51" class="edge">
<title>get_line&#45;&gt;recv@plt</title>
<path fill="none" stroke="black" d="M2198.88,-72.05C2202.57,-64.23 2207.04,-54.75 2211.18,-45.98"/>
<polygon fill="black" stroke="black" points="2214.24,-47.7 2215.34,-37.16 2207.91,-44.71 2214.24,-47.7"/>
</g>
<!-- headers -->
<g id="node56" class="node">
<title>headers</title>
<ellipse fill="none" stroke="black" cx="601.9" cy="-90" rx="38.19" ry="18"/>
<text text-anchor="middle" x="601.9" y="-86.3" font-family="Times New Roman,serif" font-size="14.00">headers</text>
</g>
<!-- headers&#45;&gt;strlen@plt -->
<g id="edge53" class="edge">
<title>headers&#45;&gt;strlen@plt</title>
<path fill="none" stroke="black" d="M600.91,-71.7C600.49,-64.41 599.99,-55.73 599.53,-47.54"/>
<polygon fill="black" stroke="black" points="603.02,-47.4 598.96,-37.62 596.04,-47.8 603.02,-47.4"/>
</g>
<!-- headers&#45;&gt;sprintf@plt -->
<g id="edge54" class="edge">
<title>headers&#45;&gt;sprintf@plt</title>
<path fill="none" stroke="black" d="M630.76,-77.81C636.71,-75.71 642.96,-73.67 648.9,-72 717.74,-52.67 798.66,-37.35 851.94,-28.26"/>
<polygon fill="black" stroke="black" points="852.43,-31.72 861.71,-26.61 851.27,-24.82 852.43,-31.72"/>
</g>
<!-- headers&#45;&gt;send@plt -->
<g id="edge52" class="edge">
<title>headers&#45;&gt;send@plt</title>
<path fill="none" stroke="black" d="M623.75,-74.83C639.25,-64.79 660.3,-51.15 677.71,-39.86"/>
<polygon fill="black" stroke="black" points="679.2,-43.07 685.68,-34.69 675.39,-37.19 679.2,-43.07"/>
</g>
<!-- not_found&#45;&gt;strlen@plt -->
<g id="edge56" class="edge">
<title>not_found&#45;&gt;strlen@plt</title>
<path fill="none" stroke="black" d="M683.24,-73.81C667.96,-64 647.85,-51.08 630.99,-40.25"/>
<polygon fill="black" stroke="black" points="633.08,-37.44 622.77,-34.98 629.3,-43.33 633.08,-37.44"/>
</g>
<!-- not_found&#45;&gt;sprintf@plt -->
<g id="edge57" class="edge">
<title>not_found&#45;&gt;sprintf@plt</title>
<path fill="none" stroke="black" d="M741.79,-76.97C775.43,-65.37 826.53,-47.75 863.57,-34.98"/>
<polygon fill="black" stroke="black" points="864.35,-38.41 872.66,-31.84 862.07,-31.79 864.35,-38.41"/>
</g>
<!-- not_found&#45;&gt;send@plt -->
<g id="edge55" class="edge">
<title>not_found&#45;&gt;send@plt</title>
<path fill="none" stroke="black" d="M707.64,-71.7C707.95,-64.41 708.32,-55.73 708.67,-47.54"/>
<polygon fill="black" stroke="black" points="712.17,-47.76 709.1,-37.62 705.17,-47.46 712.17,-47.76"/>
</g>
<!-- serve_file&#45;&gt;fclose@plt -->
<g id="edge60" class="edge">
<title>serve_file&#45;&gt;fclose@plt</title>
<path fill="none" stroke="black" d="M582.12,-150.52C541.09,-138.51 473.62,-118.74 427.77,-105.32"/>
<polygon fill="black" stroke="black" points="428.93,-102.01 418.35,-102.56 426.97,-108.73 428.93,-102.01"/>
</g>
<!-- serve_file&#45;&gt;fopen@plt -->
<g id="edge61" class="edge">
<title>serve_file&#45;&gt;fopen@plt</title>
<path fill="none" stroke="black" d="M592.91,-146.67C575.22,-136.52 551.24,-122.75 531.54,-111.45"/>
<polygon fill="black" stroke="black" points="533.41,-108.49 523,-106.55 529.93,-114.56 533.41,-108.49"/>
</g>
<!-- serve_file&#45;&gt;strcmp@plt -->
<g id="edge58" class="edge">
<title>serve_file&#45;&gt;strcmp@plt</title>
<path fill="none" stroke="black" d="M651.64,-149.75C686.32,-138.19 740.65,-120.08 779.83,-107.02"/>
<polygon fill="black" stroke="black" points="780.88,-110.36 789.26,-103.88 778.67,-103.72 780.88,-110.36"/>
</g>
<!-- serve_file&#45;&gt;cat -->
<g id="edge63" class="edge">
<title>serve_file&#45;&gt;cat</title>
<path fill="none" stroke="black" d="M573.47,-157.35C492.74,-150.36 316.71,-133.47 169.9,-108 157.4,-105.83 143.84,-102.89 131.78,-100.06"/>
<polygon fill="black" stroke="black" points="132.78,-96.7 122.24,-97.77 131.14,-103.51 132.78,-96.7"/>
</g>
<!-- serve_file&#45;&gt;get_line -->
<g id="edge59" class="edge">
<title>serve_file&#45;&gt;get_line</title>
<path fill="none" stroke="black" d="M661.33,-156.18C698.58,-152.24 753.7,-146.87 801.9,-144 1099.7,-126.27 1850.76,-163.45 2143.9,-108 2146.56,-107.5 2149.27,-106.86 2151.98,-106.14"/>
<polygon fill="black" stroke="black" points="2153,-109.49 2161.53,-103.2 2150.94,-102.8 2153,-109.49"/>
</g>
<!-- serve_file&#45;&gt;headers -->
<g id="edge62" class="edge">
<title>serve_file&#45;&gt;headers</title>
<path fill="none" stroke="black" d="M613.94,-143.7C612.26,-136.32 610.24,-127.52 608.35,-119.25"/>
<polygon fill="black" stroke="black" points="611.78,-118.55 606.14,-109.58 604.96,-120.11 611.78,-118.55"/>
</g>
<!-- serve_file&#45;&gt;not_found -->
<g id="edge64" class="edge">
<title>serve_file&#45;&gt;not_found</title>
<path fill="none" stroke="black" d="M637.65,-145.46C649.55,-136.11 664.91,-124.02 678.14,-113.62"/>
<polygon fill="black" stroke="black" points="680.01,-116.6 685.7,-107.67 675.68,-111.1 680.01,-116.6"/>
</g>
<!-- startup -->
<g id="node59" class="node">
<title>startup</title>
<ellipse fill="none" stroke="black" cx="2946.9" cy="-234" rx="36" ry="18"/>
<text text-anchor="middle" x="2946.9" y="-230.3" font-family="Times New Roman,serif" font-size="14.00">startup</text>
</g>
<!-- startup&#45;&gt;listen@plt -->
<g id="edge70" class="edge">
<title>startup&#45;&gt;listen@plt</title>
<path fill="none" stroke="black" d="M2979.68,-226.14C3024.29,-216.64 3106.51,-198.54 3175.9,-180 3179.03,-179.16 3182.24,-178.27 3185.48,-177.35"/>
<polygon fill="black" stroke="black" points="3186.38,-180.74 3195,-174.58 3184.42,-174.02 3186.38,-180.74"/>
</g>
<!-- startup&#45;&gt;htonl@plt -->
<g id="edge73" class="edge">
<title>startup&#45;&gt;htonl@plt</title>
<path fill="none" stroke="black" d="M2982.07,-229.25C3044.28,-222.23 3177.57,-205.48 3287.9,-180 3291.05,-179.27 3294.28,-178.46 3297.52,-177.59"/>
<polygon fill="black" stroke="black" points="3298.36,-180.99 3307.03,-174.89 3296.45,-174.25 3298.36,-180.99"/>
</g>
<!-- startup&#45;&gt;bind@plt -->
<g id="edge68" class="edge">
<title>startup&#45;&gt;bind@plt</title>
<path fill="none" stroke="black" d="M2982.95,-231.13C3059.92,-226.64 3245.73,-213.02 3397.9,-180 3400.89,-179.35 3403.96,-178.6 3407.03,-177.79"/>
<polygon fill="black" stroke="black" points="3407.99,-181.15 3416.63,-175.03 3406.05,-174.42 3407.99,-181.15"/>
</g>
<!-- startup&#45;&gt;ntohs@plt -->
<g id="edge72" class="edge">
<title>startup&#45;&gt;ntohs@plt</title>
<path fill="none" stroke="black" d="M2983.08,-232C3072.34,-228.99 3309.87,-217.79 3503.9,-180 3507.44,-179.31 3511.09,-178.49 3514.73,-177.59"/>
<polygon fill="black" stroke="black" points="3515.37,-181.04 3524.13,-175.08 3513.56,-174.28 3515.37,-181.04"/>
</g>
<!-- startup&#45;&gt;setsockopt@plt -->
<g id="edge67" class="edge">
<title>startup&#45;&gt;setsockopt@plt</title>
<path fill="none" stroke="black" d="M2912.95,-227.62C2856.54,-218.55 2739.97,-199.34 2641.9,-180 2636.79,-178.99 2631.51,-177.91 2626.21,-176.8"/>
<polygon fill="black" stroke="black" points="2627.35,-173.46 2616.84,-174.8 2625.89,-180.31 2627.35,-173.46"/>
</g>
<!-- startup&#45;&gt;memset@plt -->
<g id="edge65" class="edge">
<title>startup&#45;&gt;memset@plt</title>
<path fill="none" stroke="black" d="M2916.5,-224.13C2876.71,-212.53 2806.4,-192.02 2758.27,-177.98"/>
<polygon fill="black" stroke="black" points="2759.48,-174.69 2748.9,-175.25 2757.52,-181.41 2759.48,-174.69"/>
</g>
<!-- startup&#45;&gt;htons@plt -->
<g id="edge74" class="edge">
<title>startup&#45;&gt;htons@plt</title>
<path fill="none" stroke="black" d="M2924.42,-219.67C2907.23,-209.47 2883.2,-195.22 2863.55,-183.56"/>
<polygon fill="black" stroke="black" points="2865.42,-180.6 2855.03,-178.51 2861.85,-186.62 2865.42,-180.6"/>
</g>
<!-- startup&#45;&gt;socket@plt -->
<g id="edge66" class="edge">
<title>startup&#45;&gt;socket@plt</title>
<path fill="none" stroke="black" d="M2946.9,-215.7C2946.9,-208.41 2946.9,-199.73 2946.9,-191.54"/>
<polygon fill="black" stroke="black" points="2950.4,-191.62 2946.9,-181.62 2943.4,-191.62 2950.4,-191.62"/>
</g>
<!-- startup&#45;&gt;getsockname@plt -->
<g id="edge71" class="edge">
<title>startup&#45;&gt;getsockname@plt</title>
<path fill="none" stroke="black" d="M2972.15,-220.81C2993.38,-210.56 3024.18,-195.69 3049.23,-183.6"/>
<polygon fill="black" stroke="black" points="3050.72,-186.77 3058.2,-179.27 3047.67,-180.46 3050.72,-186.77"/>
</g>
<!-- startup&#45;&gt;error_die -->
<g id="edge69" class="edge">
<title>startup&#45;&gt;error_die</title>
<path fill="none" stroke="black" d="M2911.09,-231.25C2833.3,-226.93 2643.34,-213.57 2487.9,-180 2484.9,-179.35 2481.83,-178.61 2478.76,-177.79"/>
<polygon fill="black" stroke="black" points="2479.74,-174.43 2469.16,-175.04 2477.81,-181.16 2479.74,-174.43"/>
</g>
<!-- unimplemented&#45;&gt;strlen@plt -->
<g id="edge76" class="edge">
<title>unimplemented&#45;&gt;strlen@plt</title>
<path fill="none" stroke="black" d="M294.06,-77.6C302.66,-75.68 311.53,-73.74 319.9,-72 397.74,-55.76 488.27,-38.87 544.34,-28.64"/>
<polygon fill="black" stroke="black" points="544.72,-32.13 553.93,-26.9 543.46,-25.25 544.72,-32.13"/>
</g>
<!-- unimplemented&#45;&gt;sprintf@plt -->
<g id="edge77" class="edge">
<title>unimplemented&#45;&gt;sprintf@plt</title>
<path fill="none" stroke="black" d="M292.31,-77.18C301.42,-75.22 310.92,-73.37 319.9,-72 515.6,-42.04 566.87,-55.45 763.9,-36 792.32,-33.19 823.8,-29.59 850.23,-26.43"/>
<polygon fill="black" stroke="black" points="850.6,-29.91 860.1,-25.23 849.76,-22.96 850.6,-29.91"/>
</g>
<!-- unimplemented&#45;&gt;send@plt -->
<g id="edge75" class="edge">
<title>unimplemented&#45;&gt;send@plt</title>
<path fill="none" stroke="black" d="M292.74,-77.29C301.73,-75.33 311.07,-73.47 319.9,-72 467.61,-47.41 508.24,-66.25 654.9,-36 658.26,-35.31 661.72,-34.49 665.17,-33.6"/>
<polygon fill="black" stroke="black" points="665.97,-37.01 674.67,-30.96 664.1,-30.27 665.97,-37.01"/>
</g>
<!-- main&#45;&gt;accept@plt -->
<g id="edge79" class="edge">
<title>main&#45;&gt;accept@plt</title>
<path fill="none" stroke="black" d="M860.55,-297.9C819.76,-286.48 738.78,-263.81 686.01,-249.03"/>
<polygon fill="black" stroke="black" points="687.23,-245.74 676.66,-246.41 685.34,-252.48 687.23,-245.74"/>
</g>
<!-- main&#45;&gt;printf@plt -->
<g id="edge78" class="edge">
<title>main&#45;&gt;printf@plt</title>
<path fill="none" stroke="black" d="M864.69,-293.75C844.75,-283.18 814.5,-267.14 790.64,-254.49"/>
<polygon fill="black" stroke="black" points="792.33,-251.42 781.86,-249.83 789.05,-257.61 792.33,-251.42"/>
</g>
<!-- main&#45;&gt;accept_request -->
<g id="edge82" class="edge">
<title>main&#45;&gt;accept_request</title>
<path fill="none" stroke="black" d="M885.9,-287.7C885.9,-280.41 885.9,-271.73 885.9,-263.54"/>
<polygon fill="black" stroke="black" points="889.4,-263.62 885.9,-253.62 882.4,-263.62 889.4,-263.62"/>
</g>
<!-- main&#45;&gt;error_die -->
<g id="edge80" class="edge">
<title>main&#45;&gt;error_die</title>
<path fill="none" stroke="black" d="M906.95,-293.8C912.04,-291.52 917.56,-289.4 922.9,-288 1206.64,-213.55 2141.26,-174.03 2379.33,-165.01"/>
<polygon fill="black" stroke="black" points="2379.41,-168.51 2389.27,-164.64 2379.15,-161.52 2379.41,-168.51"/>
</g>
<!-- main&#45;&gt;startup -->
<g id="edge81" class="edge">
<title>main&#45;&gt;startup</title>
<path fill="none" stroke="black" d="M906.9,-293.58C911.99,-291.31 917.53,-289.25 922.9,-288 1022.2,-264.91 2604.15,-240.14 2899.58,-235.7"/>
<polygon fill="black" stroke="black" points="2899.26,-239.21 2909.21,-235.56 2899.16,-232.21 2899.26,-239.21"/>
</g>
<!-- _fini -->
<g id="node62" class="node">
<title>_fini</title>
<ellipse fill="none" stroke="black" cx="1755.9" cy="-378" rx="27" ry="18"/>
<text text-anchor="middle" x="1755.9" y="-374.3" font-family="Times New Roman,serif" font-size="14.00">_fini</text>
</g>
</g>
</svg>
