<?xml version="1.0" encoding="UTF-8" standalone="no"?>
<!DOCTYPE svg PUBLIC "-//W3C//DTD SVG 1.1//EN"
 "http://www.w3.org/Graphics/SVG/1.1/DTD/svg11.dtd">
<!-- Generated by graphviz version 2.50.0 (0)
 -->
<!-- Title: Call Graph Pages: 1 -->
<svg width="3647pt" height="188pt"
 viewBox="0.00 0.00 3647.22 188.00" xmlns="http://www.w3.org/2000/svg" xmlns:xlink="http://www.w3.org/1999/xlink">
<g id="graph0" class="graph" transform="scale(1 1) rotate(0) translate(4 184)">
<title>Call Graph</title>
<polygon fill="white" stroke="transparent" points="-4,4 -4,-184 3643.22,-184 3643.22,4 -4,4"/>
<!-- main -->
<g id="node1" class="node">
<title>main</title>
<ellipse fill="none" stroke="black" cx="1943.93" cy="-162" rx="28.7" ry="18"/>
<text text-anchor="middle" x="1943.93" y="-158.3" font-family="Times,serif" font-size="14.00">main</text>
</g>
<!-- main|4006f8#InitializeMesh_1 -->
<g id="node2" class="node">
<title>main|4006f8#InitializeMesh_1</title>
<ellipse fill="none" stroke="black" cx="273.93" cy="-90" rx="120.48" ry="18"/>
<text text-anchor="middle" x="273.93" y="-86.3" font-family="Times,serif" font-size="14.00">main|4006f8#InitializeMesh_1</text>
</g>
<!-- main&#45;&gt;main|4006f8#InitializeMesh_1 -->
<g id="edge1" class="edge">
<title>main&#45;&gt;main|4006f8#InitializeMesh_1</title>
<path fill="none" stroke="black" d="M1915.24,-160.7C1763.05,-158.93 1034.85,-148.66 440.93,-108 420.1,-106.57 397.85,-104.61 376.6,-102.53"/>
<polygon fill="black" stroke="black" points="376.89,-99.04 366.59,-101.53 376.19,-106.01 376.89,-99.04"/>
</g>
<!-- main|4006fc#InitializeMesh_2 -->
<g id="node3" class="node">
<title>main|4006fc#InitializeMesh_2</title>
<ellipse fill="none" stroke="black" cx="569.93" cy="-90" rx="119.68" ry="18"/>
<text text-anchor="middle" x="569.93" y="-86.3" font-family="Times,serif" font-size="14.00">main|4006fc#InitializeMesh_2</text>
</g>
<!-- main&#45;&gt;main|4006fc#InitializeMesh_2 -->
<g id="edge2" class="edge">
<title>main&#45;&gt;main|4006fc#InitializeMesh_2</title>
<path fill="none" stroke="black" d="M1915.37,-160.72C1779.43,-159.18 1184.41,-150.24 698.93,-108 687.24,-106.98 674.98,-105.68 662.87,-104.24"/>
<polygon fill="black" stroke="black" points="663.09,-100.75 652.74,-103.01 662.24,-107.7 663.09,-100.75"/>
</g>
<!-- main|400704#putchar@plt -->
<g id="node4" class="node">
<title>main|400704#putchar@plt</title>
<ellipse fill="none" stroke="black" cx="812.93" cy="-90" rx="105.08" ry="18"/>
<text text-anchor="middle" x="812.93" y="-86.3" font-family="Times,serif" font-size="14.00">main|400704#putchar@plt</text>
</g>
<!-- main&#45;&gt;main|400704#putchar@plt -->
<g id="edge3" class="edge">
<title>main&#45;&gt;main|400704#putchar@plt</title>
<path fill="none" stroke="black" d="M1915.17,-160.5C1794.54,-158.17 1317.67,-146.88 927.93,-108 917.74,-106.98 907.06,-105.7 896.5,-104.3"/>
<polygon fill="black" stroke="black" points="896.8,-100.81 886.42,-102.92 895.86,-107.74 896.8,-100.81"/>
</g>
<!-- main|400708#CompareMesh -->
<g id="node5" class="node">
<title>main|400708#CompareMesh</title>
<ellipse fill="none" stroke="black" cx="1050.93" cy="-90" rx="114.28" ry="18"/>
<text text-anchor="middle" x="1050.93" y="-86.3" font-family="Times,serif" font-size="14.00">main|400708#CompareMesh</text>
</g>
<!-- main&#45;&gt;main|400708#CompareMesh -->
<g id="edge4" class="edge">
<title>main&#45;&gt;main|400708#CompareMesh</title>
<path fill="none" stroke="black" d="M1915.55,-159.75C1814.51,-155.15 1462.83,-137.87 1173.93,-108 1163.34,-106.91 1152.26,-105.6 1141.27,-104.21"/>
<polygon fill="black" stroke="black" points="1141.59,-100.72 1131.23,-102.91 1140.69,-107.66 1141.59,-100.72"/>
</g>
<!-- main|400728#SwapMesh -->
<g id="node6" class="node">
<title>main|400728#SwapMesh</title>
<ellipse fill="none" stroke="black" cx="1283.93" cy="-90" rx="100.98" ry="18"/>
<text text-anchor="middle" x="1283.93" y="-86.3" font-family="Times,serif" font-size="14.00">main|400728#SwapMesh</text>
</g>
<!-- main&#45;&gt;main|400728#SwapMesh -->
<g id="edge5" class="edge">
<title>main&#45;&gt;main|400728#SwapMesh</title>
<path fill="none" stroke="black" d="M1915.53,-158.84C1834.14,-152.53 1593.1,-132.97 1393.93,-108 1384.85,-106.86 1375.36,-105.56 1365.93,-104.2"/>
<polygon fill="black" stroke="black" points="1366.14,-100.69 1355.74,-102.7 1365.13,-107.62 1366.14,-100.69"/>
</g>
<!-- main|400740#putchar@plt -->
<g id="node7" class="node">
<title>main|400740#putchar@plt</title>
<ellipse fill="none" stroke="black" cx="1507.93" cy="-90" rx="105.08" ry="18"/>
<text text-anchor="middle" x="1507.93" y="-86.3" font-family="Times,serif" font-size="14.00">main|400740#putchar@plt</text>
</g>
<!-- main&#45;&gt;main|400740#putchar@plt -->
<g id="edge6" class="edge">
<title>main&#45;&gt;main|400740#putchar@plt</title>
<path fill="none" stroke="black" d="M1916.33,-156.57C1852.35,-146.3 1691.82,-120.52 1592.14,-104.52"/>
<polygon fill="black" stroke="black" points="1592.52,-101.04 1582.09,-102.91 1591.41,-107.95 1592.52,-101.04"/>
</g>
<!-- main|400744#Mesh_dot -->
<g id="node8" class="node">
<title>main|400744#Mesh_dot</title>
<ellipse fill="none" stroke="black" cx="1727.93" cy="-90" rx="96.68" ry="18"/>
<text text-anchor="middle" x="1727.93" y="-86.3" font-family="Times,serif" font-size="14.00">main|400744#Mesh_dot</text>
</g>
<!-- main&#45;&gt;main|400744#Mesh_dot -->
<g id="edge7" class="edge">
<title>main&#45;&gt;main|400744#Mesh_dot</title>
<path fill="none" stroke="black" d="M1919.15,-152.97C1886.29,-142.32 1827.34,-123.22 1783.55,-109.02"/>
<polygon fill="black" stroke="black" points="1784.49,-105.65 1773.89,-105.89 1782.33,-112.31 1784.49,-105.65"/>
</g>
<!-- main|40075c#SwapMesh -->
<g id="node9" class="node">
<title>main|40075c#SwapMesh</title>
<ellipse fill="none" stroke="black" cx="1943.93" cy="-90" rx="100.98" ry="18"/>
<text text-anchor="middle" x="1943.93" y="-86.3" font-family="Times,serif" font-size="14.00">main|40075c#SwapMesh</text>
</g>
<!-- main&#45;&gt;main|40075c#SwapMesh -->
<g id="edge8" class="edge">
<title>main&#45;&gt;main|40075c#SwapMesh</title>
<path fill="none" stroke="black" d="M1943.93,-143.7C1943.93,-135.98 1943.93,-126.71 1943.93,-118.11"/>
<polygon fill="black" stroke="black" points="1947.43,-118.1 1943.93,-108.1 1940.43,-118.1 1947.43,-118.1"/>
</g>
<!-- main|400774#putchar@plt -->
<g id="node10" class="node">
<title>main|400774#putchar@plt</title>
<ellipse fill="none" stroke="black" cx="2167.93" cy="-90" rx="105.08" ry="18"/>
<text text-anchor="middle" x="2167.93" y="-86.3" font-family="Times,serif" font-size="14.00">main|400774#putchar@plt</text>
</g>
<!-- main&#45;&gt;main|400774#putchar@plt -->
<g id="edge9" class="edge">
<title>main&#45;&gt;main|400774#putchar@plt</title>
<path fill="none" stroke="black" d="M1969.19,-153.11C2003.09,-142.51 2064.3,-123.38 2109.87,-109.15"/>
<polygon fill="black" stroke="black" points="2111.13,-112.42 2119.63,-106.1 2109.04,-105.74 2111.13,-112.42"/>
</g>
<!-- main|400778#Mesh_dot -->
<g id="node11" class="node">
<title>main|400778#Mesh_dot</title>
<ellipse fill="none" stroke="black" cx="2387.93" cy="-90" rx="96.68" ry="18"/>
<text text-anchor="middle" x="2387.93" y="-86.3" font-family="Times,serif" font-size="14.00">main|400778#Mesh_dot</text>
</g>
<!-- main&#45;&gt;main|400778#Mesh_dot -->
<g id="edge10" class="edge">
<title>main&#45;&gt;main|400778#Mesh_dot</title>
<path fill="none" stroke="black" d="M1971.54,-156.7C2029.21,-147.72 2166.66,-126.28 2281.93,-108 2290.14,-106.7 2298.69,-105.34 2307.24,-103.97"/>
<polygon fill="black" stroke="black" points="2307.91,-107.41 2317.24,-102.37 2306.81,-100.5 2307.91,-107.41"/>
</g>
<!-- main|400790#putchar@plt -->
<g id="node12" class="node">
<title>main|400790#putchar@plt</title>
<ellipse fill="none" stroke="black" cx="2607.93" cy="-90" rx="105.08" ry="18"/>
<text text-anchor="middle" x="2607.93" y="-86.3" font-family="Times,serif" font-size="14.00">main|400790#putchar@plt</text>
</g>
<!-- main&#45;&gt;main|400790#putchar@plt -->
<g id="edge11" class="edge">
<title>main&#45;&gt;main|400790#putchar@plt</title>
<path fill="none" stroke="black" d="M1972.33,-158.79C2053.7,-152.34 2294.7,-132.44 2493.93,-108 2503.37,-106.84 2513.22,-105.53 2523.02,-104.16"/>
<polygon fill="black" stroke="black" points="2523.79,-107.59 2533.2,-102.71 2522.8,-100.66 2523.79,-107.59"/>
</g>
<!-- main|400794#SwapMesh -->
<g id="node13" class="node">
<title>main|400794#SwapMesh</title>
<ellipse fill="none" stroke="black" cx="2831.93" cy="-90" rx="100.98" ry="18"/>
<text text-anchor="middle" x="2831.93" y="-86.3" font-family="Times,serif" font-size="14.00">main|400794#SwapMesh</text>
</g>
<!-- main&#45;&gt;main|400794#SwapMesh -->
<g id="edge12" class="edge">
<title>main&#45;&gt;main|400794#SwapMesh</title>
<path fill="none" stroke="black" d="M1972.62,-159.93C2074.78,-155.93 2430.29,-140.41 2721.93,-108 2731.34,-106.95 2741.18,-105.69 2750.93,-104.32"/>
<polygon fill="black" stroke="black" points="2751.64,-107.75 2761.04,-102.86 2750.65,-100.82 2751.64,-107.75"/>
</g>
<!-- main|400798#ComplexDataHandle -->
<g id="node14" class="node">
<title>main|400798#ComplexDataHandle</title>
<ellipse fill="none" stroke="black" cx="3086.93" cy="-90" rx="135.68" ry="18"/>
<text text-anchor="middle" x="3086.93" y="-86.3" font-family="Times,serif" font-size="14.00">main|400798#ComplexDataHandle</text>
</g>
<!-- main&#45;&gt;main|400798#ComplexDataHandle -->
<g id="edge13" class="edge">
<title>main&#45;&gt;main|400798#ComplexDataHandle</title>
<path fill="none" stroke="black" d="M1972.56,-160.15C2091.59,-156.46 2559,-140.58 2941.93,-108 2954.91,-106.9 2968.53,-105.55 2981.99,-104.1"/>
<polygon fill="black" stroke="black" points="2982.69,-107.55 2992.25,-102.98 2981.93,-100.59 2982.69,-107.55"/>
</g>
<!-- main|40079c#Mesh2 -->
<g id="node15" class="node">
<title>main|40079c#Mesh2</title>
<ellipse fill="none" stroke="black" cx="3325.93" cy="-90" rx="85.29" ry="18"/>
<text text-anchor="middle" x="3325.93" y="-86.3" font-family="Times,serif" font-size="14.00">main|40079c#Mesh2</text>
</g>
<!-- main&#45;&gt;main|40079c#Mesh2 -->
<g id="edge14" class="edge">
<title>main&#45;&gt;main|40079c#Mesh2</title>
<path fill="none" stroke="black" d="M1972.6,-161.28C2111.66,-162.32 2729.76,-163.47 3231.93,-108 3239.96,-107.11 3248.34,-105.95 3256.63,-104.64"/>
<polygon fill="black" stroke="black" points="3257.39,-108.07 3266.69,-102.99 3256.26,-101.16 3257.39,-108.07"/>
</g>
<!-- main|4007b4#putchar@plt -->
<g id="node16" class="node">
<title>main|4007b4#putchar@plt</title>
<ellipse fill="none" stroke="black" cx="3533.93" cy="-90" rx="105.08" ry="18"/>
<text text-anchor="middle" x="3533.93" y="-86.3" font-family="Times,serif" font-size="14.00">main|4007b4#putchar@plt</text>
</g>
<!-- main&#45;&gt;main|4007b4#putchar@plt -->
<g id="edge15" class="edge">
<title>main&#45;&gt;main|4007b4#putchar@plt</title>
<path fill="none" stroke="black" d="M1972.64,-161.17C2123.37,-161.78 2838.41,-161.63 3419.93,-108 3430.13,-107.06 3440.8,-105.82 3451.35,-104.43"/>
<polygon fill="black" stroke="black" points="3451.97,-107.88 3461.41,-103.06 3451.03,-100.94 3451.97,-107.88"/>
</g>
<!-- main|4006f8#InitializeMesh_1|4007dc#random@plt -->
<g id="node17" class="node">
<title>main|4006f8#InitializeMesh_1|4007dc#random@plt</title>
<ellipse fill="none" stroke="black" cx="196.93" cy="-18" rx="196.87" ry="18"/>
<text text-anchor="middle" x="196.93" y="-14.3" font-family="Times,serif" font-size="14.00">main|4006f8#InitializeMesh_1|4007dc#random@plt</text>
</g>
<!-- main|4006f8#InitializeMesh_1&#45;&gt;main|4006f8#InitializeMesh_1|4007dc#random@plt -->
<g id="edge16" class="edge">
<title>main|4006f8#InitializeMesh_1&#45;&gt;main|4006f8#InitializeMesh_1|4007dc#random@plt</title>
<path fill="none" stroke="black" d="M255.29,-72.05C245.62,-63.26 233.65,-52.38 223.07,-42.76"/>
<polygon fill="black" stroke="black" points="225.42,-40.17 215.67,-36.03 220.71,-45.35 225.42,-40.17"/>
</g>
<!-- main|4006fc#InitializeMesh_2|400970#random@plt -->
<g id="node18" class="node">
<title>main|4006fc#InitializeMesh_2|400970#random@plt</title>
<ellipse fill="none" stroke="black" cx="608.93" cy="-18" rx="196.87" ry="18"/>
<text text-anchor="middle" x="608.93" y="-14.3" font-family="Times,serif" font-size="14.00">main|4006fc#InitializeMesh_2|400970#random@plt</text>
</g>
<!-- main|4006fc#InitializeMesh_2&#45;&gt;main|4006fc#InitializeMesh_2|400970#random@plt -->
<g id="edge17" class="edge">
<title>main|4006fc#InitializeMesh_2&#45;&gt;main|4006fc#InitializeMesh_2|400970#random@plt</title>
<path fill="none" stroke="black" d="M579.37,-72.05C583.86,-64.01 589.32,-54.2 594.32,-45.23"/>
<polygon fill="black" stroke="black" points="597.5,-46.71 599.31,-36.28 591.38,-43.31 597.5,-46.71"/>
</g>
<!-- main|400798#ComplexDataHandle|400fc8#ManiplateData1 -->
<g id="node19" class="node">
<title>main|400798#ComplexDataHandle|400fc8#ManiplateData1</title>
<ellipse fill="none" stroke="black" cx="2853.93" cy="-18" rx="223.66" ry="18"/>
<text text-anchor="middle" x="2853.93" y="-14.3" font-family="Times,serif" font-size="14.00">main|400798#ComplexDataHandle|400fc8#ManiplateData1</text>
</g>
<!-- main|400798#ComplexDataHandle&#45;&gt;main|400798#ComplexDataHandle|400fc8#ManiplateData1 -->
<g id="edge18" class="edge">
<title>main|400798#ComplexDataHandle&#45;&gt;main|400798#ComplexDataHandle|400fc8#ManiplateData1</title>
<path fill="none" stroke="black" d="M3034.64,-73.29C3000.28,-62.97 2955.08,-49.39 2918.48,-38.39"/>
<polygon fill="black" stroke="black" points="2919.47,-35.04 2908.89,-35.51 2917.46,-41.74 2919.47,-35.04"/>
</g>
<!-- main|400798#ComplexDataHandle|400fd0#ManiplateData2 -->
<g id="node20" class="node">
<title>main|400798#ComplexDataHandle|400fd0#ManiplateData2</title>
<ellipse fill="none" stroke="black" cx="3319.93" cy="-18" rx="224.46" ry="18"/>
<text text-anchor="middle" x="3319.93" y="-14.3" font-family="Times,serif" font-size="14.00">main|400798#ComplexDataHandle|400fd0#ManiplateData2</text>
</g>
<!-- main|400798#ComplexDataHandle&#45;&gt;main|400798#ComplexDataHandle|400fd0#ManiplateData2 -->
<g id="edge19" class="edge">
<title>main|400798#ComplexDataHandle&#45;&gt;main|400798#ComplexDataHandle|400fd0#ManiplateData2</title>
<path fill="none" stroke="black" d="M3139.22,-73.29C3173.59,-62.97 3218.79,-49.39 3255.39,-38.39"/>
<polygon fill="black" stroke="black" points="3256.41,-41.74 3264.98,-35.51 3254.39,-35.04 3256.41,-41.74"/>
</g>
</g>
</svg>
