<?xml version="1.0" encoding="UTF-8" standalone="no"?>
<!DOCTYPE svg PUBLIC "-//W3C//DTD SVG 1.1//EN"
 "http://www.w3.org/Graphics/SVG/1.1/DTD/svg11.dtd">
<!-- Generated by graphviz version 7.1.0 (20230121.1956)
 -->
<!-- Title: Call Graph Pages: 1 -->
<svg width="5267pt" height="188pt"
 viewBox="0.00 0.00 5267.02 188.00" xmlns="http://www.w3.org/2000/svg" xmlns:xlink="http://www.w3.org/1999/xlink">
<g id="graph0" class="graph" transform="scale(1 1) rotate(0) translate(4 184)">
<title>Call Graph</title>
<polygon fill="white" stroke="none" points="-4,4 -4,-184 5263.02,-184 5263.02,4 -4,4"/>
<!-- main -->
<g id="node1" class="node">
<title>main</title>
<ellipse fill="none" stroke="black" cx="2624.04" cy="-162" rx="27.9" ry="18"/>
<text text-anchor="middle" x="2624.04" y="-158.3" font-family="Times New Roman,serif" font-size="14.00">main</text>
</g>
<!-- main|400814#LoadData -->
<g id="node2" class="node">
<title>main|400814#LoadData</title>
<ellipse fill="none" stroke="black" cx="1039.04" cy="-90" rx="96.38" ry="18"/>
<text text-anchor="middle" x="1039.04" y="-86.3" font-family="Times New Roman,serif" font-size="14.00">main|400814#LoadData</text>
</g>
<!-- main&#45;&gt;main|400814#LoadData -->
<g id="edge1" class="edge">
<title>main&#45;&gt;main|400814#LoadData</title>
<path fill="none" stroke="black" d="M2595.85,-159.76C2419.3,-151.96 1462.79,-109.71 1143.13,-95.6"/>
<polygon fill="black" stroke="black" points="1143.69,-92.12 1133.54,-95.17 1143.38,-99.11 1143.69,-92.12"/>
</g>
<!-- main|400834#InitializeMesh_1 -->
<g id="node3" class="node">
<title>main|400834#InitializeMesh_1</title>
<ellipse fill="none" stroke="black" cx="1973.04" cy="-90" rx="118.88" ry="18"/>
<text text-anchor="middle" x="1973.04" y="-86.3" font-family="Times New Roman,serif" font-size="14.00">main|400834#InitializeMesh_1</text>
</g>
<!-- main&#45;&gt;main|400834#InitializeMesh_1 -->
<g id="edge2" class="edge">
<title>main&#45;&gt;main|400834#InitializeMesh_1</title>
<path fill="none" stroke="black" d="M2596.39,-158.06C2521.29,-150.06 2307.12,-127.24 2129.04,-108 2112.59,-106.22 2095.18,-104.33 2078.17,-102.48"/>
<polygon fill="black" stroke="black" points="2078.9,-99.04 2068.58,-101.44 2078.14,-106 2078.9,-99.04"/>
</g>
<!-- main|400838#InitializeMesh_2 -->
<g id="node4" class="node">
<title>main|400838#InitializeMesh_2</title>
<ellipse fill="none" stroke="black" cx="2257.04" cy="-90" rx="118.88" ry="18"/>
<text text-anchor="middle" x="2257.04" y="-86.3" font-family="Times New Roman,serif" font-size="14.00">main|400838#InitializeMesh_2</text>
</g>
<!-- main&#45;&gt;main|400838#InitializeMesh_2 -->
<g id="edge3" class="edge">
<title>main&#45;&gt;main|400838#InitializeMesh_2</title>
<path fill="none" stroke="black" d="M2597.35,-155.91C2544.04,-145.74 2422.46,-122.55 2340.02,-106.83"/>
<polygon fill="black" stroke="black" points="2340.88,-103.43 2330.4,-104.99 2339.57,-110.31 2340.88,-103.43"/>
</g>
<!-- main|40083c#CompareMesh -->
<g id="node5" class="node">
<title>main|40083c#CompareMesh</title>
<ellipse fill="none" stroke="black" cx="2508.04" cy="-90" rx="114.28" ry="18"/>
<text text-anchor="middle" x="2508.04" y="-86.3" font-family="Times New Roman,serif" font-size="14.00">main|40083c#CompareMesh</text>
</g>
<!-- main&#45;&gt;main|40083c#CompareMesh -->
<g id="edge4" class="edge">
<title>main&#45;&gt;main|40083c#CompareMesh</title>
<path fill="none" stroke="black" d="M2604.09,-148.97C2588.1,-139.31 2565.18,-125.49 2545.75,-113.76"/>
<polygon fill="black" stroke="black" points="2547.62,-110.8 2537.25,-108.63 2544.01,-116.79 2547.62,-110.8"/>
</g>
<!-- main|400850#SwapMesh -->
<g id="node6" class="node">
<title>main|400850#SwapMesh</title>
<ellipse fill="none" stroke="black" cx="2741.04" cy="-90" rx="100.98" ry="18"/>
<text text-anchor="middle" x="2741.04" y="-86.3" font-family="Times New Roman,serif" font-size="14.00">main|400850#SwapMesh</text>
</g>
<!-- main&#45;&gt;main|400850#SwapMesh -->
<g id="edge5" class="edge">
<title>main&#45;&gt;main|400850#SwapMesh</title>
<path fill="none" stroke="black" d="M2644.15,-148.97C2660.47,-139.2 2683.93,-125.17 2703.67,-113.35"/>
<polygon fill="black" stroke="black" points="2705.23,-116.5 2712.01,-108.36 2701.63,-110.5 2705.23,-116.5"/>
</g>
<!-- main|400858#Mesh_dot -->
<g id="node7" class="node">
<title>main|400858#Mesh_dot</title>
<ellipse fill="none" stroke="black" cx="2957.04" cy="-90" rx="97.48" ry="18"/>
<text text-anchor="middle" x="2957.04" y="-86.3" font-family="Times New Roman,serif" font-size="14.00">main|400858#Mesh_dot</text>
</g>
<!-- main&#45;&gt;main|400858#Mesh_dot -->
<g id="edge6" class="edge">
<title>main&#45;&gt;main|400858#Mesh_dot</title>
<path fill="none" stroke="black" d="M2650.44,-155.45C2700.27,-144.98 2809.74,-121.96 2883.46,-106.47"/>
<polygon fill="black" stroke="black" points="2883.97,-109.94 2893.03,-104.45 2882.53,-103.09 2883.97,-109.94"/>
</g>
<!-- main|40086c#ComplexDataHandle -->
<g id="node8" class="node">
<title>main|40086c#ComplexDataHandle</title>
<ellipse fill="none" stroke="black" cx="3208.04" cy="-90" rx="135.68" ry="18"/>
<text text-anchor="middle" x="3208.04" y="-86.3" font-family="Times New Roman,serif" font-size="14.00">main|40086c#ComplexDataHandle</text>
</g>
<!-- main&#45;&gt;main|40086c#ComplexDataHandle -->
<g id="edge7" class="edge">
<title>main&#45;&gt;main|40086c#ComplexDataHandle</title>
<path fill="none" stroke="black" d="M2651.42,-157.72C2730.13,-148.28 2960.22,-120.7 3098.7,-104.11"/>
<polygon fill="black" stroke="black" points="3098.73,-107.63 3108.24,-102.96 3097.89,-100.68 3098.73,-107.63"/>
</g>
<!-- main|400870#StoreData -->
<g id="node9" class="node">
<title>main|400870#StoreData</title>
<ellipse fill="none" stroke="black" cx="4204.04" cy="-90" rx="96.68" ry="18"/>
<text text-anchor="middle" x="4204.04" y="-86.3" font-family="Times New Roman,serif" font-size="14.00">main|400870#StoreData</text>
</g>
<!-- main&#45;&gt;main|400870#StoreData -->
<g id="edge8" class="edge">
<title>main&#45;&gt;main|400870#StoreData</title>
<path fill="none" stroke="black" d="M2652.13,-159.76C2828.02,-151.96 3780.51,-109.76 4099.71,-95.62"/>
<polygon fill="black" stroke="black" points="4099.45,-99.14 4109.29,-95.2 4099.14,-92.14 4099.45,-99.14"/>
</g>
<!-- main|400814#LoadData|4011a8#fopen@plt -->
<g id="node10" class="node">
<title>main|400814#LoadData|4011a8#fopen@plt</title>
<ellipse fill="none" stroke="black" cx="167.04" cy="-18" rx="167.07" ry="18"/>
<text text-anchor="middle" x="167.04" y="-14.3" font-family="Times New Roman,serif" font-size="14.00">main|400814#LoadData|4011a8#fopen@plt</text>
</g>
<!-- main|400814#LoadData&#45;&gt;main|400814#LoadData|4011a8#fopen@plt -->
<g id="edge9" class="edge">
<title>main|400814#LoadData&#45;&gt;main|400814#LoadData|4011a8#fopen@plt</title>
<path fill="none" stroke="black" d="M950,-82.8C817.58,-73.45 560.96,-54.82 343.04,-36 328.39,-34.74 313.07,-33.35 297.83,-31.93"/>
<polygon fill="black" stroke="black" points="298.56,-28.48 288.27,-31.04 297.9,-35.45 298.56,-28.48"/>
</g>
<!-- main|400814#LoadData|4011bc#fgets@plt -->
<g id="node11" class="node">
<title>main|400814#LoadData|4011bc#fgets@plt</title>
<ellipse fill="none" stroke="black" cx="516.04" cy="-18" rx="164.37" ry="18"/>
<text text-anchor="middle" x="516.04" y="-14.3" font-family="Times New Roman,serif" font-size="14.00">main|400814#LoadData|4011bc#fgets@plt</text>
</g>
<!-- main|400814#LoadData&#45;&gt;main|400814#LoadData|4011bc#fgets@plt -->
<g id="edge10" class="edge">
<title>main|400814#LoadData&#45;&gt;main|400814#LoadData|4011bc#fgets@plt</title>
<path fill="none" stroke="black" d="M962.43,-78.75C874.37,-66.96 729.04,-47.51 628.23,-34.02"/>
<polygon fill="black" stroke="black" points="628.96,-30.58 618.59,-32.73 628.03,-37.52 628.96,-30.58"/>
</g>
<!-- main|400814#LoadData|4011d0#printf@plt -->
<g id="node12" class="node">
<title>main|400814#LoadData|4011d0#printf@plt</title>
<ellipse fill="none" stroke="black" cx="865.04" cy="-18" rx="166.27" ry="18"/>
<text text-anchor="middle" x="865.04" y="-14.3" font-family="Times New Roman,serif" font-size="14.00">main|400814#LoadData|4011d0#printf@plt</text>
</g>
<!-- main|400814#LoadData&#45;&gt;main|400814#LoadData|4011d0#printf@plt -->
<g id="edge11" class="edge">
<title>main|400814#LoadData&#45;&gt;main|400814#LoadData|4011d0#printf@plt</title>
<path fill="none" stroke="black" d="M999.55,-73.12C975.23,-63.33 943.76,-50.67 917.37,-40.06"/>
<polygon fill="black" stroke="black" points="918.78,-36.85 908.19,-36.36 916.16,-43.34 918.78,-36.85"/>
</g>
<!-- main|400814#LoadData|4011e0#fgets@plt -->
<g id="node13" class="node">
<title>main|400814#LoadData|4011e0#fgets@plt</title>
<ellipse fill="none" stroke="black" cx="1213.04" cy="-18" rx="163.27" ry="18"/>
<text text-anchor="middle" x="1213.04" y="-14.3" font-family="Times New Roman,serif" font-size="14.00">main|400814#LoadData|4011e0#fgets@plt</text>
</g>
<!-- main|400814#LoadData&#45;&gt;main|400814#LoadData|4011e0#fgets@plt -->
<g id="edge12" class="edge">
<title>main|400814#LoadData&#45;&gt;main|400814#LoadData|4011e0#fgets@plt</title>
<path fill="none" stroke="black" d="M1078.52,-73.12C1102.84,-63.33 1134.31,-50.67 1160.7,-40.06"/>
<polygon fill="black" stroke="black" points="1161.91,-43.34 1169.88,-36.36 1159.29,-36.85 1161.91,-43.34"/>
</g>
<!-- main|400814#LoadData|4011e8#fclose@plt -->
<g id="node14" class="node">
<title>main|400814#LoadData|4011e8#fclose@plt</title>
<ellipse fill="none" stroke="black" cx="1562.04" cy="-18" rx="167.87" ry="18"/>
<text text-anchor="middle" x="1562.04" y="-14.3" font-family="Times New Roman,serif" font-size="14.00">main|400814#LoadData|4011e8#fclose@plt</text>
</g>
<!-- main|400814#LoadData&#45;&gt;main|400814#LoadData|4011e8#fclose@plt -->
<g id="edge13" class="edge">
<title>main|400814#LoadData&#45;&gt;main|400814#LoadData|4011e8#fclose@plt</title>
<path fill="none" stroke="black" d="M1115.64,-78.75C1203.43,-67 1348.13,-47.63 1448.9,-34.14"/>
<polygon fill="black" stroke="black" points="1449.1,-37.65 1458.54,-32.85 1448.17,-30.71 1449.1,-37.65"/>
</g>
<!-- main|400834#InitializeMesh_1|400898#random@plt -->
<g id="node15" class="node">
<title>main|400834#InitializeMesh_1|400898#random@plt</title>
<ellipse fill="none" stroke="black" cx="1945.04" cy="-18" rx="196.87" ry="18"/>
<text text-anchor="middle" x="1945.04" y="-14.3" font-family="Times New Roman,serif" font-size="14.00">main|400834#InitializeMesh_1|400898#random@plt</text>
</g>
<!-- main|400834#InitializeMesh_1&#45;&gt;main|400834#InitializeMesh_1|400898#random@plt -->
<g id="edge14" class="edge">
<title>main|400834#InitializeMesh_1&#45;&gt;main|400834#InitializeMesh_1|400898#random@plt</title>
<path fill="none" stroke="black" d="M1966.11,-71.7C1963.1,-64.15 1959.48,-55.12 1956.11,-46.68"/>
<polygon fill="black" stroke="black" points="1959.4,-45.49 1952.44,-37.51 1952.9,-48.09 1959.4,-45.49"/>
</g>
<!-- main|400838#InitializeMesh_2|400b64#random@plt -->
<g id="node16" class="node">
<title>main|400838#InitializeMesh_2|400b64#random@plt</title>
<ellipse fill="none" stroke="black" cx="2358.04" cy="-18" rx="197.66" ry="18"/>
<text text-anchor="middle" x="2358.04" y="-14.3" font-family="Times New Roman,serif" font-size="14.00">main|400838#InitializeMesh_2|400b64#random@plt</text>
</g>
<!-- main|400838#InitializeMesh_2&#45;&gt;main|400838#InitializeMesh_2|400b64#random@plt -->
<g id="edge15" class="edge">
<title>main|400838#InitializeMesh_2&#45;&gt;main|400838#InitializeMesh_2|400b64#random@plt</title>
<path fill="none" stroke="black" d="M2281.48,-72.05C2294.2,-63.24 2309.94,-52.33 2323.84,-42.7"/>
<polygon fill="black" stroke="black" points="2325.64,-45.71 2331.87,-37.14 2321.65,-39.96 2325.64,-45.71"/>
</g>
<!-- main|40086c#ComplexDataHandle|401200#ManiplateData1 -->
<g id="node17" class="node">
<title>main|40086c#ComplexDataHandle|401200#ManiplateData1</title>
<ellipse fill="none" stroke="black" cx="2798.04" cy="-18" rx="224.46" ry="18"/>
<text text-anchor="middle" x="2798.04" y="-14.3" font-family="Times New Roman,serif" font-size="14.00">main|40086c#ComplexDataHandle|401200#ManiplateData1</text>
</g>
<!-- main|40086c#ComplexDataHandle&#45;&gt;main|40086c#ComplexDataHandle|401200#ManiplateData1 -->
<g id="edge16" class="edge">
<title>main|40086c#ComplexDataHandle&#45;&gt;main|40086c#ComplexDataHandle|401200#ManiplateData1</title>
<path fill="none" stroke="black" d="M3127.03,-75.17C3062.46,-64.15 2971.59,-48.63 2901.71,-36.7"/>
<polygon fill="black" stroke="black" points="2902.62,-33.31 2892.18,-35.07 2901.44,-40.21 2902.62,-33.31"/>
</g>
<!-- main|40086c#ComplexDataHandle|401208#ManiplateData2 -->
<g id="node18" class="node">
<title>main|40086c#ComplexDataHandle|401208#ManiplateData2</title>
<ellipse fill="none" stroke="black" cx="3264.04" cy="-18" rx="224.46" ry="18"/>
<text text-anchor="middle" x="3264.04" y="-14.3" font-family="Times New Roman,serif" font-size="14.00">main|40086c#ComplexDataHandle|401208#ManiplateData2</text>
</g>
<!-- main|40086c#ComplexDataHandle&#45;&gt;main|40086c#ComplexDataHandle|401208#ManiplateData2 -->
<g id="edge17" class="edge">
<title>main|40086c#ComplexDataHandle&#45;&gt;main|40086c#ComplexDataHandle|401208#ManiplateData2</title>
<path fill="none" stroke="black" d="M3221.88,-71.7C3228.32,-63.64 3236.12,-53.89 3243.25,-44.98"/>
<polygon fill="black" stroke="black" points="3245.89,-47.28 3249.41,-37.29 3240.43,-42.91 3245.89,-47.28"/>
</g>
<!-- main|400870#StoreData|401498#fopen@plt -->
<g id="node19" class="node">
<title>main|400870#StoreData|401498#fopen@plt</title>
<ellipse fill="none" stroke="black" cx="3674.04" cy="-18" rx="167.87" ry="18"/>
<text text-anchor="middle" x="3674.04" y="-14.3" font-family="Times New Roman,serif" font-size="14.00">main|400870#StoreData|401498#fopen@plt</text>
</g>
<!-- main|400870#StoreData&#45;&gt;main|400870#StoreData|401498#fopen@plt -->
<g id="edge18" class="edge">
<title>main|400870#StoreData&#45;&gt;main|400870#StoreData|401498#fopen@plt</title>
<path fill="none" stroke="black" d="M4126.97,-78.82C4038,-67.07 3890.81,-47.63 3788.46,-34.11"/>
<polygon fill="black" stroke="black" points="3789.02,-30.66 3778.65,-32.82 3788.11,-37.6 3789.02,-30.66"/>
</g>
<!-- main|400870#StoreData|4014b4#fwrite@plt -->
<g id="node20" class="node">
<title>main|400870#StoreData|4014b4#fwrite@plt</title>
<ellipse fill="none" stroke="black" cx="4027.04" cy="-18" rx="167.87" ry="18"/>
<text text-anchor="middle" x="4027.04" y="-14.3" font-family="Times New Roman,serif" font-size="14.00">main|400870#StoreData|4014b4#fwrite@plt</text>
</g>
<!-- main|400870#StoreData&#45;&gt;main|400870#StoreData|4014b4#fwrite@plt -->
<g id="edge19" class="edge">
<title>main|400870#StoreData&#45;&gt;main|400870#StoreData|4014b4#fwrite@plt</title>
<path fill="none" stroke="black" d="M4164.31,-73.29C4139.48,-63.47 4107.19,-50.7 4080.17,-40.01"/>
<polygon fill="black" stroke="black" points="4081.71,-36.86 4071.12,-36.44 4079.14,-43.37 4081.71,-36.86"/>
</g>
<!-- main|400870#StoreData|401508#fprintf@plt -->
<g id="node21" class="node">
<title>main|400870#StoreData|401508#fprintf@plt</title>
<ellipse fill="none" stroke="black" cx="4382.04" cy="-18" rx="168.97" ry="18"/>
<text text-anchor="middle" x="4382.04" y="-14.3" font-family="Times New Roman,serif" font-size="14.00">main|400870#StoreData|401508#fprintf@plt</text>
</g>
<!-- main|400870#StoreData&#45;&gt;main|400870#StoreData|401508#fprintf@plt -->
<g id="edge20" class="edge">
<title>main|400870#StoreData&#45;&gt;main|400870#StoreData|401508#fprintf@plt</title>
<path fill="none" stroke="black" d="M4243.98,-73.29C4268.96,-63.47 4301.43,-50.7 4328.6,-40.01"/>
<polygon fill="black" stroke="black" points="4329.68,-43.35 4337.7,-36.43 4327.12,-36.84 4329.68,-43.35"/>
</g>
<!-- main|400870#StoreData|401550#fwrite@plt -->
<g id="node22" class="node">
<title>main|400870#StoreData|401550#fwrite@plt</title>
<ellipse fill="none" stroke="black" cx="4736.04" cy="-18" rx="167.07" ry="18"/>
<text text-anchor="middle" x="4736.04" y="-14.3" font-family="Times New Roman,serif" font-size="14.00">main|400870#StoreData|401550#fwrite@plt</text>
</g>
<!-- main|400870#StoreData&#45;&gt;main|400870#StoreData|401550#fwrite@plt -->
<g id="edge21" class="edge">
<title>main|400870#StoreData&#45;&gt;main|400870#StoreData|401550#fwrite@plt</title>
<path fill="none" stroke="black" d="M4281.39,-78.82C4370.83,-67.05 4518.9,-47.57 4621.65,-34.05"/>
<polygon fill="black" stroke="black" points="4622.05,-37.53 4631.51,-32.75 4621.14,-30.59 4622.05,-37.53"/>
</g>
<!-- main|400870#StoreData|401558#fclose@plt -->
<g id="node23" class="node">
<title>main|400870#StoreData|401558#fclose@plt</title>
<ellipse fill="none" stroke="black" cx="5090.04" cy="-18" rx="168.97" ry="18"/>
<text text-anchor="middle" x="5090.04" y="-14.3" font-family="Times New Roman,serif" font-size="14.00">main|400870#StoreData|401558#fclose@plt</text>
</g>
<!-- main|400870#StoreData&#45;&gt;main|400870#StoreData|401558#fclose@plt -->
<g id="edge22" class="edge">
<title>main|400870#StoreData&#45;&gt;main|400870#StoreData|401558#fclose@plt</title>
<path fill="none" stroke="black" d="M4293.49,-82.89C4427.86,-73.59 4689.74,-54.93 4912.04,-36 4926.84,-34.74 4942.34,-33.35 4957.75,-31.94"/>
<polygon fill="black" stroke="black" points="4957.8,-35.45 4967.43,-31.04 4957.15,-28.48 4957.8,-35.45"/>
</g>
</g>
</svg>
