<?xml version="1.0" encoding="UTF-8" standalone="no"?>
<!DOCTYPE svg PUBLIC "-//W3C//DTD SVG 1.1//EN"
 "http://www.w3.org/Graphics/SVG/1.1/DTD/svg11.dtd">
<!-- Generated by graphviz version 7.1.0 (20230121.1956)
 -->
<!-- Title: Call Graph Pages: 1 -->
<svg width="508pt" height="188pt"
 viewBox="0.00 0.00 508.33 188.00" xmlns="http://www.w3.org/2000/svg" xmlns:xlink="http://www.w3.org/1999/xlink">
<g id="graph0" class="graph" transform="scale(1 1) rotate(0) translate(4 184)">
<title>Call Graph</title>
<polygon fill="white" stroke="none" points="-4,4 -4,-184 504.33,-184 504.33,4 -4,4"/>
<!-- main -->
<g id="node1" class="node">
<title>main</title>
<ellipse fill="none" stroke="black" cx="301.83" cy="-162" rx="28.7" ry="18"/>
<text text-anchor="middle" x="301.83" y="-158.3" font-family="Times,serif" font-size="14.00">main</text>
</g>
<!-- main|7b0#initializerandommesh -->
<g id="node2" class="node">
<title>main|7b0#initializerandommesh</title>
<ellipse fill="none" stroke="black" cx="187.83" cy="-90" rx="125.38" ry="18"/>
<text text-anchor="middle" x="187.83" y="-86.3" font-family="Times,serif" font-size="14.00">main|7b0#initializerandommesh</text>
</g>
<!-- main&#45;&gt;main|7b0#initializerandommesh -->
<g id="edge1" class="edge">
<title>main&#45;&gt;main|7b0#initializerandommesh</title>
<path fill="none" stroke="black" d="M281.71,-148.65C266.11,-139.06 244.04,-125.51 225.22,-113.96"/>
<polygon fill="black" stroke="black" points="227.09,-111 216.74,-108.75 223.43,-116.96 227.09,-111"/>
</g>
<!-- main|7cc#printf@plt -->
<g id="node3" class="node">
<title>main|7cc#printf@plt</title>
<ellipse fill="none" stroke="black" cx="415.83" cy="-90" rx="84.49" ry="18"/>
<text text-anchor="middle" x="415.83" y="-86.3" font-family="Times,serif" font-size="14.00">main|7cc#printf@plt</text>
</g>
<!-- main&#45;&gt;main|7cc#printf@plt -->
<g id="edge2" class="edge">
<title>main&#45;&gt;main|7cc#printf@plt</title>
<path fill="none" stroke="black" d="M321.95,-148.65C337.85,-138.89 360.45,-125.01 379.49,-113.32"/>
<polygon fill="black" stroke="black" points="381.09,-116.44 387.78,-108.23 377.42,-110.48 381.09,-116.44"/>
</g>
<!-- main|7b0#initializerandommesh|810#SET_FLAG -->
<g id="node4" class="node">
<title>main|7b0#initializerandommesh|810#SET_FLAG</title>
<ellipse fill="none" stroke="black" cx="187.83" cy="-18" rx="187.67" ry="18"/>
<text text-anchor="middle" x="187.83" y="-14.3" font-family="Times,serif" font-size="14.00">main|7b0#initializerandommesh|810#SET_FLAG</text>
</g>
<!-- main|7b0#initializerandommesh&#45;&gt;main|7b0#initializerandommesh|810#SET_FLAG -->
<g id="edge3" class="edge">
<title>main|7b0#initializerandommesh&#45;&gt;main|7b0#initializerandommesh|810#SET_FLAG</title>
<path fill="none" stroke="black" d="M187.83,-71.7C187.83,-64.41 187.83,-55.73 187.83,-47.54"/>
<polygon fill="black" stroke="black" points="191.33,-47.62 187.83,-37.62 184.33,-47.62 191.33,-47.62"/>
</g>
</g>
</svg>
