<?xml version="1.0" encoding="UTF-8" standalone="no"?>
<!DOCTYPE svg PUBLIC "-//W3C//DTD SVG 1.1//EN"
 "http://www.w3.org/Graphics/SVG/1.1/DTD/svg11.dtd">
<!-- Generated by graphviz version 7.1.0 (20230121.1956)
 -->
<!-- Title: Procedure Graph Pages: 1 -->
<svg width="1626pt" height="260pt"
 viewBox="0.00 0.00 1626.04 260.00" xmlns="http://www.w3.org/2000/svg" xmlns:xlink="http://www.w3.org/1999/xlink">
<g id="graph0" class="graph" transform="scale(1 1) rotate(0) translate(4 256)">
<title>Procedure Graph</title>
<polygon fill="white" stroke="none" points="-4,4 -4,-256 1622.04,-256 1622.04,4 -4,4"/>
<!-- _init -->
<g id="node1" class="node">
<title>_init</title>
<ellipse fill="none" stroke="black" cx="89.04" cy="-162" rx="27" ry="18"/>
<text text-anchor="middle" x="89.04" y="-158.3" font-family="Times New Roman,serif" font-size="14.00">_init</text>
</g>
<!-- call_weak_fn -->
<g id="node9" class="node">
<title>call_weak_fn</title>
<ellipse fill="none" stroke="black" cx="89.04" cy="-90" rx="58.49" ry="18"/>
<text text-anchor="middle" x="89.04" y="-86.3" font-family="Times New Roman,serif" font-size="14.00">call_weak_fn</text>
</g>
<!-- _init&#45;&gt;call_weak_fn -->
<g id="edge1" class="edge">
<title>_init&#45;&gt;call_weak_fn</title>
<path fill="none" stroke="black" d="M89.04,-143.7C89.04,-136.41 89.04,-127.73 89.04,-119.54"/>
<polygon fill="black" stroke="black" points="92.54,-119.62 89.04,-109.62 85.54,-119.62 92.54,-119.62"/>
</g>
<!-- .plt -->
<g id="node2" class="node">
<title>.plt</title>
<ellipse fill="none" stroke="black" cx="216.04" cy="-234" rx="27" ry="18"/>
<text text-anchor="middle" x="216.04" y="-230.3" font-family="Times New Roman,serif" font-size="14.00">.plt</text>
</g>
<!-- __cxa_finalize@plt -->
<g id="node3" class="node">
<title>__cxa_finalize@plt</title>
<ellipse fill="none" stroke="black" cx="215.04" cy="-162" rx="80.69" ry="18"/>
<text text-anchor="middle" x="215.04" y="-158.3" font-family="Times New Roman,serif" font-size="14.00">__cxa_finalize@plt</text>
</g>
<!-- __libc_start_main@plt -->
<g id="node4" class="node">
<title>__libc_start_main@plt</title>
<ellipse fill="none" stroke="black" cx="602.04" cy="-162" rx="93.68" ry="18"/>
<text text-anchor="middle" x="602.04" y="-158.3" font-family="Times New Roman,serif" font-size="14.00">__libc_start_main@plt</text>
</g>
<!-- __gmon_start__@plt -->
<g id="node5" class="node">
<title>__gmon_start__@plt</title>
<ellipse fill="none" stroke="black" cx="89.04" cy="-18" rx="89.08" ry="18"/>
<text text-anchor="middle" x="89.04" y="-14.3" font-family="Times New Roman,serif" font-size="14.00">__gmon_start__@plt</text>
</g>
<!-- abort@plt -->
<g id="node6" class="node">
<title>abort@plt</title>
<ellipse fill="none" stroke="black" cx="761.04" cy="-162" rx="47.39" ry="18"/>
<text text-anchor="middle" x="761.04" y="-158.3" font-family="Times New Roman,serif" font-size="14.00">abort@plt</text>
</g>
<!-- printf@plt -->
<g id="node7" class="node">
<title>printf@plt</title>
<ellipse fill="none" stroke="black" cx="875.04" cy="-162" rx="48.19" ry="18"/>
<text text-anchor="middle" x="875.04" y="-158.3" font-family="Times New Roman,serif" font-size="14.00">printf@plt</text>
</g>
<!-- _start -->
<g id="node8" class="node">
<title>_start</title>
<ellipse fill="none" stroke="black" cx="681.04" cy="-234" rx="31.4" ry="18"/>
<text text-anchor="middle" x="681.04" y="-230.3" font-family="Times New Roman,serif" font-size="14.00">_start</text>
</g>
<!-- _start&#45;&gt;__libc_start_main@plt -->
<g id="edge3" class="edge">
<title>_start&#45;&gt;__libc_start_main@plt</title>
<path fill="none" stroke="black" d="M664.67,-218.5C654.59,-209.56 641.4,-197.87 629.73,-187.53"/>
<polygon fill="black" stroke="black" points="632.11,-184.97 622.3,-180.95 627.47,-190.21 632.11,-184.97"/>
</g>
<!-- _start&#45;&gt;abort@plt -->
<g id="edge2" class="edge">
<title>_start&#45;&gt;abort@plt</title>
<path fill="none" stroke="black" d="M697.62,-218.5C708.22,-209.22 722.22,-196.97 734.37,-186.34"/>
<polygon fill="black" stroke="black" points="736.45,-189.17 741.67,-179.95 731.84,-183.9 736.45,-189.17"/>
</g>
<!-- call_weak_fn&#45;&gt;__gmon_start__@plt -->
<g id="edge4" class="edge">
<title>call_weak_fn&#45;&gt;__gmon_start__@plt</title>
<path fill="none" stroke="black" d="M89.04,-71.7C89.04,-64.41 89.04,-55.73 89.04,-47.54"/>
<polygon fill="black" stroke="black" points="92.54,-47.62 89.04,-37.62 85.54,-47.62 92.54,-47.62"/>
</g>
<!-- deregister_tm_clones -->
<g id="node10" class="node">
<title>deregister_tm_clones</title>
<ellipse fill="none" stroke="black" cx="402.04" cy="-162" rx="88.28" ry="18"/>
<text text-anchor="middle" x="402.04" y="-158.3" font-family="Times New Roman,serif" font-size="14.00">deregister_tm_clones</text>
</g>
<!-- register_tm_clones -->
<g id="node11" class="node">
<title>register_tm_clones</title>
<ellipse fill="none" stroke="black" cx="1210.04" cy="-162" rx="79.09" ry="18"/>
<text text-anchor="middle" x="1210.04" y="-158.3" font-family="Times New Roman,serif" font-size="14.00">register_tm_clones</text>
</g>
<!-- __do_global_dtors_aux -->
<g id="node12" class="node">
<title>__do_global_dtors_aux</title>
<ellipse fill="none" stroke="black" cx="374.04" cy="-234" rx="98.58" ry="18"/>
<text text-anchor="middle" x="374.04" y="-230.3" font-family="Times New Roman,serif" font-size="14.00">__do_global_dtors_aux</text>
</g>
<!-- __do_global_dtors_aux&#45;&gt;__cxa_finalize@plt -->
<g id="edge6" class="edge">
<title>__do_global_dtors_aux&#45;&gt;__cxa_finalize@plt</title>
<path fill="none" stroke="black" d="M337.56,-216.94C314.8,-206.92 285.31,-193.93 260.96,-183.22"/>
<polygon fill="black" stroke="black" points="262.48,-180.06 251.91,-179.23 259.66,-186.47 262.48,-180.06"/>
</g>
<!-- __do_global_dtors_aux&#45;&gt;deregister_tm_clones -->
<g id="edge5" class="edge">
<title>__do_global_dtors_aux&#45;&gt;deregister_tm_clones</title>
<path fill="none" stroke="black" d="M380.96,-215.7C383.98,-208.15 387.59,-199.12 390.97,-190.68"/>
<polygon fill="black" stroke="black" points="394.17,-192.09 394.64,-181.51 387.67,-189.49 394.17,-192.09"/>
</g>
<!-- frame_dummy -->
<g id="node13" class="node">
<title>frame_dummy</title>
<ellipse fill="none" stroke="black" cx="1210.04" cy="-234" rx="63.89" ry="18"/>
<text text-anchor="middle" x="1210.04" y="-230.3" font-family="Times New Roman,serif" font-size="14.00">frame_dummy</text>
</g>
<!-- frame_dummy&#45;&gt;register_tm_clones -->
<g id="edge7" class="edge">
<title>frame_dummy&#45;&gt;register_tm_clones</title>
<path fill="none" stroke="black" d="M1210.04,-215.7C1210.04,-208.41 1210.04,-199.73 1210.04,-191.54"/>
<polygon fill="black" stroke="black" points="1213.54,-191.62 1210.04,-181.62 1206.54,-191.62 1213.54,-191.62"/>
</g>
<!-- main -->
<g id="node14" class="node">
<title>main</title>
<ellipse fill="none" stroke="black" cx="951.04" cy="-234" rx="27.9" ry="18"/>
<text text-anchor="middle" x="951.04" y="-230.3" font-family="Times New Roman,serif" font-size="14.00">main</text>
</g>
<!-- main&#45;&gt;printf@plt -->
<g id="edge8" class="edge">
<title>main&#45;&gt;printf@plt</title>
<path fill="none" stroke="black" d="M935.66,-218.83C925.71,-209.67 912.5,-197.5 900.95,-186.86"/>
<polygon fill="black" stroke="black" points="903.37,-184.33 893.64,-180.13 898.62,-189.48 903.37,-184.33"/>
</g>
<!-- initializerandommesh -->
<g id="node15" class="node">
<title>initializerandommesh</title>
<ellipse fill="none" stroke="black" cx="1027.04" cy="-162" rx="85.59" ry="18"/>
<text text-anchor="middle" x="1027.04" y="-158.3" font-family="Times New Roman,serif" font-size="14.00">initializerandommesh</text>
</g>
<!-- main&#45;&gt;initializerandommesh -->
<g id="edge9" class="edge">
<title>main&#45;&gt;initializerandommesh</title>
<path fill="none" stroke="black" d="M966.42,-218.83C976.17,-209.86 989.04,-198 1000.41,-187.53"/>
<polygon fill="black" stroke="black" points="1002.64,-190.23 1007.63,-180.88 997.9,-185.08 1002.64,-190.23"/>
</g>
<!-- SET_FLAG -->
<g id="node17" class="node">
<title>SET_FLAG</title>
<ellipse fill="none" stroke="black" cx="1027.04" cy="-90" rx="55.79" ry="18"/>
<text text-anchor="middle" x="1027.04" y="-86.3" font-family="Times New Roman,serif" font-size="14.00">SET_FLAG</text>
</g>
<!-- initializerandommesh&#45;&gt;SET_FLAG -->
<g id="edge10" class="edge">
<title>initializerandommesh&#45;&gt;SET_FLAG</title>
<path fill="none" stroke="black" d="M1027.04,-143.7C1027.04,-136.41 1027.04,-127.73 1027.04,-119.54"/>
<polygon fill="black" stroke="black" points="1030.54,-119.62 1027.04,-109.62 1023.54,-119.62 1030.54,-119.62"/>
</g>
<!-- swapMesh -->
<g id="node16" class="node">
<title>swapMesh</title>
<ellipse fill="none" stroke="black" cx="1342.04" cy="-234" rx="50.09" ry="18"/>
<text text-anchor="middle" x="1342.04" y="-230.3" font-family="Times New Roman,serif" font-size="14.00">swapMesh</text>
</g>
<!-- __libc_csu_init -->
<g id="node18" class="node">
<title>__libc_csu_init</title>
<ellipse fill="none" stroke="black" cx="89.04" cy="-234" rx="66.89" ry="18"/>
<text text-anchor="middle" x="89.04" y="-230.3" font-family="Times New Roman,serif" font-size="14.00">__libc_csu_init</text>
</g>
<!-- __libc_csu_init&#45;&gt;_init -->
<g id="edge11" class="edge">
<title>__libc_csu_init&#45;&gt;_init</title>
<path fill="none" stroke="black" d="M89.04,-215.7C89.04,-208.41 89.04,-199.73 89.04,-191.54"/>
<polygon fill="black" stroke="black" points="92.54,-191.62 89.04,-181.62 85.54,-191.62 92.54,-191.62"/>
</g>
<!-- __libc_csu_fini -->
<g id="node19" class="node">
<title>__libc_csu_fini</title>
<ellipse fill="none" stroke="black" cx="1478.04" cy="-234" rx="67.69" ry="18"/>
<text text-anchor="middle" x="1478.04" y="-230.3" font-family="Times New Roman,serif" font-size="14.00">__libc_csu_fini</text>
</g>
<!-- _fini -->
<g id="node20" class="node">
<title>_fini</title>
<ellipse fill="none" stroke="black" cx="1591.04" cy="-234" rx="27" ry="18"/>
<text text-anchor="middle" x="1591.04" y="-230.3" font-family="Times New Roman,serif" font-size="14.00">_fini</text>
</g>
</g>
</svg>
