<?xml version="1.0" encoding="UTF-8" standalone="no"?>
<!DOCTYPE svg PUBLIC "-//W3C//DTD SVG 1.1//EN"
 "http://www.w3.org/Graphics/SVG/1.1/DTD/svg11.dtd">
<!-- Generated by graphviz version 2.50.0 (0)
 -->
<!-- Title: Procedure Graph Pages: 1 -->
<svg width="1458pt" height="260pt"
 viewBox="0.00 0.00 1458.09 260.00" xmlns="http://www.w3.org/2000/svg" xmlns:xlink="http://www.w3.org/1999/xlink">
<g id="graph0" class="graph" transform="scale(1 1) rotate(0) translate(4 256)">
<title>Procedure Graph</title>
<polygon fill="white" stroke="transparent" points="-4,4 -4,-256 1454.09,-256 1454.09,4 -4,4"/>
<!-- _init -->
<g id="node1" class="node">
<title>_init</title>
<ellipse fill="none" stroke="black" cx="85.79" cy="-234" rx="27" ry="18"/>
<text text-anchor="middle" x="85.79" y="-230.3" font-family="Times,serif" font-size="14.00">_init</text>
</g>
<!-- call_weak_fn -->
<g id="node11" class="node">
<title>call_weak_fn</title>
<ellipse fill="none" stroke="black" cx="85.79" cy="-162" rx="57.69" ry="18"/>
<text text-anchor="middle" x="85.79" y="-158.3" font-family="Times,serif" font-size="14.00">call_weak_fn</text>
</g>
<!-- _init&#45;&gt;call_weak_fn -->
<g id="edge1" class="edge">
<title>_init&#45;&gt;call_weak_fn</title>
<path fill="none" stroke="black" d="M85.79,-215.7C85.79,-207.98 85.79,-198.71 85.79,-190.11"/>
<polygon fill="black" stroke="black" points="89.29,-190.1 85.79,-180.1 82.29,-190.1 89.29,-190.1"/>
</g>
<!-- .plt -->
<g id="node2" class="node">
<title>.plt</title>
<ellipse fill="none" stroke="black" cx="343.79" cy="-234" rx="27" ry="18"/>
<text text-anchor="middle" x="343.79" y="-230.3" font-family="Times,serif" font-size="14.00">.plt</text>
</g>
<!-- __libc_start_main@plt -->
<g id="node3" class="node">
<title>__libc_start_main@plt</title>
<ellipse fill="none" stroke="black" cx="351.79" cy="-162" rx="92.08" ry="18"/>
<text text-anchor="middle" x="351.79" y="-158.3" font-family="Times,serif" font-size="14.00">__libc_start_main@plt</text>
</g>
<!-- random@plt -->
<g id="node4" class="node">
<title>random@plt</title>
<ellipse fill="none" stroke="black" cx="466.79" cy="-18" rx="55.79" ry="18"/>
<text text-anchor="middle" x="466.79" y="-14.3" font-family="Times,serif" font-size="14.00">random@plt</text>
</g>
<!-- __gmon_start__@plt -->
<g id="node5" class="node">
<title>__gmon_start__@plt</title>
<ellipse fill="none" stroke="black" cx="85.79" cy="-90" rx="85.59" ry="18"/>
<text text-anchor="middle" x="85.79" y="-86.3" font-family="Times,serif" font-size="14.00">__gmon_start__@plt</text>
</g>
<!-- abort@plt -->
<g id="node6" class="node">
<title>abort@plt</title>
<ellipse fill="none" stroke="black" cx="507.79" cy="-162" rx="46.29" ry="18"/>
<text text-anchor="middle" x="507.79" y="-158.3" font-family="Times,serif" font-size="14.00">abort@plt</text>
</g>
<!-- putchar@plt -->
<g id="node7" class="node">
<title>putchar@plt</title>
<ellipse fill="none" stroke="black" cx="243.79" cy="-90" rx="54.69" ry="18"/>
<text text-anchor="middle" x="243.79" y="-86.3" font-family="Times,serif" font-size="14.00">putchar@plt</text>
</g>
<!-- _start -->
<g id="node8" class="node">
<title>_start</title>
<ellipse fill="none" stroke="black" cx="429.79" cy="-234" rx="30.59" ry="18"/>
<text text-anchor="middle" x="429.79" y="-230.3" font-family="Times,serif" font-size="14.00">_start</text>
</g>
<!-- _start&#45;&gt;__libc_start_main@plt -->
<g id="edge3" class="edge">
<title>_start&#45;&gt;__libc_start_main@plt</title>
<path fill="none" stroke="black" d="M413.63,-218.5C403.31,-209.23 389.69,-197.01 377.86,-186.4"/>
<polygon fill="black" stroke="black" points="380.18,-183.77 370.4,-179.7 375.5,-188.98 380.18,-183.77"/>
</g>
<!-- _start&#45;&gt;abort@plt -->
<g id="edge2" class="edge">
<title>_start&#45;&gt;abort@plt</title>
<path fill="none" stroke="black" d="M445.95,-218.5C456.57,-208.97 470.67,-196.32 482.73,-185.5"/>
<polygon fill="black" stroke="black" points="485.19,-187.99 490.3,-178.7 480.52,-182.78 485.19,-187.99"/>
</g>
<!-- __wrap_main -->
<g id="node9" class="node">
<title>__wrap_main</title>
<ellipse fill="none" stroke="black" cx="757.79" cy="-234" rx="59.59" ry="18"/>
<text text-anchor="middle" x="757.79" y="-230.3" font-family="Times,serif" font-size="14.00">__wrap_main</text>
</g>
<!-- main -->
<g id="node16" class="node">
<title>main</title>
<ellipse fill="none" stroke="black" cx="757.79" cy="-162" rx="28.7" ry="18"/>
<text text-anchor="middle" x="757.79" y="-158.3" font-family="Times,serif" font-size="14.00">main</text>
</g>
<!-- __wrap_main&#45;&gt;main -->
<g id="edge4" class="edge">
<title>__wrap_main&#45;&gt;main</title>
<path fill="none" stroke="black" d="M757.79,-215.7C757.79,-207.98 757.79,-198.71 757.79,-190.11"/>
<polygon fill="black" stroke="black" points="761.29,-190.1 757.79,-180.1 754.29,-190.1 761.29,-190.1"/>
</g>
<!-- _dl_relocate_static_pie -->
<g id="node10" class="node">
<title>_dl_relocate_static_pie</title>
<ellipse fill="none" stroke="black" cx="927.79" cy="-234" rx="92.08" ry="18"/>
<text text-anchor="middle" x="927.79" y="-230.3" font-family="Times,serif" font-size="14.00">_dl_relocate_static_pie</text>
</g>
<!-- call_weak_fn&#45;&gt;__gmon_start__@plt -->
<g id="edge5" class="edge">
<title>call_weak_fn&#45;&gt;__gmon_start__@plt</title>
<path fill="none" stroke="black" d="M85.79,-143.7C85.79,-135.98 85.79,-126.71 85.79,-118.11"/>
<polygon fill="black" stroke="black" points="89.29,-118.1 85.79,-108.1 82.29,-118.1 89.29,-118.1"/>
</g>
<!-- deregister_tm_clones -->
<g id="node12" class="node">
<title>deregister_tm_clones</title>
<ellipse fill="none" stroke="black" cx="1131.79" cy="-162" rx="86.38" ry="18"/>
<text text-anchor="middle" x="1131.79" y="-158.3" font-family="Times,serif" font-size="14.00">deregister_tm_clones</text>
</g>
<!-- register_tm_clones -->
<g id="node13" class="node">
<title>register_tm_clones</title>
<ellipse fill="none" stroke="black" cx="1313.79" cy="-162" rx="77.99" ry="18"/>
<text text-anchor="middle" x="1313.79" y="-158.3" font-family="Times,serif" font-size="14.00">register_tm_clones</text>
</g>
<!-- __do_global_dtors_aux -->
<g id="node14" class="node">
<title>__do_global_dtors_aux</title>
<ellipse fill="none" stroke="black" cx="1131.79" cy="-234" rx="93.68" ry="18"/>
<text text-anchor="middle" x="1131.79" y="-230.3" font-family="Times,serif" font-size="14.00">__do_global_dtors_aux</text>
</g>
<!-- __do_global_dtors_aux&#45;&gt;deregister_tm_clones -->
<g id="edge6" class="edge">
<title>__do_global_dtors_aux&#45;&gt;deregister_tm_clones</title>
<path fill="none" stroke="black" d="M1131.79,-215.7C1131.79,-207.98 1131.79,-198.71 1131.79,-190.11"/>
<polygon fill="black" stroke="black" points="1135.29,-190.1 1131.79,-180.1 1128.29,-190.1 1135.29,-190.1"/>
</g>
<!-- frame_dummy -->
<g id="node15" class="node">
<title>frame_dummy</title>
<ellipse fill="none" stroke="black" cx="1313.79" cy="-234" rx="63.89" ry="18"/>
<text text-anchor="middle" x="1313.79" y="-230.3" font-family="Times,serif" font-size="14.00">frame_dummy</text>
</g>
<!-- frame_dummy&#45;&gt;register_tm_clones -->
<g id="edge7" class="edge">
<title>frame_dummy&#45;&gt;register_tm_clones</title>
<path fill="none" stroke="black" d="M1313.79,-215.7C1313.79,-207.98 1313.79,-198.71 1313.79,-190.11"/>
<polygon fill="black" stroke="black" points="1317.29,-190.1 1313.79,-180.1 1310.29,-190.1 1317.29,-190.1"/>
</g>
<!-- main&#45;&gt;putchar@plt -->
<g id="edge12" class="edge">
<title>main&#45;&gt;putchar@plt</title>
<path fill="none" stroke="black" d="M729.68,-158.24C644.29,-149.78 388.85,-123.8 306.79,-108 302.35,-107.15 297.77,-106.14 293.19,-105.06"/>
<polygon fill="black" stroke="black" points="293.79,-101.61 283.24,-102.59 292.11,-108.4 293.79,-101.61"/>
</g>
<!-- InitializeMesh_1 -->
<g id="node17" class="node">
<title>InitializeMesh_1</title>
<ellipse fill="none" stroke="black" cx="386.79" cy="-90" rx="70.69" ry="18"/>
<text text-anchor="middle" x="386.79" y="-86.3" font-family="Times,serif" font-size="14.00">InitializeMesh_1</text>
</g>
<!-- main&#45;&gt;InitializeMesh_1 -->
<g id="edge11" class="edge">
<title>main&#45;&gt;InitializeMesh_1</title>
<path fill="none" stroke="black" d="M730.46,-156.3C678.85,-147.35 563.52,-127.08 466.79,-108 460.99,-106.86 454.96,-105.63 448.93,-104.39"/>
<polygon fill="black" stroke="black" points="449.32,-100.9 438.82,-102.29 447.89,-107.75 449.32,-100.9"/>
</g>
<!-- InitializeMesh_2 -->
<g id="node18" class="node">
<title>InitializeMesh_2</title>
<ellipse fill="none" stroke="black" cx="546.79" cy="-90" rx="70.69" ry="18"/>
<text text-anchor="middle" x="546.79" y="-86.3" font-family="Times,serif" font-size="14.00">InitializeMesh_2</text>
</g>
<!-- main&#45;&gt;InitializeMesh_2 -->
<g id="edge15" class="edge">
<title>main&#45;&gt;InitializeMesh_2</title>
<path fill="none" stroke="black" d="M733.18,-152.83C700.2,-141.89 640.86,-122.21 597.99,-107.98"/>
<polygon fill="black" stroke="black" points="598.88,-104.59 588.29,-104.77 596.67,-111.24 598.88,-104.59"/>
</g>
<!-- CompareMesh -->
<g id="node19" class="node">
<title>CompareMesh</title>
<ellipse fill="none" stroke="black" cx="699.79" cy="-90" rx="63.89" ry="18"/>
<text text-anchor="middle" x="699.79" y="-86.3" font-family="Times,serif" font-size="14.00">CompareMesh</text>
</g>
<!-- main&#45;&gt;CompareMesh -->
<g id="edge10" class="edge">
<title>main&#45;&gt;CompareMesh</title>
<path fill="none" stroke="black" d="M745.21,-145.81C737.85,-136.93 728.38,-125.5 720,-115.39"/>
<polygon fill="black" stroke="black" points="722.65,-113.1 713.57,-107.63 717.25,-117.56 722.65,-113.1"/>
</g>
<!-- Mesh2 -->
<g id="node20" class="node">
<title>Mesh2</title>
<ellipse fill="none" stroke="black" cx="816.79" cy="-90" rx="35.19" ry="18"/>
<text text-anchor="middle" x="816.79" y="-86.3" font-family="Times,serif" font-size="14.00">Mesh2</text>
</g>
<!-- main&#45;&gt;Mesh2 -->
<g id="edge14" class="edge">
<title>main&#45;&gt;Mesh2</title>
<path fill="none" stroke="black" d="M770.59,-145.81C778.19,-136.8 787.99,-125.18 796.6,-114.95"/>
<polygon fill="black" stroke="black" points="799.43,-117.04 803.19,-107.13 794.07,-112.52 799.43,-117.04"/>
</g>
<!-- SwapMesh -->
<g id="node21" class="node">
<title>SwapMesh</title>
<ellipse fill="none" stroke="black" cx="919.79" cy="-90" rx="50.09" ry="18"/>
<text text-anchor="middle" x="919.79" y="-86.3" font-family="Times,serif" font-size="14.00">SwapMesh</text>
</g>
<!-- main&#45;&gt;SwapMesh -->
<g id="edge9" class="edge">
<title>main&#45;&gt;SwapMesh</title>
<path fill="none" stroke="black" d="M780.66,-151.12C806.35,-140.02 848.52,-121.8 879.72,-108.32"/>
<polygon fill="black" stroke="black" points="881.22,-111.48 889.01,-104.3 878.45,-105.05 881.22,-111.48"/>
</g>
<!-- Mesh_dot -->
<g id="node22" class="node">
<title>Mesh_dot</title>
<ellipse fill="none" stroke="black" cx="1033.79" cy="-90" rx="46.29" ry="18"/>
<text text-anchor="middle" x="1033.79" y="-86.3" font-family="Times,serif" font-size="14.00">Mesh_dot</text>
</g>
<!-- main&#45;&gt;Mesh_dot -->
<g id="edge13" class="edge">
<title>main&#45;&gt;Mesh_dot</title>
<path fill="none" stroke="black" d="M784.47,-155.19C826.15,-145.97 909.16,-127.09 978.79,-108 982.33,-107.03 985.97,-105.99 989.63,-104.92"/>
<polygon fill="black" stroke="black" points="990.69,-108.26 999.27,-102.04 988.69,-101.55 990.69,-108.26"/>
</g>
<!-- ComplexDataHandle -->
<g id="node23" class="node">
<title>ComplexDataHandle</title>
<ellipse fill="none" stroke="black" cx="1182.79" cy="-90" rx="85.29" ry="18"/>
<text text-anchor="middle" x="1182.79" y="-86.3" font-family="Times,serif" font-size="14.00">ComplexDataHandle</text>
</g>
<!-- main&#45;&gt;ComplexDataHandle -->
<g id="edge8" class="edge">
<title>main&#45;&gt;ComplexDataHandle</title>
<path fill="none" stroke="black" d="M785.29,-156.79C842.06,-148.05 976.35,-127.17 1088.79,-108 1095.93,-106.78 1103.37,-105.49 1110.79,-104.17"/>
<polygon fill="black" stroke="black" points="1111.65,-107.58 1120.88,-102.38 1110.43,-100.68 1111.65,-107.58"/>
</g>
<!-- InitializeMesh_1&#45;&gt;random@plt -->
<g id="edge16" class="edge">
<title>InitializeMesh_1&#45;&gt;random@plt</title>
<path fill="none" stroke="black" d="M405.75,-72.41C416.19,-63.28 429.3,-51.81 440.69,-41.84"/>
<polygon fill="black" stroke="black" points="443.02,-44.45 448.25,-35.23 438.41,-39.18 443.02,-44.45"/>
</g>
<!-- InitializeMesh_2&#45;&gt;random@plt -->
<g id="edge17" class="edge">
<title>InitializeMesh_2&#45;&gt;random@plt</title>
<path fill="none" stroke="black" d="M527.83,-72.41C517.4,-63.28 504.29,-51.81 492.9,-41.84"/>
<polygon fill="black" stroke="black" points="495.17,-39.18 485.34,-35.23 490.56,-44.45 495.17,-39.18"/>
</g>
<!-- ManiplateData1 -->
<g id="node24" class="node">
<title>ManiplateData1</title>
<ellipse fill="none" stroke="black" cx="1105.79" cy="-18" rx="67.69" ry="18"/>
<text text-anchor="middle" x="1105.79" y="-14.3" font-family="Times,serif" font-size="14.00">ManiplateData1</text>
</g>
<!-- ComplexDataHandle&#45;&gt;ManiplateData1 -->
<g id="edge18" class="edge">
<title>ComplexDataHandle&#45;&gt;ManiplateData1</title>
<path fill="none" stroke="black" d="M1164.54,-72.41C1154.67,-63.43 1142.3,-52.19 1131.47,-42.34"/>
<polygon fill="black" stroke="black" points="1133.66,-39.61 1123.91,-35.47 1128.95,-44.79 1133.66,-39.61"/>
</g>
<!-- ManiplateData2 -->
<g id="node25" class="node">
<title>ManiplateData2</title>
<ellipse fill="none" stroke="black" cx="1258.79" cy="-18" rx="67.69" ry="18"/>
<text text-anchor="middle" x="1258.79" y="-14.3" font-family="Times,serif" font-size="14.00">ManiplateData2</text>
</g>
<!-- ComplexDataHandle&#45;&gt;ManiplateData2 -->
<g id="edge19" class="edge">
<title>ComplexDataHandle&#45;&gt;ManiplateData2</title>
<path fill="none" stroke="black" d="M1201.19,-72.05C1210.88,-63.13 1222.9,-52.06 1233.46,-42.34"/>
<polygon fill="black" stroke="black" points="1235.84,-44.9 1240.83,-35.55 1231.1,-39.75 1235.84,-44.9"/>
</g>
<!-- _fini -->
<g id="node26" class="node">
<title>_fini</title>
<ellipse fill="none" stroke="black" cx="1422.79" cy="-234" rx="27.1" ry="18"/>
<text text-anchor="middle" x="1422.79" y="-230.3" font-family="Times,serif" font-size="14.00">_fini</text>
</g>
</g>
</svg>
