<?xml version="1.0" encoding="UTF-8" standalone="no"?>
<!DOCTYPE svg PUBLIC "-//W3C//DTD SVG 1.1//EN"
 "http://www.w3.org/Graphics/SVG/1.1/DTD/svg11.dtd">
<!-- Generated by graphviz version 7.1.0 (20230121.1956)
 -->
<!-- Title: Procedure Graph Pages: 1 -->
<svg width="1540pt" height="260pt"
 viewBox="0.00 0.00 1539.70 260.00" xmlns="http://www.w3.org/2000/svg" xmlns:xlink="http://www.w3.org/1999/xlink">
<g id="graph0" class="graph" transform="scale(1 1) rotate(0) translate(4 256)">
<title>Procedure Graph</title>
<polygon fill="white" stroke="none" points="-4,4 -4,-256 1535.7,-256 1535.7,4 -4,4"/>
<!-- _init -->
<g id="node1" class="node">
<title>_init</title>
<ellipse fill="none" stroke="black" cx="129.7" cy="-234" rx="27" ry="18"/>
<text text-anchor="middle" x="129.7" y="-230.3" font-family="Times New Roman,serif" font-size="14.00">_init</text>
</g>
<!-- call_weak_fn -->
<g id="node16" class="node">
<title>call_weak_fn</title>
<ellipse fill="none" stroke="black" cx="129.7" cy="-162" rx="58.49" ry="18"/>
<text text-anchor="middle" x="129.7" y="-158.3" font-family="Times New Roman,serif" font-size="14.00">call_weak_fn</text>
</g>
<!-- _init&#45;&gt;call_weak_fn -->
<g id="edge1" class="edge">
<title>_init&#45;&gt;call_weak_fn</title>
<path fill="none" stroke="black" d="M129.7,-215.7C129.7,-208.41 129.7,-199.73 129.7,-191.54"/>
<polygon fill="black" stroke="black" points="133.2,-191.62 129.7,-181.62 126.2,-191.62 133.2,-191.62"/>
</g>
<!-- .plt -->
<g id="node2" class="node">
<title>.plt</title>
<ellipse fill="none" stroke="black" cx="389.7" cy="-234" rx="27" ry="18"/>
<text text-anchor="middle" x="389.7" y="-230.3" font-family="Times New Roman,serif" font-size="14.00">.plt</text>
</g>
<!-- __libc_start_main@plt -->
<g id="node3" class="node">
<title>__libc_start_main@plt</title>
<ellipse fill="none" stroke="black" cx="397.7" cy="-162" rx="93.68" ry="18"/>
<text text-anchor="middle" x="397.7" y="-158.3" font-family="Times New Roman,serif" font-size="14.00">__libc_start_main@plt</text>
</g>
<!-- fclose@plt -->
<g id="node4" class="node">
<title>fclose@plt</title>
<ellipse fill="none" stroke="black" cx="400.7" cy="-18" rx="50.09" ry="18"/>
<text text-anchor="middle" x="400.7" y="-14.3" font-family="Times New Roman,serif" font-size="14.00">fclose@plt</text>
</g>
<!-- fopen@plt -->
<g id="node5" class="node">
<title>fopen@plt</title>
<ellipse fill="none" stroke="black" cx="283.7" cy="-18" rx="49.29" ry="18"/>
<text text-anchor="middle" x="283.7" y="-14.3" font-family="Times New Roman,serif" font-size="14.00">fopen@plt</text>
</g>
<!-- random@plt -->
<g id="node6" class="node">
<title>random@plt</title>
<ellipse fill="none" stroke="black" cx="748.7" cy="-18" rx="55.79" ry="18"/>
<text text-anchor="middle" x="748.7" y="-14.3" font-family="Times New Roman,serif" font-size="14.00">random@plt</text>
</g>
<!-- __gmon_start__@plt -->
<g id="node7" class="node">
<title>__gmon_start__@plt</title>
<ellipse fill="none" stroke="black" cx="129.7" cy="-90" rx="89.08" ry="18"/>
<text text-anchor="middle" x="129.7" y="-86.3" font-family="Times New Roman,serif" font-size="14.00">__gmon_start__@plt</text>
</g>
<!-- abort@plt -->
<g id="node8" class="node">
<title>abort@plt</title>
<ellipse fill="none" stroke="black" cx="556.7" cy="-162" rx="47.39" ry="18"/>
<text text-anchor="middle" x="556.7" y="-158.3" font-family="Times New Roman,serif" font-size="14.00">abort@plt</text>
</g>
<!-- fwrite@plt -->
<g id="node9" class="node">
<title>fwrite@plt</title>
<ellipse fill="none" stroke="black" cx="167.7" cy="-18" rx="48.99" ry="18"/>
<text text-anchor="middle" x="167.7" y="-14.3" font-family="Times New Roman,serif" font-size="14.00">fwrite@plt</text>
</g>
<!-- printf@plt -->
<g id="node10" class="node">
<title>printf@plt</title>
<ellipse fill="none" stroke="black" cx="626.7" cy="-18" rx="48.19" ry="18"/>
<text text-anchor="middle" x="626.7" y="-14.3" font-family="Times New Roman,serif" font-size="14.00">printf@plt</text>
</g>
<!-- fprintf@plt -->
<g id="node11" class="node">
<title>fprintf@plt</title>
<ellipse fill="none" stroke="black" cx="50.7" cy="-18" rx="50.89" ry="18"/>
<text text-anchor="middle" x="50.7" y="-14.3" font-family="Times New Roman,serif" font-size="14.00">fprintf@plt</text>
</g>
<!-- fgets@plt -->
<g id="node12" class="node">
<title>fgets@plt</title>
<ellipse fill="none" stroke="black" cx="514.7" cy="-18" rx="46.29" ry="18"/>
<text text-anchor="middle" x="514.7" y="-14.3" font-family="Times New Roman,serif" font-size="14.00">fgets@plt</text>
</g>
<!-- _start -->
<g id="node13" class="node">
<title>_start</title>
<ellipse fill="none" stroke="black" cx="476.7" cy="-234" rx="31.4" ry="18"/>
<text text-anchor="middle" x="476.7" y="-230.3" font-family="Times New Roman,serif" font-size="14.00">_start</text>
</g>
<!-- _start&#45;&gt;__libc_start_main@plt -->
<g id="edge3" class="edge">
<title>_start&#45;&gt;__libc_start_main@plt</title>
<path fill="none" stroke="black" d="M460.33,-218.5C450.24,-209.56 437.05,-197.87 425.38,-187.53"/>
<polygon fill="black" stroke="black" points="427.76,-184.97 417.96,-180.95 423.12,-190.21 427.76,-184.97"/>
</g>
<!-- _start&#45;&gt;abort@plt -->
<g id="edge2" class="edge">
<title>_start&#45;&gt;abort@plt</title>
<path fill="none" stroke="black" d="M493.27,-218.5C503.88,-209.22 517.88,-196.97 530.02,-186.34"/>
<polygon fill="black" stroke="black" points="532.11,-189.17 537.33,-179.95 527.5,-183.9 532.11,-189.17"/>
</g>
<!-- __wrap_main -->
<g id="node14" class="node">
<title>__wrap_main</title>
<ellipse fill="none" stroke="black" cx="824.7" cy="-234" rx="60.39" ry="18"/>
<text text-anchor="middle" x="824.7" y="-230.3" font-family="Times New Roman,serif" font-size="14.00">__wrap_main</text>
</g>
<!-- main -->
<g id="node21" class="node">
<title>main</title>
<ellipse fill="none" stroke="black" cx="824.7" cy="-162" rx="27.9" ry="18"/>
<text text-anchor="middle" x="824.7" y="-158.3" font-family="Times New Roman,serif" font-size="14.00">main</text>
</g>
<!-- __wrap_main&#45;&gt;main -->
<g id="edge4" class="edge">
<title>__wrap_main&#45;&gt;main</title>
<path fill="none" stroke="black" d="M824.7,-215.7C824.7,-208.41 824.7,-199.73 824.7,-191.54"/>
<polygon fill="black" stroke="black" points="828.2,-191.62 824.7,-181.62 821.2,-191.62 828.2,-191.62"/>
</g>
<!-- _dl_relocate_static_pie -->
<g id="node15" class="node">
<title>_dl_relocate_static_pie</title>
<ellipse fill="none" stroke="black" cx="997.7" cy="-234" rx="94.78" ry="18"/>
<text text-anchor="middle" x="997.7" y="-230.3" font-family="Times New Roman,serif" font-size="14.00">_dl_relocate_static_pie</text>
</g>
<!-- call_weak_fn&#45;&gt;__gmon_start__@plt -->
<g id="edge5" class="edge">
<title>call_weak_fn&#45;&gt;__gmon_start__@plt</title>
<path fill="none" stroke="black" d="M129.7,-143.7C129.7,-136.41 129.7,-127.73 129.7,-119.54"/>
<polygon fill="black" stroke="black" points="133.2,-119.62 129.7,-109.62 126.2,-119.62 133.2,-119.62"/>
</g>
<!-- deregister_tm_clones -->
<g id="node17" class="node">
<title>deregister_tm_clones</title>
<ellipse fill="none" stroke="black" cx="1209.7" cy="-162" rx="88.28" ry="18"/>
<text text-anchor="middle" x="1209.7" y="-158.3" font-family="Times New Roman,serif" font-size="14.00">deregister_tm_clones</text>
</g>
<!-- register_tm_clones -->
<g id="node18" class="node">
<title>register_tm_clones</title>
<ellipse fill="none" stroke="black" cx="1395.7" cy="-162" rx="79.09" ry="18"/>
<text text-anchor="middle" x="1395.7" y="-158.3" font-family="Times New Roman,serif" font-size="14.00">register_tm_clones</text>
</g>
<!-- __do_global_dtors_aux -->
<g id="node19" class="node">
<title>__do_global_dtors_aux</title>
<ellipse fill="none" stroke="black" cx="1209.7" cy="-234" rx="98.58" ry="18"/>
<text text-anchor="middle" x="1209.7" y="-230.3" font-family="Times New Roman,serif" font-size="14.00">__do_global_dtors_aux</text>
</g>
<!-- __do_global_dtors_aux&#45;&gt;deregister_tm_clones -->
<g id="edge6" class="edge">
<title>__do_global_dtors_aux&#45;&gt;deregister_tm_clones</title>
<path fill="none" stroke="black" d="M1209.7,-215.7C1209.7,-208.41 1209.7,-199.73 1209.7,-191.54"/>
<polygon fill="black" stroke="black" points="1213.2,-191.62 1209.7,-181.62 1206.2,-191.62 1213.2,-191.62"/>
</g>
<!-- frame_dummy -->
<g id="node20" class="node">
<title>frame_dummy</title>
<ellipse fill="none" stroke="black" cx="1395.7" cy="-234" rx="63.89" ry="18"/>
<text text-anchor="middle" x="1395.7" y="-230.3" font-family="Times New Roman,serif" font-size="14.00">frame_dummy</text>
</g>
<!-- frame_dummy&#45;&gt;register_tm_clones -->
<g id="edge7" class="edge">
<title>frame_dummy&#45;&gt;register_tm_clones</title>
<path fill="none" stroke="black" d="M1395.7,-215.7C1395.7,-208.41 1395.7,-199.73 1395.7,-191.54"/>
<polygon fill="black" stroke="black" points="1399.2,-191.62 1395.7,-181.62 1392.2,-191.62 1399.2,-191.62"/>
</g>
<!-- InitializeMesh_1 -->
<g id="node22" class="node">
<title>InitializeMesh_1</title>
<ellipse fill="none" stroke="black" cx="591.7" cy="-90" rx="69.59" ry="18"/>
<text text-anchor="middle" x="591.7" y="-86.3" font-family="Times New Roman,serif" font-size="14.00">InitializeMesh_1</text>
</g>
<!-- main&#45;&gt;InitializeMesh_1 -->
<g id="edge8" class="edge">
<title>main&#45;&gt;InitializeMesh_1</title>
<path fill="none" stroke="black" d="M799.76,-153.51C763.49,-142.61 695.24,-122.11 646.81,-107.56"/>
<polygon fill="black" stroke="black" points="647.91,-104.23 637.32,-104.71 645.89,-110.94 647.91,-104.23"/>
</g>
<!-- InitializeMesh_2 -->
<g id="node23" class="node">
<title>InitializeMesh_2</title>
<ellipse fill="none" stroke="black" cx="748.7" cy="-90" rx="69.59" ry="18"/>
<text text-anchor="middle" x="748.7" y="-86.3" font-family="Times New Roman,serif" font-size="14.00">InitializeMesh_2</text>
</g>
<!-- main&#45;&gt;InitializeMesh_2 -->
<g id="edge11" class="edge">
<title>main&#45;&gt;InitializeMesh_2</title>
<path fill="none" stroke="black" d="M809.32,-146.83C799.5,-137.79 786.52,-125.84 775.09,-115.31"/>
<polygon fill="black" stroke="black" points="777.56,-112.83 767.84,-108.63 772.82,-117.98 777.56,-112.83"/>
</g>
<!-- CompareMesh -->
<g id="node24" class="node">
<title>CompareMesh</title>
<ellipse fill="none" stroke="black" cx="900.7" cy="-90" rx="64.19" ry="18"/>
<text text-anchor="middle" x="900.7" y="-86.3" font-family="Times New Roman,serif" font-size="14.00">CompareMesh</text>
</g>
<!-- main&#45;&gt;CompareMesh -->
<g id="edge14" class="edge">
<title>main&#45;&gt;CompareMesh</title>
<path fill="none" stroke="black" d="M840.08,-146.83C849.89,-137.79 862.87,-125.84 874.31,-115.31"/>
<polygon fill="black" stroke="black" points="876.57,-117.98 881.55,-108.63 871.83,-112.83 876.57,-117.98"/>
</g>
<!-- Mesh_dot -->
<g id="node25" class="node">
<title>Mesh_dot</title>
<ellipse fill="none" stroke="black" cx="1030.7" cy="-90" rx="48.19" ry="18"/>
<text text-anchor="middle" x="1030.7" y="-86.3" font-family="Times New Roman,serif" font-size="14.00">Mesh_dot</text>
</g>
<!-- main&#45;&gt;Mesh_dot -->
<g id="edge9" class="edge">
<title>main&#45;&gt;Mesh_dot</title>
<path fill="none" stroke="black" d="M849.14,-152.7C882.59,-141.33 943.28,-120.7 985.23,-106.45"/>
<polygon fill="black" stroke="black" points="986.22,-109.81 994.56,-103.28 983.97,-103.18 986.22,-109.81"/>
</g>
<!-- SwapMesh -->
<g id="node26" class="node">
<title>SwapMesh</title>
<ellipse fill="none" stroke="black" cx="1147.7" cy="-90" rx="51.19" ry="18"/>
<text text-anchor="middle" x="1147.7" y="-86.3" font-family="Times New Roman,serif" font-size="14.00">SwapMesh</text>
</g>
<!-- main&#45;&gt;SwapMesh -->
<g id="edge13" class="edge">
<title>main&#45;&gt;SwapMesh</title>
<path fill="none" stroke="black" d="M851.35,-156.33C899.02,-147.83 1001.91,-128.76 1087.7,-108 1091.22,-107.15 1094.85,-106.23 1098.5,-105.27"/>
<polygon fill="black" stroke="black" points="1099.2,-108.71 1107.94,-102.72 1097.37,-101.95 1099.2,-108.71"/>
</g>
<!-- LoadData -->
<g id="node27" class="node">
<title>LoadData</title>
<ellipse fill="none" stroke="black" cx="457.7" cy="-90" rx="46.29" ry="18"/>
<text text-anchor="middle" x="457.7" y="-86.3" font-family="Times New Roman,serif" font-size="14.00">LoadData</text>
</g>
<!-- main&#45;&gt;LoadData -->
<g id="edge15" class="edge">
<title>main&#45;&gt;LoadData</title>
<path fill="none" stroke="black" d="M797.33,-157.58C742.74,-150.5 616.65,-132.78 512.7,-108 509.55,-107.25 506.32,-106.42 503.08,-105.54"/>
<polygon fill="black" stroke="black" points="504.16,-102.2 493.58,-102.82 502.23,-108.93 504.16,-102.2"/>
</g>
<!-- ComplexDataHandle -->
<g id="node28" class="node">
<title>ComplexDataHandle</title>
<ellipse fill="none" stroke="black" cx="1302.7" cy="-90" rx="85.59" ry="18"/>
<text text-anchor="middle" x="1302.7" y="-86.3" font-family="Times New Roman,serif" font-size="14.00">ComplexDataHandle</text>
</g>
<!-- main&#45;&gt;ComplexDataHandle -->
<g id="edge10" class="edge">
<title>main&#45;&gt;ComplexDataHandle</title>
<path fill="none" stroke="black" d="M852.15,-157.58C915.12,-149.65 1074.77,-129.08 1207.7,-108 1214.54,-106.91 1221.65,-105.74 1228.76,-104.52"/>
<polygon fill="black" stroke="black" points="1229.15,-108.01 1238.41,-102.86 1227.96,-101.11 1229.15,-108.01"/>
</g>
<!-- StoreData -->
<g id="node31" class="node">
<title>StoreData</title>
<ellipse fill="none" stroke="black" cx="283.7" cy="-90" rx="46.59" ry="18"/>
<text text-anchor="middle" x="283.7" y="-86.3" font-family="Times New Roman,serif" font-size="14.00">StoreData</text>
</g>
<!-- main&#45;&gt;StoreData -->
<g id="edge12" class="edge">
<title>main&#45;&gt;StoreData</title>
<path fill="none" stroke="black" d="M797.52,-157.75C730.44,-149.69 551.62,-127.99 402.7,-108 381.5,-105.16 358.21,-101.86 337.9,-98.94"/>
<polygon fill="black" stroke="black" points="338.53,-95.5 328.13,-97.53 337.53,-102.42 338.53,-95.5"/>
</g>
<!-- InitializeMesh_1&#45;&gt;random@plt -->
<g id="edge16" class="edge">
<title>InitializeMesh_1&#45;&gt;random@plt</title>
<path fill="none" stroke="black" d="M625.38,-73.98C649.11,-63.4 681.05,-49.16 706.49,-37.82"/>
<polygon fill="black" stroke="black" points="707.85,-41.04 715.56,-33.77 705,-34.65 707.85,-41.04"/>
</g>
<!-- InitializeMesh_2&#45;&gt;random@plt -->
<g id="edge17" class="edge">
<title>InitializeMesh_2&#45;&gt;random@plt</title>
<path fill="none" stroke="black" d="M748.7,-71.7C748.7,-64.41 748.7,-55.73 748.7,-47.54"/>
<polygon fill="black" stroke="black" points="752.2,-47.62 748.7,-37.62 745.2,-47.62 752.2,-47.62"/>
</g>
<!-- LoadData&#45;&gt;fclose@plt -->
<g id="edge20" class="edge">
<title>LoadData&#45;&gt;fclose@plt</title>
<path fill="none" stroke="black" d="M444.19,-72.41C437.37,-64.04 428.96,-53.71 421.35,-44.37"/>
<polygon fill="black" stroke="black" points="424.09,-42.19 415.06,-36.64 418.66,-46.61 424.09,-42.19"/>
</g>
<!-- LoadData&#45;&gt;fopen@plt -->
<g id="edge19" class="edge">
<title>LoadData&#45;&gt;fopen@plt</title>
<path fill="none" stroke="black" d="M426.19,-76.32C398.24,-65.08 357.18,-48.56 326.31,-36.14"/>
<polygon fill="black" stroke="black" points="327.84,-32.99 317.26,-32.5 325.23,-39.48 327.84,-32.99"/>
</g>
<!-- LoadData&#45;&gt;printf@plt -->
<g id="edge21" class="edge">
<title>LoadData&#45;&gt;printf@plt</title>
<path fill="none" stroke="black" d="M488.69,-76.16C515.68,-64.98 555.04,-48.68 584.82,-36.34"/>
<polygon fill="black" stroke="black" points="586.02,-39.63 593.92,-32.57 583.35,-33.17 586.02,-39.63"/>
</g>
<!-- LoadData&#45;&gt;fgets@plt -->
<g id="edge18" class="edge">
<title>LoadData&#45;&gt;fgets@plt</title>
<path fill="none" stroke="black" d="M471.2,-72.41C478.02,-64.04 486.43,-53.71 494.04,-44.37"/>
<polygon fill="black" stroke="black" points="496.73,-46.61 500.33,-36.64 491.3,-42.19 496.73,-46.61"/>
</g>
<!-- ManiplateData1 -->
<g id="node29" class="node">
<title>ManiplateData1</title>
<ellipse fill="none" stroke="black" cx="1378.7" cy="-18" rx="66.89" ry="18"/>
<text text-anchor="middle" x="1378.7" y="-14.3" font-family="Times New Roman,serif" font-size="14.00">ManiplateData1</text>
</g>
<!-- ComplexDataHandle&#45;&gt;ManiplateData1 -->
<g id="edge23" class="edge">
<title>ComplexDataHandle&#45;&gt;ManiplateData1</title>
<path fill="none" stroke="black" d="M1321.09,-72.05C1330.43,-63.46 1341.94,-52.86 1352.21,-43.4"/>
<polygon fill="black" stroke="black" points="1354.37,-46.16 1359.35,-36.81 1349.63,-41.01 1354.37,-46.16"/>
</g>
<!-- ManiplateData2 -->
<g id="node30" class="node">
<title>ManiplateData2</title>
<ellipse fill="none" stroke="black" cx="1226.7" cy="-18" rx="66.89" ry="18"/>
<text text-anchor="middle" x="1226.7" y="-14.3" font-family="Times New Roman,serif" font-size="14.00">ManiplateData2</text>
</g>
<!-- ComplexDataHandle&#45;&gt;ManiplateData2 -->
<g id="edge22" class="edge">
<title>ComplexDataHandle&#45;&gt;ManiplateData2</title>
<path fill="none" stroke="black" d="M1284.3,-72.05C1274.96,-63.46 1263.45,-52.86 1253.18,-43.4"/>
<polygon fill="black" stroke="black" points="1255.76,-41.01 1246.04,-36.81 1251.02,-46.16 1255.76,-41.01"/>
</g>
<!-- StoreData&#45;&gt;fclose@plt -->
<g id="edge24" class="edge">
<title>StoreData&#45;&gt;fclose@plt</title>
<path fill="none" stroke="black" d="M308.22,-74.33C324.96,-64.31 347.37,-50.9 365.94,-39.8"/>
<polygon fill="black" stroke="black" points="367.71,-42.81 374.5,-34.67 364.12,-36.8 367.71,-42.81"/>
</g>
<!-- StoreData&#45;&gt;fopen@plt -->
<g id="edge25" class="edge">
<title>StoreData&#45;&gt;fopen@plt</title>
<path fill="none" stroke="black" d="M283.7,-71.7C283.7,-64.41 283.7,-55.73 283.7,-47.54"/>
<polygon fill="black" stroke="black" points="287.2,-47.62 283.7,-37.62 280.2,-47.62 287.2,-47.62"/>
</g>
<!-- StoreData&#45;&gt;fwrite@plt -->
<g id="edge27" class="edge">
<title>StoreData&#45;&gt;fwrite@plt</title>
<path fill="none" stroke="black" d="M259.38,-74.33C242.79,-64.31 220.57,-50.9 202.16,-39.8"/>
<polygon fill="black" stroke="black" points="204.05,-36.85 193.68,-34.68 200.43,-42.84 204.05,-36.85"/>
</g>
<!-- StoreData&#45;&gt;fprintf@plt -->
<g id="edge26" class="edge">
<title>StoreData&#45;&gt;fprintf@plt</title>
<path fill="none" stroke="black" d="M247.85,-78.1C241.15,-76.07 234.21,-73.97 227.7,-72 184.28,-58.91 134.83,-44.11 99.26,-33.49"/>
<polygon fill="black" stroke="black" points="100.72,-30.27 90.14,-30.76 98.72,-36.98 100.72,-30.27"/>
</g>
<!-- _fini -->
<g id="node32" class="node">
<title>_fini</title>
<ellipse fill="none" stroke="black" cx="1504.7" cy="-234" rx="27" ry="18"/>
<text text-anchor="middle" x="1504.7" y="-230.3" font-family="Times New Roman,serif" font-size="14.00">_fini</text>
</g>
</g>
</svg>
