<?xml version="1.0" encoding="UTF-8" standalone="no"?>
<!DOCTYPE svg PUBLIC "-//W3C//DTD SVG 1.1//EN"
 "http://www.w3.org/Graphics/SVG/1.1/DTD/svg11.dtd">
<!-- Generated by graphviz version 7.1.0 (20230121.1956)
 -->
<!-- Title: Procedure Graph Pages: 1 -->
<svg width="1606pt" height="260pt"
 viewBox="0.00 0.00 1606.09 260.00" xmlns="http://www.w3.org/2000/svg" xmlns:xlink="http://www.w3.org/1999/xlink">
<g id="graph0" class="graph" transform="scale(1 1) rotate(0) translate(4 256)">
<title>Procedure Graph</title>
<polygon fill="white" stroke="none" points="-4,4 -4,-256 1602.09,-256 1602.09,4 -4,4"/>
<!-- _init -->
<g id="node1" class="node">
<title>_init</title>
<ellipse fill="none" stroke="black" cx="85.79" cy="-162" rx="27" ry="18"/>
<text text-anchor="middle" x="85.79" y="-158.3" font-family="Times,serif" font-size="14.00">_init</text>
</g>
<!-- call_weak_fn -->
<g id="node9" class="node">
<title>call_weak_fn</title>
<ellipse fill="none" stroke="black" cx="85.79" cy="-90" rx="57.69" ry="18"/>
<text text-anchor="middle" x="85.79" y="-86.3" font-family="Times,serif" font-size="14.00">call_weak_fn</text>
</g>
<!-- _init&#45;&gt;call_weak_fn -->
<g id="edge1" class="edge">
<title>_init&#45;&gt;call_weak_fn</title>
<path fill="none" stroke="black" d="M85.79,-143.7C85.79,-136.41 85.79,-127.73 85.79,-119.54"/>
<polygon fill="black" stroke="black" points="89.29,-119.62 85.79,-109.62 82.29,-119.62 89.29,-119.62"/>
</g>
<!-- .plt -->
<g id="node2" class="node">
<title>.plt</title>
<ellipse fill="none" stroke="black" cx="210.79" cy="-234" rx="27" ry="18"/>
<text text-anchor="middle" x="210.79" y="-230.3" font-family="Times,serif" font-size="14.00">.plt</text>
</g>
<!-- __cxa_finalize@plt -->
<g id="node3" class="node">
<title>__cxa_finalize@plt</title>
<ellipse fill="none" stroke="black" cx="210.79" cy="-162" rx="79.89" ry="18"/>
<text text-anchor="middle" x="210.79" y="-158.3" font-family="Times,serif" font-size="14.00">__cxa_finalize@plt</text>
</g>
<!-- __libc_start_main@plt -->
<g id="node4" class="node">
<title>__libc_start_main@plt</title>
<ellipse fill="none" stroke="black" cx="591.79" cy="-162" rx="92.08" ry="18"/>
<text text-anchor="middle" x="591.79" y="-158.3" font-family="Times,serif" font-size="14.00">__libc_start_main@plt</text>
</g>
<!-- __gmon_start__@plt -->
<g id="node5" class="node">
<title>__gmon_start__@plt</title>
<ellipse fill="none" stroke="black" cx="85.79" cy="-18" rx="85.59" ry="18"/>
<text text-anchor="middle" x="85.79" y="-14.3" font-family="Times,serif" font-size="14.00">__gmon_start__@plt</text>
</g>
<!-- abort@plt -->
<g id="node6" class="node">
<title>abort@plt</title>
<ellipse fill="none" stroke="black" cx="747.79" cy="-162" rx="46.29" ry="18"/>
<text text-anchor="middle" x="747.79" y="-158.3" font-family="Times,serif" font-size="14.00">abort@plt</text>
</g>
<!-- printf@plt -->
<g id="node7" class="node">
<title>printf@plt</title>
<ellipse fill="none" stroke="black" cx="859.79" cy="-162" rx="48.19" ry="18"/>
<text text-anchor="middle" x="859.79" y="-158.3" font-family="Times,serif" font-size="14.00">printf@plt</text>
</g>
<!-- _start -->
<g id="node8" class="node">
<title>_start</title>
<ellipse fill="none" stroke="black" cx="669.79" cy="-234" rx="30.59" ry="18"/>
<text text-anchor="middle" x="669.79" y="-230.3" font-family="Times,serif" font-size="14.00">_start</text>
</g>
<!-- _start&#45;&gt;__libc_start_main@plt -->
<g id="edge2" class="edge">
<title>_start&#45;&gt;__libc_start_main@plt</title>
<path fill="none" stroke="black" d="M653.63,-218.5C643.67,-209.56 630.65,-197.87 619.13,-187.53"/>
<polygon fill="black" stroke="black" points="621.59,-185.04 611.81,-180.96 616.91,-190.25 621.59,-185.04"/>
</g>
<!-- _start&#45;&gt;abort@plt -->
<g id="edge3" class="edge">
<title>_start&#45;&gt;abort@plt</title>
<path fill="none" stroke="black" d="M685.95,-218.5C696.3,-209.22 709.94,-196.97 721.79,-186.34"/>
<polygon fill="black" stroke="black" points="723.79,-189.24 728.89,-179.96 719.11,-184.03 723.79,-189.24"/>
</g>
<!-- call_weak_fn&#45;&gt;__gmon_start__@plt -->
<g id="edge4" class="edge">
<title>call_weak_fn&#45;&gt;__gmon_start__@plt</title>
<path fill="none" stroke="black" d="M85.79,-71.7C85.79,-64.41 85.79,-55.73 85.79,-47.54"/>
<polygon fill="black" stroke="black" points="89.29,-47.62 85.79,-37.62 82.29,-47.62 89.29,-47.62"/>
</g>
<!-- deregister_tm_clones -->
<g id="node10" class="node">
<title>deregister_tm_clones</title>
<ellipse fill="none" stroke="black" cx="394.79" cy="-162" rx="86.38" ry="18"/>
<text text-anchor="middle" x="394.79" y="-158.3" font-family="Times,serif" font-size="14.00">deregister_tm_clones</text>
</g>
<!-- register_tm_clones -->
<g id="node11" class="node">
<title>register_tm_clones</title>
<ellipse fill="none" stroke="black" cx="1197.79" cy="-162" rx="77.99" ry="18"/>
<text text-anchor="middle" x="1197.79" y="-158.3" font-family="Times,serif" font-size="14.00">register_tm_clones</text>
</g>
<!-- __do_global_dtors_aux -->
<g id="node12" class="node">
<title>__do_global_dtors_aux</title>
<ellipse fill="none" stroke="black" cx="364.79" cy="-234" rx="93.68" ry="18"/>
<text text-anchor="middle" x="364.79" y="-230.3" font-family="Times,serif" font-size="14.00">__do_global_dtors_aux</text>
</g>
<!-- __do_global_dtors_aux&#45;&gt;__cxa_finalize@plt -->
<g id="edge6" class="edge">
<title>__do_global_dtors_aux&#45;&gt;__cxa_finalize@plt</title>
<path fill="none" stroke="black" d="M329.46,-216.94C307.51,-206.96 279.1,-194.05 255.58,-183.36"/>
<polygon fill="black" stroke="black" points="257.09,-180.2 246.54,-179.25 254.2,-186.57 257.09,-180.2"/>
</g>
<!-- __do_global_dtors_aux&#45;&gt;deregister_tm_clones -->
<g id="edge5" class="edge">
<title>__do_global_dtors_aux&#45;&gt;deregister_tm_clones</title>
<path fill="none" stroke="black" d="M372.21,-215.7C375.44,-208.15 379.31,-199.12 382.93,-190.68"/>
<polygon fill="black" stroke="black" points="386.14,-192.07 386.87,-181.5 379.71,-189.31 386.14,-192.07"/>
</g>
<!-- frame_dummy -->
<g id="node13" class="node">
<title>frame_dummy</title>
<ellipse fill="none" stroke="black" cx="1197.79" cy="-234" rx="63.89" ry="18"/>
<text text-anchor="middle" x="1197.79" y="-230.3" font-family="Times,serif" font-size="14.00">frame_dummy</text>
</g>
<!-- frame_dummy&#45;&gt;register_tm_clones -->
<g id="edge7" class="edge">
<title>frame_dummy&#45;&gt;register_tm_clones</title>
<path fill="none" stroke="black" d="M1197.79,-215.7C1197.79,-208.41 1197.79,-199.73 1197.79,-191.54"/>
<polygon fill="black" stroke="black" points="1201.29,-191.62 1197.79,-181.62 1194.29,-191.62 1201.29,-191.62"/>
</g>
<!-- main -->
<g id="node14" class="node">
<title>main</title>
<ellipse fill="none" stroke="black" cx="936.79" cy="-234" rx="28.7" ry="18"/>
<text text-anchor="middle" x="936.79" y="-230.3" font-family="Times,serif" font-size="14.00">main</text>
</g>
<!-- main&#45;&gt;printf@plt -->
<g id="edge8" class="edge">
<title>main&#45;&gt;printf@plt</title>
<path fill="none" stroke="black" d="M921.21,-218.83C911.03,-209.58 897.48,-197.26 885.7,-186.55"/>
<polygon fill="black" stroke="black" points="888.38,-184.26 878.63,-180.12 883.67,-189.44 888.38,-184.26"/>
</g>
<!-- initializerandommesh -->
<g id="node15" class="node">
<title>initializerandommesh</title>
<ellipse fill="none" stroke="black" cx="1013.79" cy="-162" rx="87.99" ry="18"/>
<text text-anchor="middle" x="1013.79" y="-158.3" font-family="Times,serif" font-size="14.00">initializerandommesh</text>
</g>
<!-- main&#45;&gt;initializerandommesh -->
<g id="edge9" class="edge">
<title>main&#45;&gt;initializerandommesh</title>
<path fill="none" stroke="black" d="M952.37,-218.83C962.25,-209.86 975.29,-198 986.81,-187.53"/>
<polygon fill="black" stroke="black" points="989.08,-190.19 994.13,-180.88 984.37,-185.01 989.08,-190.19"/>
</g>
<!-- SET_FLAG -->
<g id="node17" class="node">
<title>SET_FLAG</title>
<ellipse fill="none" stroke="black" cx="1013.79" cy="-90" rx="53.89" ry="18"/>
<text text-anchor="middle" x="1013.79" y="-86.3" font-family="Times,serif" font-size="14.00">SET_FLAG</text>
</g>
<!-- initializerandommesh&#45;&gt;SET_FLAG -->
<g id="edge10" class="edge">
<title>initializerandommesh&#45;&gt;SET_FLAG</title>
<path fill="none" stroke="black" d="M1013.79,-143.7C1013.79,-136.41 1013.79,-127.73 1013.79,-119.54"/>
<polygon fill="black" stroke="black" points="1017.29,-119.62 1013.79,-109.62 1010.29,-119.62 1017.29,-119.62"/>
</g>
<!-- swapMesh -->
<g id="node16" class="node">
<title>swapMesh</title>
<ellipse fill="none" stroke="black" cx="1327.79" cy="-234" rx="48.99" ry="18"/>
<text text-anchor="middle" x="1327.79" y="-230.3" font-family="Times,serif" font-size="14.00">swapMesh</text>
</g>
<!-- __libc_csu_init -->
<g id="node18" class="node">
<title>__libc_csu_init</title>
<ellipse fill="none" stroke="black" cx="85.79" cy="-234" rx="64.99" ry="18"/>
<text text-anchor="middle" x="85.79" y="-230.3" font-family="Times,serif" font-size="14.00">__libc_csu_init</text>
</g>
<!-- __libc_csu_init&#45;&gt;_init -->
<g id="edge11" class="edge">
<title>__libc_csu_init&#45;&gt;_init</title>
<path fill="none" stroke="black" d="M85.79,-215.7C85.79,-208.41 85.79,-199.73 85.79,-191.54"/>
<polygon fill="black" stroke="black" points="89.29,-191.62 85.79,-181.62 82.29,-191.62 89.29,-191.62"/>
</g>
<!-- __libc_csu_fini -->
<g id="node19" class="node">
<title>__libc_csu_fini</title>
<ellipse fill="none" stroke="black" cx="1459.79" cy="-234" rx="65.79" ry="18"/>
<text text-anchor="middle" x="1459.79" y="-230.3" font-family="Times,serif" font-size="14.00">__libc_csu_fini</text>
</g>
<!-- _fini -->
<g id="node20" class="node">
<title>_fini</title>
<ellipse fill="none" stroke="black" cx="1570.79" cy="-234" rx="27.1" ry="18"/>
<text text-anchor="middle" x="1570.79" y="-230.3" font-family="Times,serif" font-size="14.00">_fini</text>
</g>
</g>
</svg>
