<?xml version="1.0" encoding="UTF-8" standalone="no"?>
<!DOCTYPE svg PUBLIC "-//W3C//DTD SVG 1.1//EN"
 "http://www.w3.org/Graphics/SVG/1.1/DTD/svg11.dtd">
<!-- Generated by graphviz version 7.1.0 (20230121.1956)
 -->
<!-- Title: TCFG Pages: 1 -->
<svg width="571pt" height="1175pt"
 viewBox="0.00 0.00 570.92 1174.53" xmlns="http://www.w3.org/2000/svg" xmlns:xlink="http://www.w3.org/1999/xlink">
<g id="graph0" class="graph" transform="scale(1 1) rotate(0) translate(4 1170.53)">
<title>TCFG</title>
<polygon fill="white" stroke="none" points="-4,4 -4,-1170.53 566.92,-1170.53 566.92,4 -4,4"/>
<!-- n0 -->
<g id="node1" class="node">
<title>n0</title>
<ellipse fill="none" stroke="black" cx="218.46" cy="-1129.06" rx="48.58" ry="37.45"/>
<text text-anchor="middle" x="218.46" y="-1140.36" font-family="Times,serif" font-size="14.00">n0</text>
<text text-anchor="middle" x="218.46" y="-1125.36" font-family="Times,serif" font-size="14.00">main</text>
<text text-anchor="middle" x="218.46" y="-1110.36" font-family="Times,serif" font-size="14.00">(77c,7b0)</text>
</g>
<!-- n3 -->
<g id="node4" class="node">
<title>n3</title>
<ellipse fill="none" stroke="black" cx="218.46" cy="-1003.1" rx="95.42" ry="37.45"/>
<text text-anchor="middle" x="218.46" y="-1014.4" font-family="Times,serif" font-size="14.00">n3</text>
<text text-anchor="middle" x="218.46" y="-999.4" font-family="Times,serif" font-size="14.00">initializerandommesh</text>
<text text-anchor="middle" x="218.46" y="-984.4" font-family="Times,serif" font-size="14.00">(7dc,7ec)</text>
</g>
<!-- n0&#45;&gt;n3 -->
<g id="edge1" class="edge">
<title>n0&#45;&gt;n3</title>
<path fill="none" stroke="purple" d="M218.46,-1091.2C218.46,-1079.07 218.46,-1065.4 218.46,-1052.54"/>
<polygon fill="purple" stroke="purple" points="221.96,-1052.54 218.46,-1042.54 214.96,-1052.54 221.96,-1052.54"/>
<text text-anchor="middle" x="228.46" y="-1062.38" font-family="Times,serif" font-size="14.00">call</text>
</g>
<!-- n1 -->
<g id="node2" class="node">
<title>n1</title>
<ellipse fill="none" stroke="black" cx="497.46" cy="-653.24" rx="48.17" ry="37.45"/>
<text text-anchor="middle" x="497.46" y="-664.54" font-family="Times,serif" font-size="14.00">n1</text>
<text text-anchor="middle" x="497.46" y="-649.54" font-family="Times,serif" font-size="14.00">main</text>
<text text-anchor="middle" x="497.46" y="-634.54" font-family="Times,serif" font-size="14.00">(7b4,7cc)</text>
</g>
<!-- n14 -->
<g id="node15" class="node">
<title>n14</title>
<ellipse fill="none" stroke="black" cx="507.46" cy="-527.29" rx="52.15" ry="37.45"/>
<text text-anchor="middle" x="507.46" y="-538.59" font-family="Times,serif" font-size="14.00">n14</text>
<text text-anchor="middle" x="507.46" y="-523.59" font-family="Times,serif" font-size="14.00">printf@plt</text>
<text text-anchor="middle" x="507.46" y="-508.59" font-family="Times,serif" font-size="14.00">(660,66c)</text>
</g>
<!-- n1&#45;&gt;n14 -->
<g id="edge3" class="edge">
<title>n1&#45;&gt;n14</title>
<path fill="none" stroke="purple" d="M500.43,-615.39C501.43,-603.03 502.56,-589.06 503.61,-575.98"/>
<polygon fill="purple" stroke="purple" points="507.08,-576.55 504.39,-566.3 500.1,-575.98 507.08,-576.55"/>
<text text-anchor="middle" x="513.46" y="-586.57" font-family="Times,serif" font-size="14.00">call</text>
</g>
<!-- n2 -->
<g id="node3" class="node">
<title>n2</title>
<ellipse fill="none" stroke="black" cx="507.46" cy="-401.34" rx="49.49" ry="37.45"/>
<text text-anchor="middle" x="507.46" y="-412.64" font-family="Times,serif" font-size="14.00">n2</text>
<text text-anchor="middle" x="507.46" y="-397.64" font-family="Times,serif" font-size="14.00">main</text>
<text text-anchor="middle" x="507.46" y="-382.64" font-family="Times,serif" font-size="14.00">(7d0,7d8)</text>
</g>
<!-- n12 -->
<g id="node13" class="node">
<title>n12</title>
<ellipse fill="none" stroke="black" cx="218.46" cy="-891.15" rx="95.42" ry="37.45"/>
<text text-anchor="middle" x="218.46" y="-902.45" font-family="Times,serif" font-size="14.00">n12</text>
<text text-anchor="middle" x="218.46" y="-887.45" font-family="Times,serif" font-size="14.00">initializerandommesh</text>
<text text-anchor="middle" x="218.46" y="-872.45" font-family="Times,serif" font-size="14.00">(850,858)</text>
</g>
<!-- n3&#45;&gt;n12 -->
<g id="edge5" class="edge">
<title>n3&#45;&gt;n12</title>
<path fill="none" stroke="green" d="M218.46,-965.18C218.46,-957.12 218.46,-948.47 218.46,-940.05"/>
<polygon fill="green" stroke="green" points="221.96,-940.3 218.46,-930.3 214.96,-940.3 221.96,-940.3"/>
</g>
<!-- n4 -->
<g id="node5" class="node">
<title>n4</title>
<ellipse fill="none" stroke="black" cx="218.46" cy="-779.2" rx="95.42" ry="37.45"/>
<text text-anchor="middle" x="218.46" y="-790.5" font-family="Times,serif" font-size="14.00">n4</text>
<text text-anchor="middle" x="218.46" y="-775.5" font-family="Times,serif" font-size="14.00">initializerandommesh</text>
<text text-anchor="middle" x="218.46" y="-760.5" font-family="Times,serif" font-size="14.00">(7f0,7f4)</text>
</g>
<!-- n10 -->
<g id="node11" class="node">
<title>n10</title>
<ellipse fill="none" stroke="black" cx="218.46" cy="-653.24" rx="95.42" ry="37.45"/>
<text text-anchor="middle" x="218.46" y="-664.54" font-family="Times,serif" font-size="14.00">n10</text>
<text text-anchor="middle" x="218.46" y="-649.54" font-family="Times,serif" font-size="14.00">initializerandommesh</text>
<text text-anchor="middle" x="218.46" y="-634.54" font-family="Times,serif" font-size="14.00">(838,840)</text>
</g>
<!-- n4&#45;&gt;n10 -->
<g id="edge6" class="edge">
<title>n4&#45;&gt;n10</title>
<path fill="none" stroke="green" d="M218.46,-741.34C218.46,-729.21 218.46,-715.54 218.46,-702.68"/>
<polygon fill="green" stroke="green" points="221.96,-702.68 218.46,-692.68 214.96,-702.68 221.96,-702.68"/>
</g>
<!-- n5 -->
<g id="node6" class="node">
<title>n5</title>
<ellipse fill="none" stroke="black" cx="341.46" cy="-527.29" rx="95.42" ry="37.45"/>
<text text-anchor="middle" x="341.46" y="-538.59" font-family="Times,serif" font-size="14.00">n5</text>
<text text-anchor="middle" x="341.46" y="-523.59" font-family="Times,serif" font-size="14.00">initializerandommesh</text>
<text text-anchor="middle" x="341.46" y="-508.59" font-family="Times,serif" font-size="14.00">(7f8,7fc)</text>
</g>
<!-- n8 -->
<g id="node9" class="node">
<title>n8</title>
<ellipse fill="none" stroke="black" cx="341.46" cy="-401.34" rx="95.42" ry="37.45"/>
<text text-anchor="middle" x="341.46" y="-412.64" font-family="Times,serif" font-size="14.00">n8</text>
<text text-anchor="middle" x="341.46" y="-397.64" font-family="Times,serif" font-size="14.00">initializerandommesh</text>
<text text-anchor="middle" x="341.46" y="-382.64" font-family="Times,serif" font-size="14.00">(820,828)</text>
</g>
<!-- n5&#45;&gt;n8 -->
<g id="edge7" class="edge">
<title>n5&#45;&gt;n8</title>
<path fill="none" stroke="green" d="M341.46,-489.44C341.46,-477.31 341.46,-463.63 341.46,-450.77"/>
<polygon fill="green" stroke="green" points="344.96,-450.78 341.46,-440.78 337.96,-450.78 344.96,-450.78"/>
</g>
<!-- n6 -->
<g id="node7" class="node">
<title>n6</title>
<ellipse fill="none" stroke="black" cx="464.46" cy="-289.38" rx="95.42" ry="37.45"/>
<text text-anchor="middle" x="464.46" y="-300.68" font-family="Times,serif" font-size="14.00">n6</text>
<text text-anchor="middle" x="464.46" y="-285.68" font-family="Times,serif" font-size="14.00">initializerandommesh</text>
<text text-anchor="middle" x="464.46" y="-270.68" font-family="Times,serif" font-size="14.00">(800,810)</text>
</g>
<!-- n15 -->
<g id="node16" class="node">
<title>n15</title>
<ellipse fill="none" stroke="black" cx="446.46" cy="-163.43" rx="58.88" ry="37.45"/>
<text text-anchor="middle" x="446.46" y="-174.73" font-family="Times,serif" font-size="14.00">n15</text>
<text text-anchor="middle" x="446.46" y="-159.73" font-family="Times,serif" font-size="14.00">SET_FLAG</text>
<text text-anchor="middle" x="446.46" y="-144.73" font-family="Times,serif" font-size="14.00">(8ac,918)</text>
</g>
<!-- n6&#45;&gt;n15 -->
<g id="edge8" class="edge">
<title>n6&#45;&gt;n15</title>
<path fill="none" stroke="purple" d="M459.11,-251.53C457.31,-239.17 455.28,-225.2 453.39,-212.12"/>
<polygon fill="purple" stroke="purple" points="456.88,-211.82 451.98,-202.43 449.95,-212.83 456.88,-211.82"/>
<text text-anchor="middle" x="467.46" y="-222.71" font-family="Times,serif" font-size="14.00">call</text>
</g>
<!-- n7 -->
<g id="node8" class="node">
<title>n7</title>
<ellipse fill="none" stroke="black" cx="357.46" cy="-37.48" rx="95.42" ry="37.45"/>
<text text-anchor="middle" x="357.46" y="-48.78" font-family="Times,serif" font-size="14.00">n7</text>
<text text-anchor="middle" x="357.46" y="-33.78" font-family="Times,serif" font-size="14.00">initializerandommesh</text>
<text text-anchor="middle" x="357.46" y="-18.78" font-family="Times,serif" font-size="14.00">(814,81c)</text>
</g>
<!-- n7&#45;&gt;n8 -->
<g id="edge10" class="edge">
<title>n7&#45;&gt;n8</title>
<path fill="none" stroke="black" d="M355.83,-75.26C352.92,-141.17 346.81,-279.31 343.58,-352.48"/>
<polygon fill="black" stroke="black" points="340.09,-351.99 343.15,-362.14 347.09,-352.3 340.09,-351.99"/>
</g>
<!-- n8&#45;&gt;n6 -->
<g id="edge11" class="edge">
<title>n8&#45;&gt;n6</title>
<path fill="none" stroke="green" d="M379.03,-366.75C391.43,-355.66 405.37,-343.2 418.34,-331.61"/>
<polygon fill="green" stroke="green" points="420.44,-334.43 425.56,-325.15 415.78,-329.21 420.44,-334.43"/>
</g>
<!-- n9 -->
<g id="node10" class="node">
<title>n9</title>
<ellipse fill="none" stroke="black" cx="218.46" cy="-289.38" rx="95.42" ry="37.45"/>
<text text-anchor="middle" x="218.46" y="-300.68" font-family="Times,serif" font-size="14.00">n9</text>
<text text-anchor="middle" x="218.46" y="-285.68" font-family="Times,serif" font-size="14.00">initializerandommesh</text>
<text text-anchor="middle" x="218.46" y="-270.68" font-family="Times,serif" font-size="14.00">(82c,834)</text>
</g>
<!-- n8&#45;&gt;n9 -->
<g id="edge12" class="edge">
<title>n8&#45;&gt;n9</title>
<path fill="none" stroke="red" d="M303.89,-366.75C291.48,-355.66 277.54,-343.2 264.58,-331.61"/>
<polygon fill="red" stroke="red" points="267.14,-329.21 257.35,-325.15 262.48,-334.43 267.14,-329.21"/>
</g>
<!-- n9&#45;&gt;n10 -->
<g id="edge13" class="edge">
<title>n9&#45;&gt;n10</title>
<path fill="none" stroke="black" d="M218.46,-327.17C218.46,-393.07 218.46,-531.21 218.46,-604.39"/>
<polygon fill="black" stroke="black" points="214.96,-604.04 218.46,-614.04 221.96,-604.04 214.96,-604.04"/>
</g>
<!-- n10&#45;&gt;n5 -->
<g id="edge14" class="edge">
<title>n10&#45;&gt;n5</title>
<path fill="none" stroke="green" d="M252.4,-618.04C267.05,-603.28 284.34,-585.86 299.76,-570.31"/>
<polygon fill="green" stroke="green" points="302.01,-573.02 306.57,-563.45 297.04,-568.08 302.01,-573.02"/>
</g>
<!-- n11 -->
<g id="node12" class="node">
<title>n11</title>
<ellipse fill="none" stroke="black" cx="95.46" cy="-527.29" rx="95.42" ry="37.45"/>
<text text-anchor="middle" x="95.46" y="-538.59" font-family="Times,serif" font-size="14.00">n11</text>
<text text-anchor="middle" x="95.46" y="-523.59" font-family="Times,serif" font-size="14.00">initializerandommesh</text>
<text text-anchor="middle" x="95.46" y="-508.59" font-family="Times,serif" font-size="14.00">(844,84c)</text>
</g>
<!-- n10&#45;&gt;n11 -->
<g id="edge15" class="edge">
<title>n10&#45;&gt;n11</title>
<path fill="none" stroke="red" d="M184.52,-618.04C169.87,-603.28 152.58,-585.86 137.16,-570.31"/>
<polygon fill="red" stroke="red" points="139.88,-568.08 130.35,-563.45 134.91,-573.02 139.88,-568.08"/>
</g>
<!-- n11&#45;&gt;n12 -->
<g id="edge16" class="edge">
<title>n11&#45;&gt;n12</title>
<path fill="none" stroke="black" d="M88.41,-564.78C79.26,-622.39 69.33,-736.13 114.46,-816.67 122.93,-831.78 135.95,-844.52 149.95,-854.93"/>
<polygon fill="black" stroke="black" points="147.81,-857.71 158.01,-860.57 151.82,-851.97 147.81,-857.71"/>
</g>
<!-- n12&#45;&gt;n4 -->
<g id="edge17" class="edge">
<title>n12&#45;&gt;n4</title>
<path fill="none" stroke="green" d="M218.46,-853.23C218.46,-845.17 218.46,-836.52 218.46,-828.1"/>
<polygon fill="green" stroke="green" points="221.96,-828.34 218.46,-818.34 214.96,-828.34 221.96,-828.34"/>
</g>
<!-- n13 -->
<g id="node14" class="node">
<title>n13</title>
<ellipse fill="none" stroke="black" cx="467.46" cy="-779.2" rx="95.42" ry="37.45"/>
<text text-anchor="middle" x="467.46" y="-790.5" font-family="Times,serif" font-size="14.00">n13</text>
<text text-anchor="middle" x="467.46" y="-775.5" font-family="Times,serif" font-size="14.00">initializerandommesh</text>
<text text-anchor="middle" x="467.46" y="-760.5" font-family="Times,serif" font-size="14.00">(85c,868)</text>
</g>
<!-- n12&#45;&gt;n13 -->
<g id="edge18" class="edge">
<title>n12&#45;&gt;n13</title>
<path fill="none" stroke="red" d="M280.97,-862.55C315.45,-847.32 358.46,-828.33 394.47,-812.43"/>
<polygon fill="red" stroke="red" points="395.8,-815.66 403.54,-808.42 392.98,-809.26 395.8,-815.66"/>
</g>
<!-- n13&#45;&gt;n1 -->
<g id="edge2" class="edge">
<title>n13&#45;&gt;n1</title>
<path fill="none" stroke="purple" d="M476.3,-741.68C479.35,-729.07 482.81,-714.76 486.04,-701.42"/>
<polygon fill="purple" stroke="purple" points="489.38,-702.52 488.33,-691.97 482.57,-700.87 489.38,-702.52"/>
<text text-anchor="middle" x="500.96" y="-712.52" font-family="Times,serif" font-size="14.00">return</text>
</g>
<!-- n14&#45;&gt;n2 -->
<g id="edge4" class="edge">
<title>n14&#45;&gt;n2</title>
<path fill="none" stroke="purple" stroke-dasharray="5,2" d="M507.46,-489.44C507.46,-477.31 507.46,-463.63 507.46,-450.77"/>
<polygon fill="purple" stroke="purple" points="510.96,-450.78 507.46,-440.78 503.96,-450.78 510.96,-450.78"/>
<text text-anchor="middle" x="523.96" y="-460.61" font-family="Times,serif" font-size="14.00">return</text>
</g>
<!-- n15&#45;&gt;n7 -->
<g id="edge9" class="edge">
<title>n15&#45;&gt;n7</title>
<path fill="none" stroke="purple" d="M422.37,-128.89C412.23,-114.76 400.27,-98.11 389.41,-82.97"/>
<polygon fill="purple" stroke="purple" points="392.37,-81.09 383.69,-75.01 386.68,-85.17 392.37,-81.09"/>
<text text-anchor="middle" x="423.96" y="-96.75" font-family="Times,serif" font-size="14.00">return</text>
</g>
</g>
</svg>
