<?xml version="1.0" encoding="UTF-8" standalone="no"?>
<!DOCTYPE svg PUBLIC "-//W3C//DTD SVG 1.1//EN"
 "http://www.w3.org/Graphics/SVG/1.1/DTD/svg11.dtd">
<!-- Generated by graphviz version 7.1.0 (20230121.1956)
 -->
<!-- Title: TCFG Pages: 1 -->
<svg width="561pt" height="1175pt"
 viewBox="0.00 0.00 560.68 1174.53" xmlns="http://www.w3.org/2000/svg" xmlns:xlink="http://www.w3.org/1999/xlink">
<g id="graph0" class="graph" transform="scale(1 1) rotate(0) translate(4 1170.53)">
<title>TCFG</title>
<polygon fill="white" stroke="none" points="-4,4 -4,-1170.53 556.68,-1170.53 556.68,4 -4,4"/>
<!-- n0 -->
<g id="node1" class="node">
<title>n0</title>
<ellipse fill="none" stroke="black" cx="214.34" cy="-1129.06" rx="50.41" ry="37.45"/>
<text text-anchor="middle" x="214.34" y="-1140.36" font-family="Times New Roman,serif" font-size="14.00">n0</text>
<text text-anchor="middle" x="214.34" y="-1125.36" font-family="Times New Roman,serif" font-size="14.00">main</text>
<text text-anchor="middle" x="214.34" y="-1110.36" font-family="Times New Roman,serif" font-size="14.00">(77c,7b0)</text>
</g>
<!-- n3 -->
<g id="node4" class="node">
<title>n3</title>
<ellipse fill="none" stroke="black" cx="214.34" cy="-1003.1" rx="93.18" ry="37.45"/>
<text text-anchor="middle" x="214.34" y="-1014.4" font-family="Times New Roman,serif" font-size="14.00">n3</text>
<text text-anchor="middle" x="214.34" y="-999.4" font-family="Times New Roman,serif" font-size="14.00">initializerandommesh</text>
<text text-anchor="middle" x="214.34" y="-984.4" font-family="Times New Roman,serif" font-size="14.00">(7dc,7ec)</text>
</g>
<!-- n0&#45;&gt;n3 -->
<g id="edge1" class="edge">
<title>n0&#45;&gt;n3</title>
<path fill="none" stroke="purple" d="M214.34,-1091.2C214.34,-1079.07 214.34,-1065.4 214.34,-1052.54"/>
<polygon fill="purple" stroke="purple" points="217.84,-1052.54 214.34,-1042.54 210.84,-1052.54 217.84,-1052.54"/>
<text text-anchor="middle" x="223.84" y="-1062.38" font-family="Times New Roman,serif" font-size="14.00">call</text>
</g>
<!-- n1 -->
<g id="node2" class="node">
<title>n1</title>
<ellipse fill="none" stroke="black" cx="489.34" cy="-653.24" rx="50.41" ry="37.45"/>
<text text-anchor="middle" x="489.34" y="-664.54" font-family="Times New Roman,serif" font-size="14.00">n1</text>
<text text-anchor="middle" x="489.34" y="-649.54" font-family="Times New Roman,serif" font-size="14.00">main</text>
<text text-anchor="middle" x="489.34" y="-634.54" font-family="Times New Roman,serif" font-size="14.00">(7b4,7cc)</text>
</g>
<!-- n14 -->
<g id="node15" class="node">
<title>n14</title>
<ellipse fill="none" stroke="black" cx="499.34" cy="-527.29" rx="52.15" ry="37.45"/>
<text text-anchor="middle" x="499.34" y="-538.59" font-family="Times New Roman,serif" font-size="14.00">n14</text>
<text text-anchor="middle" x="499.34" y="-523.59" font-family="Times New Roman,serif" font-size="14.00">printf@plt</text>
<text text-anchor="middle" x="499.34" y="-508.59" font-family="Times New Roman,serif" font-size="14.00">(660,66c)</text>
</g>
<!-- n1&#45;&gt;n14 -->
<g id="edge3" class="edge">
<title>n1&#45;&gt;n14</title>
<path fill="none" stroke="purple" d="M492.31,-615.39C493.31,-603.03 494.44,-589.06 495.49,-575.98"/>
<polygon fill="purple" stroke="purple" points="498.96,-576.55 496.27,-566.3 491.98,-575.98 498.96,-576.55"/>
<text text-anchor="middle" x="504.84" y="-586.57" font-family="Times New Roman,serif" font-size="14.00">call</text>
</g>
<!-- n2 -->
<g id="node3" class="node">
<title>n2</title>
<ellipse fill="none" stroke="black" cx="499.34" cy="-401.34" rx="50.41" ry="37.45"/>
<text text-anchor="middle" x="499.34" y="-412.64" font-family="Times New Roman,serif" font-size="14.00">n2</text>
<text text-anchor="middle" x="499.34" y="-397.64" font-family="Times New Roman,serif" font-size="14.00">main</text>
<text text-anchor="middle" x="499.34" y="-382.64" font-family="Times New Roman,serif" font-size="14.00">(7d0,7d8)</text>
</g>
<!-- n12 -->
<g id="node13" class="node">
<title>n12</title>
<ellipse fill="none" stroke="black" cx="214.34" cy="-891.15" rx="93.18" ry="37.45"/>
<text text-anchor="middle" x="214.34" y="-902.45" font-family="Times New Roman,serif" font-size="14.00">n12</text>
<text text-anchor="middle" x="214.34" y="-887.45" font-family="Times New Roman,serif" font-size="14.00">initializerandommesh</text>
<text text-anchor="middle" x="214.34" y="-872.45" font-family="Times New Roman,serif" font-size="14.00">(850,858)</text>
</g>
<!-- n3&#45;&gt;n12 -->
<g id="edge5" class="edge">
<title>n3&#45;&gt;n12</title>
<path fill="none" stroke="green" d="M214.34,-965.18C214.34,-957.12 214.34,-948.47 214.34,-940.05"/>
<polygon fill="green" stroke="green" points="217.84,-940.3 214.34,-930.3 210.84,-940.3 217.84,-940.3"/>
</g>
<!-- n4 -->
<g id="node5" class="node">
<title>n4</title>
<ellipse fill="none" stroke="black" cx="214.34" cy="-779.2" rx="93.18" ry="37.45"/>
<text text-anchor="middle" x="214.34" y="-790.5" font-family="Times New Roman,serif" font-size="14.00">n4</text>
<text text-anchor="middle" x="214.34" y="-775.5" font-family="Times New Roman,serif" font-size="14.00">initializerandommesh</text>
<text text-anchor="middle" x="214.34" y="-760.5" font-family="Times New Roman,serif" font-size="14.00">(7f0,7f4)</text>
</g>
<!-- n10 -->
<g id="node11" class="node">
<title>n10</title>
<ellipse fill="none" stroke="black" cx="214.34" cy="-653.24" rx="93.18" ry="37.45"/>
<text text-anchor="middle" x="214.34" y="-664.54" font-family="Times New Roman,serif" font-size="14.00">n10</text>
<text text-anchor="middle" x="214.34" y="-649.54" font-family="Times New Roman,serif" font-size="14.00">initializerandommesh</text>
<text text-anchor="middle" x="214.34" y="-634.54" font-family="Times New Roman,serif" font-size="14.00">(838,840)</text>
</g>
<!-- n4&#45;&gt;n10 -->
<g id="edge6" class="edge">
<title>n4&#45;&gt;n10</title>
<path fill="none" stroke="green" d="M214.34,-741.34C214.34,-729.21 214.34,-715.54 214.34,-702.68"/>
<polygon fill="green" stroke="green" points="217.84,-702.68 214.34,-692.68 210.84,-702.68 217.84,-702.68"/>
</g>
<!-- n5 -->
<g id="node6" class="node">
<title>n5</title>
<ellipse fill="none" stroke="black" cx="335.34" cy="-527.29" rx="93.18" ry="37.45"/>
<text text-anchor="middle" x="335.34" y="-538.59" font-family="Times New Roman,serif" font-size="14.00">n5</text>
<text text-anchor="middle" x="335.34" y="-523.59" font-family="Times New Roman,serif" font-size="14.00">initializerandommesh</text>
<text text-anchor="middle" x="335.34" y="-508.59" font-family="Times New Roman,serif" font-size="14.00">(7f8,7fc)</text>
</g>
<!-- n8 -->
<g id="node9" class="node">
<title>n8</title>
<ellipse fill="none" stroke="black" cx="335.34" cy="-401.34" rx="93.18" ry="37.45"/>
<text text-anchor="middle" x="335.34" y="-412.64" font-family="Times New Roman,serif" font-size="14.00">n8</text>
<text text-anchor="middle" x="335.34" y="-397.64" font-family="Times New Roman,serif" font-size="14.00">initializerandommesh</text>
<text text-anchor="middle" x="335.34" y="-382.64" font-family="Times New Roman,serif" font-size="14.00">(820,828)</text>
</g>
<!-- n5&#45;&gt;n8 -->
<g id="edge7" class="edge">
<title>n5&#45;&gt;n8</title>
<path fill="none" stroke="green" d="M335.34,-489.44C335.34,-477.31 335.34,-463.63 335.34,-450.77"/>
<polygon fill="green" stroke="green" points="338.84,-450.78 335.34,-440.78 331.84,-450.78 338.84,-450.78"/>
</g>
<!-- n6 -->
<g id="node7" class="node">
<title>n6</title>
<ellipse fill="none" stroke="black" cx="456.34" cy="-289.38" rx="93.18" ry="37.45"/>
<text text-anchor="middle" x="456.34" y="-300.68" font-family="Times New Roman,serif" font-size="14.00">n6</text>
<text text-anchor="middle" x="456.34" y="-285.68" font-family="Times New Roman,serif" font-size="14.00">initializerandommesh</text>
<text text-anchor="middle" x="456.34" y="-270.68" font-family="Times New Roman,serif" font-size="14.00">(800,810)</text>
</g>
<!-- n15 -->
<g id="node16" class="node">
<title>n15</title>
<ellipse fill="none" stroke="black" cx="440.34" cy="-163.43" rx="60.62" ry="37.45"/>
<text text-anchor="middle" x="440.34" y="-174.73" font-family="Times New Roman,serif" font-size="14.00">n15</text>
<text text-anchor="middle" x="440.34" y="-159.73" font-family="Times New Roman,serif" font-size="14.00">SET_FLAG</text>
<text text-anchor="middle" x="440.34" y="-144.73" font-family="Times New Roman,serif" font-size="14.00">(8ac,918)</text>
</g>
<!-- n6&#45;&gt;n15 -->
<g id="edge8" class="edge">
<title>n6&#45;&gt;n15</title>
<path fill="none" stroke="purple" d="M451.58,-251.53C449.98,-239.17 448.18,-225.2 446.49,-212.12"/>
<polygon fill="purple" stroke="purple" points="449.99,-211.9 445.24,-202.43 443.05,-212.8 449.99,-211.9"/>
<text text-anchor="middle" x="458.84" y="-222.71" font-family="Times New Roman,serif" font-size="14.00">call</text>
</g>
<!-- n7 -->
<g id="node8" class="node">
<title>n7</title>
<ellipse fill="none" stroke="black" cx="351.34" cy="-37.48" rx="93.18" ry="37.45"/>
<text text-anchor="middle" x="351.34" y="-48.78" font-family="Times New Roman,serif" font-size="14.00">n7</text>
<text text-anchor="middle" x="351.34" y="-33.78" font-family="Times New Roman,serif" font-size="14.00">initializerandommesh</text>
<text text-anchor="middle" x="351.34" y="-18.78" font-family="Times New Roman,serif" font-size="14.00">(814,81c)</text>
</g>
<!-- n7&#45;&gt;n8 -->
<g id="edge10" class="edge">
<title>n7&#45;&gt;n8</title>
<path fill="none" stroke="black" d="M349.71,-75.26C346.8,-141.17 340.69,-279.31 337.45,-352.48"/>
<polygon fill="black" stroke="black" points="333.97,-351.99 337.03,-362.14 340.97,-352.3 333.97,-351.99"/>
</g>
<!-- n8&#45;&gt;n6 -->
<g id="edge11" class="edge">
<title>n8&#45;&gt;n6</title>
<path fill="none" stroke="green" d="M372.3,-366.75C384.5,-355.66 398.21,-343.2 410.97,-331.61"/>
<polygon fill="green" stroke="green" points="413.02,-334.48 418.07,-325.16 408.31,-329.3 413.02,-334.48"/>
</g>
<!-- n9 -->
<g id="node10" class="node">
<title>n9</title>
<ellipse fill="none" stroke="black" cx="214.34" cy="-289.38" rx="93.18" ry="37.45"/>
<text text-anchor="middle" x="214.34" y="-300.68" font-family="Times New Roman,serif" font-size="14.00">n9</text>
<text text-anchor="middle" x="214.34" y="-285.68" font-family="Times New Roman,serif" font-size="14.00">initializerandommesh</text>
<text text-anchor="middle" x="214.34" y="-270.68" font-family="Times New Roman,serif" font-size="14.00">(82c,834)</text>
</g>
<!-- n8&#45;&gt;n9 -->
<g id="edge12" class="edge">
<title>n8&#45;&gt;n9</title>
<path fill="none" stroke="red" d="M298.38,-366.75C286.18,-355.66 272.46,-343.2 259.71,-331.61"/>
<polygon fill="red" stroke="red" points="262.36,-329.3 252.61,-325.16 257.66,-334.48 262.36,-329.3"/>
</g>
<!-- n9&#45;&gt;n10 -->
<g id="edge13" class="edge">
<title>n9&#45;&gt;n10</title>
<path fill="none" stroke="black" d="M214.34,-327.17C214.34,-393.07 214.34,-531.21 214.34,-604.39"/>
<polygon fill="black" stroke="black" points="210.84,-604.04 214.34,-614.04 217.84,-604.04 210.84,-604.04"/>
</g>
<!-- n10&#45;&gt;n5 -->
<g id="edge14" class="edge">
<title>n10&#45;&gt;n5</title>
<path fill="none" stroke="green" d="M247.72,-618.04C262.14,-603.28 279.14,-585.86 294.32,-570.31"/>
<polygon fill="green" stroke="green" points="296.52,-573.06 301.01,-563.46 291.52,-568.17 296.52,-573.06"/>
</g>
<!-- n11 -->
<g id="node12" class="node">
<title>n11</title>
<ellipse fill="none" stroke="black" cx="93.34" cy="-527.29" rx="93.18" ry="37.45"/>
<text text-anchor="middle" x="93.34" y="-538.59" font-family="Times New Roman,serif" font-size="14.00">n11</text>
<text text-anchor="middle" x="93.34" y="-523.59" font-family="Times New Roman,serif" font-size="14.00">initializerandommesh</text>
<text text-anchor="middle" x="93.34" y="-508.59" font-family="Times New Roman,serif" font-size="14.00">(844,84c)</text>
</g>
<!-- n10&#45;&gt;n11 -->
<g id="edge15" class="edge">
<title>n10&#45;&gt;n11</title>
<path fill="none" stroke="red" d="M180.95,-618.04C166.54,-603.28 149.53,-585.86 134.36,-570.31"/>
<polygon fill="red" stroke="red" points="137.16,-568.17 127.67,-563.46 132.15,-573.06 137.16,-568.17"/>
</g>
<!-- n11&#45;&gt;n12 -->
<g id="edge16" class="edge">
<title>n11&#45;&gt;n12</title>
<path fill="none" stroke="black" d="M86.38,-564.73C77.35,-622.27 67.58,-735.93 112.34,-816.67 120.67,-831.71 133.53,-844.44 147.34,-854.87"/>
<polygon fill="black" stroke="black" points="145.1,-857.58 155.28,-860.52 149.16,-851.87 145.1,-857.58"/>
</g>
<!-- n12&#45;&gt;n4 -->
<g id="edge17" class="edge">
<title>n12&#45;&gt;n4</title>
<path fill="none" stroke="green" d="M214.34,-853.23C214.34,-845.17 214.34,-836.52 214.34,-828.1"/>
<polygon fill="green" stroke="green" points="217.84,-828.34 214.34,-818.34 210.84,-828.34 217.84,-828.34"/>
</g>
<!-- n13 -->
<g id="node14" class="node">
<title>n13</title>
<ellipse fill="none" stroke="black" cx="459.34" cy="-779.2" rx="93.18" ry="37.45"/>
<text text-anchor="middle" x="459.34" y="-790.5" font-family="Times New Roman,serif" font-size="14.00">n13</text>
<text text-anchor="middle" x="459.34" y="-775.5" font-family="Times New Roman,serif" font-size="14.00">initializerandommesh</text>
<text text-anchor="middle" x="459.34" y="-760.5" font-family="Times New Roman,serif" font-size="14.00">(85c,868)</text>
</g>
<!-- n12&#45;&gt;n13 -->
<g id="edge18" class="edge">
<title>n12&#45;&gt;n13</title>
<path fill="none" stroke="red" d="M275.85,-862.55C309.78,-847.32 352.09,-828.33 387.53,-812.43"/>
<polygon fill="red" stroke="red" points="388.73,-815.72 396.42,-808.43 385.87,-809.33 388.73,-815.72"/>
</g>
<!-- n13&#45;&gt;n1 -->
<g id="edge2" class="edge">
<title>n13&#45;&gt;n1</title>
<path fill="none" stroke="purple" d="M468.18,-741.68C471.23,-729.07 474.69,-714.76 477.92,-701.42"/>
<polygon fill="purple" stroke="purple" points="481.26,-702.52 480.21,-691.97 474.45,-700.87 481.26,-702.52"/>
<text text-anchor="middle" x="492.84" y="-712.52" font-family="Times New Roman,serif" font-size="14.00">return</text>
</g>
<!-- n14&#45;&gt;n2 -->
<g id="edge4" class="edge">
<title>n14&#45;&gt;n2</title>
<path fill="none" stroke="purple" stroke-dasharray="5,2" d="M499.34,-489.44C499.34,-477.31 499.34,-463.63 499.34,-450.77"/>
<polygon fill="purple" stroke="purple" points="502.84,-450.78 499.34,-440.78 495.84,-450.78 502.84,-450.78"/>
<text text-anchor="middle" x="515.84" y="-460.61" font-family="Times New Roman,serif" font-size="14.00">return</text>
</g>
<!-- n15&#45;&gt;n7 -->
<g id="edge9" class="edge">
<title>n15&#45;&gt;n7</title>
<path fill="none" stroke="purple" d="M416.25,-128.89C406.11,-114.76 394.15,-98.11 383.29,-82.97"/>
<polygon fill="purple" stroke="purple" points="386.24,-81.09 377.57,-75.01 380.56,-85.17 386.24,-81.09"/>
<text text-anchor="middle" x="417.84" y="-96.75" font-family="Times New Roman,serif" font-size="14.00">return</text>
</g>
</g>
</svg>
